<svg width="406" height="409" viewBox="0 0 406 409" fill="none" xmlns="http://www.w3.org/2000/svg">
<path d="M389.199 75.585C360.359 54.3175 337.158 36.8357 337.378 36.5384C337.597 36.241 361.153 53.2408 389.993 74.5083C418.832 95.7759 442.033 113.258 441.814 113.555C441.595 113.852 418.038 96.8525 389.199 75.585Z" fill="#263238"/>
<path d="M420.199 130.585C391.359 109.317 368.158 91.8357 368.378 91.5384C368.597 91.2411 392.153 108.241 420.993 129.508C449.832 150.776 473.033 168.258 472.814 168.555C472.595 168.852 449.038 151.853 420.199 130.585Z" fill="#263238"/>
<path d="M195.277 167.24C195.277 167.24 180.561 286.528 248.343 371.255C316.125 455.983 494.722 550.967 511.89 553.419C511.89 553.419 460.162 510.61 522.816 490.766C585.469 470.922 612.002 445.503 611.779 421.2C611.333 397.12 551.132 338.256 579.895 310.162C608.435 282.068 651.913 273.596 671.98 240.82C671.98 240.82 605.982 272.258 555.369 267.353C504.755 262.447 318.132 213.172 279.781 148.511" fill="#EC1515"/>
<path d="M591.936 398.68C591.936 398.68 591.713 398.68 591.49 398.68C591.044 398.68 590.598 398.68 589.929 398.457C588.591 398.457 586.584 398.234 584.132 398.011C581.679 397.788 578.335 397.788 574.767 397.342C571.2 396.896 566.963 396.673 562.504 396.004C560.274 395.781 557.822 395.336 555.369 395.113C552.916 394.89 550.241 394.444 547.565 393.998C542.214 393.329 536.64 391.991 530.62 390.876C518.802 388.424 505.87 385.079 492.492 381.066C479.114 376.829 466.851 371.924 455.703 367.242C450.128 364.789 445 362.336 440.095 359.884C437.642 358.769 435.413 357.654 433.183 356.316C430.953 355.201 428.947 354.087 426.94 352.972C422.926 350.965 419.359 348.735 416.237 346.952C413.116 345.168 410.44 343.607 408.211 342.046C406.204 340.709 404.42 339.817 403.082 338.925C402.637 338.702 402.191 338.256 401.745 338.033C401.522 337.81 401.299 337.81 401.299 337.81C401.299 337.81 401.522 338.033 401.745 338.033C402.191 338.256 402.414 338.479 403.082 338.925C404.197 339.817 405.981 340.932 407.988 342.269C410.217 343.607 412.67 345.391 415.792 347.175C418.913 348.958 422.481 351.188 426.494 353.418C428.501 354.533 430.507 355.647 432.737 356.985C434.967 358.1 437.196 359.215 439.649 360.553C444.331 363.005 449.683 365.458 455.257 367.911C466.405 372.816 478.891 377.721 492.269 381.958C505.647 386.194 518.579 389.315 530.397 391.768C536.417 392.883 541.991 393.998 547.342 394.667C550.018 395.113 552.693 395.559 555.146 395.781C557.599 396.004 560.051 396.227 562.281 396.673C566.74 397.342 570.977 397.342 574.544 397.788C578.112 398.011 581.233 398.234 583.909 398.234C586.361 398.234 588.368 398.457 589.706 398.457C590.375 398.457 590.821 398.457 591.267 398.457C591.713 398.68 591.936 398.68 591.936 398.68Z" fill="#263238"/>
<g opacity="0.4">
<path opacity="0.4" d="M308.767 176.604C357.82 242.602 436.75 295.445 519.025 296.783C532.626 297.006 547.788 296.783 558.49 305.256C566.294 311.276 560.274 332.904 568.747 350.964C579.449 373.484 579.449 375.491 595.057 396.004C602.638 406.037 608.881 418.746 605.759 430.786C601.969 445.056 588.145 453.975 575.436 461.556C551.578 475.826 527.721 490.096 503.64 504.366C494.276 509.94 484.688 515.737 473.763 516.406C459.939 517.521 447.007 510.386 435.19 503.251C326.159 437.03 239.424 334.465 192.155 216.069" fill="black"/>
</g>
<path d="M39.1997 39.0342C39.1997 39.0342 35.6322 18.7442 33.8485 16.9604L0.18047 24.0954C0.18047 24.0954 12.8896 49.2907 13.1125 50.1825L39.1997 39.0342Z" fill="#FFBE9D"/>
<path d="M0.626129 26.3241C0.626129 26.3241 0.626143 26.5471 0.84911 26.993C1.96394 30.1145 8.653 42.3777 10.4367 42.1548C12.4434 41.9318 16.2338 38.5873 15.5649 36.8035C14.896 35.0198 6.64627 21.4188 6.64627 21.4188C6.64627 21.4188 5.08551 19.4121 1.29507 20.7499C-1.15757 21.6418 0.626129 26.3241 0.626129 26.3241Z" fill="#FFBE9D"/>
<path d="M5.75412 17.8509C5.75412 17.8509 5.75414 18.0739 5.97711 18.5198C7.09194 21.6414 13.7809 33.9046 15.5647 33.6816C17.5714 33.4586 21.3618 30.1141 20.6929 28.3304C20.024 26.5466 11.7742 12.9457 11.7742 12.9457C11.7742 12.9457 10.2134 10.939 6.423 12.2768C3.97036 13.3916 5.75412 17.8509 5.75412 17.8509Z" fill="#FFBE9D"/>
<path d="M11.7746 11.8314C11.7746 11.8314 11.7746 12.0544 11.9975 12.5003C13.1124 15.6219 19.8014 27.885 21.5852 27.6621C23.5919 27.4391 27.3823 24.0946 26.7134 22.3109C26.0445 20.5271 17.7947 6.92614 17.7947 6.92614C17.7947 6.92614 16.2339 4.91943 12.4435 6.25723C9.99087 7.37207 11.7746 11.8314 11.7746 11.8314Z" fill="#FFBE9D"/>
<path d="M18.0173 6.03403C18.0173 6.03403 18.0173 6.257 18.2403 6.70294C19.3551 9.82448 26.0441 22.0877 27.8278 21.8647C29.8345 21.6417 33.625 18.2972 32.9561 16.5135C32.2872 14.7298 24.0374 1.12876 24.0374 1.12876C24.0374 1.12876 22.4766 -0.877931 18.6862 0.459871C16.2335 1.35174 18.0173 6.03403 18.0173 6.03403Z" fill="#FFBE9D"/>
<path d="M13.7809 33.2367C13.5579 33.2367 11.7741 30.784 9.9904 27.4395C8.20666 24.095 6.86889 21.4194 7.09185 21.4194C7.31482 21.4194 9.09852 23.8721 10.8823 27.2166C12.666 30.3381 14.0038 33.0137 13.7809 33.2367Z" fill="#EB996E"/>
<path d="M16.6901 20.7695C19.3666 25.4807 21.3627 29.3985 21.1486 29.5202C20.9344 29.6418 18.5911 25.9213 15.9146 21.2101C13.2381 16.4989 11.2419 12.5811 11.4561 12.4594C11.6702 12.3377 14.0136 16.0583 16.6901 20.7695Z" fill="#EB996E"/>
<g opacity="0.78">
<path opacity="0.78" d="M23.874 16.2454C26.5507 20.9565 28.547 24.8742 28.3328 24.9958C28.1187 25.1175 25.7752 21.397 23.0985 16.6859C20.4218 11.9748 18.4255 8.05714 18.6397 7.93548C18.8538 7.81382 21.1973 11.5343 23.874 16.2454Z" fill="#EB996E"/>
</g>
<path d="M35.4089 42.3785L37.1927 31.0072C38.0845 25.8789 36.7467 20.7507 33.8481 16.7372L31.6185 13.6157L7.76097 27.4397C7.76097 27.4397 14.45 35.0206 20.2471 29.8923L16.4567 39.9258L35.4089 42.3785Z" fill="#FFBE9D"/>
<path d="M18.9096 40.5943C19.1325 40.5943 18.6866 39.2565 18.9096 37.0269C19.1325 34.7972 20.0244 31.4527 22.923 29L24.9297 27.2163L22.4771 28.1082C20.4704 28.7771 18.4636 29.6689 16.2339 30.5608H16.4569C13.7813 31.0067 10.4368 30.5608 8.65308 27.8852C8.43011 27.6622 8.43015 27.4393 8.20718 27.2163L7.9842 27.8852C14.8962 24.0948 21.1392 20.7503 25.3756 18.0747C27.6053 16.7369 29.1661 15.622 30.5039 14.7302C31.6187 13.8383 32.2876 13.3924 32.2876 13.3924C32.2876 13.1694 29.612 14.9531 25.1526 17.4058C20.6933 19.8584 14.4502 23.2029 7.53824 26.9934L7.09235 27.2163L7.31526 27.6623C7.53823 27.8852 7.53826 28.1082 7.76122 28.3311C8.87606 29.8919 10.2138 30.7838 11.9976 31.2297C13.5584 31.6756 15.1191 31.6757 16.6799 31.4527C18.9096 30.5608 20.9163 29.669 22.923 28.7771L22.4771 27.8852C19.5785 30.7838 18.6866 34.3513 18.6866 36.5809C18.6866 37.6958 18.9096 38.5876 18.9096 39.2565C18.6866 40.3714 18.6866 40.8173 18.9096 40.5943Z" fill="#EB996E"/>
<path d="M11.7748 31.0072C11.5519 31.0072 12.2208 32.345 11.5519 34.1288C11.329 35.0206 10.437 35.9125 9.54517 35.6895C8.43033 35.6895 7.31551 34.7977 6.42364 33.6828C4.63991 31.2302 2.85617 29.0005 1.9643 27.4398C0.849466 25.879 0.403559 24.7642 0.180592 24.7642C-0.0423746 24.7642 0.403559 26.1019 1.29543 27.8857C2.1873 29.6694 3.74805 31.8991 5.53179 34.3518C6.42366 35.6896 7.76143 36.8044 9.54517 36.8044C10.437 36.8044 11.106 36.3584 11.5519 35.9125C11.9979 35.4666 12.2208 34.7977 12.4438 34.3518C12.6667 33.2369 12.4438 32.345 12.2208 31.8991C12.2208 31.2302 11.9978 31.0072 11.7748 31.0072Z" fill="#EB996E"/>
<path d="M235.411 79.6137C235.188 81.1744 235.857 82.7352 237.195 83.6271C238.533 84.5189 240.317 84.5189 241.654 83.6271C244.107 82.0663 244.107 78.2759 243.215 75.6003C242.323 72.7017 245.308 63.8356 246.114 61.5534C246.92 59.2712 246.92 46.8524 244.107 40.8174C241.294 34.7824 236.359 31.449 234.501 30.4821C232.642 29.5153 227.727 26.5307 222.925 25.2092C215.44 23.1492 198.399 22.9795 198.399 22.9795C198.399 22.9795 180.135 23.104 170.974 36.8227C167.105 42.6158 165.177 50.5533 165.177 54.1957C165.177 54.1957 165.64 63.615 168.316 64.2839" fill="#EC1515"/>
<path d="M242.77 156.538L199.96 159.66C198.845 154.754 196.392 135.579 196.392 135.579C196.392 135.579 178.332 135.579 175.434 117.965C172.535 100.35 169.19 59.5473 169.19 59.5473C188.143 47.7301 212.223 47.0612 231.844 57.7636L234.743 59.3244L242.77 156.538Z" fill="#FFBE9D"/>
<path d="M170.189 73.6459C170.189 73.6459 177.14 78.0148 188.288 78.0148C197.096 77.4494 225.989 71.0667 229.48 74.27C231.933 75.8308 227.385 70.9186 227.385 70.9186C227.385 70.9186 230.06 84.9649 237.195 83.85C244.33 82.7352 237.641 54.8643 237.641 54.8643L219.358 47.7294L199.737 45.7227L181.677 49.7361L167.853 54.6413L165.82 59.2912L170.189 73.6459Z" fill="#EC1515"/>
<path d="M188.321 74.4577C188.321 74.4577 174.104 66.434 163.46 72.4665C163.46 72.4665 149.761 107.407 186.295 91.1449C229.409 104.809 227.952 69.316 227.952 69.316C202.478 63.55 188.321 74.4577 188.321 74.4577Z" fill="#407BFF"/>
<path d="M178.555 88.9777C177.077 88.9777 175.879 87.7798 175.879 86.3021C175.879 84.8244 177.077 83.6265 178.555 83.6265C180.033 83.6265 181.23 84.8244 181.23 86.3021C181.23 87.7798 180.033 88.9777 178.555 88.9777Z" fill="#263238"/>
<path d="M172.981 85.8574C173.204 86.0804 174.764 84.5196 177.217 84.0737C179.67 83.6277 181.676 84.7426 181.899 84.2967C181.899 84.0737 181.676 83.6278 180.785 83.1818C179.893 82.7359 178.555 82.29 176.994 82.5129C175.433 82.7359 174.319 83.6278 173.65 84.2967C172.981 85.1885 172.758 85.8574 172.981 85.8574Z" fill="#263238"/>
<path d="M204.864 86.9723C203.387 86.9723 202.189 85.7744 202.189 84.2967C202.189 82.819 203.387 81.6211 204.864 81.6211C206.342 81.6211 207.54 82.819 207.54 84.2967C207.54 85.7744 206.342 86.9723 204.864 86.9723Z" fill="#263238"/>
<path d="M199.514 83.6274C199.737 83.8504 201.52 82.5126 203.973 82.2897C206.426 82.0667 208.209 83.1815 208.432 82.9585C208.655 82.7356 208.209 82.2896 207.54 81.6207C206.649 81.1748 205.311 80.5059 203.973 80.7289C202.412 80.7289 201.297 81.6207 200.405 82.0667C199.514 82.9585 199.291 83.4045 199.514 83.6274Z" fill="#263238"/>
<path d="M193.048 105.478C193.048 105.255 191.487 105.255 189.034 105.255C188.366 105.255 187.92 105.255 187.697 104.809C187.474 104.363 187.697 103.695 187.92 103.026C188.366 101.242 188.588 99.6811 189.034 97.8974C190.595 90.5395 191.487 84.2964 191.264 84.2964C190.818 84.2964 189.257 90.0935 187.697 97.6744C187.251 99.4581 187.028 101.242 186.582 103.026C186.359 103.695 186.136 104.809 186.582 105.701C186.805 106.147 187.474 106.593 187.92 106.593C188.366 106.593 188.811 106.593 189.034 106.593C191.487 105.924 193.048 105.701 193.048 105.478Z" fill="#263238"/>
<path d="M201.298 107.039C198.399 108.822 194.832 111.052 189.927 112.39C189.927 112.39 193.494 116.403 198.176 113.728C203.305 111.052 201.298 107.039 201.298 107.039Z" fill="white"/>
<path d="M196.17 135.355C196.17 135.355 207.318 134.463 218.021 125.322C218.021 125.322 214.453 138.923 196.839 140.038L196.17 135.355Z" fill="#EB996E"/>
<path d="M235.411 78.0529C235.634 77.8299 247.006 72.7017 248.344 84.7419C249.904 96.7821 237.418 95.8903 237.418 95.4443C237.195 94.9984 235.411 78.0529 235.411 78.0529Z" fill="#FFBE9D"/>
<path d="M240.54 90.3159C240.54 90.3159 240.763 90.5389 241.209 90.5389C241.655 90.7619 242.1 90.7618 242.769 90.3159C243.884 89.647 244.776 87.6403 244.553 85.4106C244.553 84.2958 244.107 83.181 243.661 82.5121C243.215 81.6202 242.546 81.1743 241.878 81.1743C241.209 81.1743 240.763 81.6202 240.763 81.8432C240.54 82.2891 240.763 82.5121 240.763 82.5121C240.763 82.5121 240.54 82.2891 240.54 81.8432C240.54 81.6202 240.763 81.3972 240.986 80.9513C241.209 80.7283 241.655 80.5054 242.101 80.5054C242.992 80.5054 243.884 81.1743 244.553 82.0661C245.222 82.958 245.668 84.0728 245.668 85.4106C245.891 87.8633 244.999 90.3159 243.215 90.9848C242.323 91.2078 241.655 91.2078 241.209 90.9848C240.54 90.7618 240.317 90.5389 240.54 90.3159Z" fill="#EB996E"/>
<path d="M184.129 80.2834C183.906 80.9523 181.453 80.7293 178.778 81.1752C175.879 81.3982 173.65 82.2901 173.204 81.6212C172.758 80.9523 174.987 78.9455 178.332 78.4996C181.899 77.8307 184.352 79.6145 184.129 80.2834Z" fill="#263238"/>
<path d="M210.885 73.817C210.662 74.4859 208.209 74.263 205.534 74.7089C202.635 74.9319 200.406 75.8237 199.96 75.1548C199.514 74.4859 201.743 72.4792 205.088 72.0333C208.432 71.3644 211.108 73.1481 210.885 73.817Z" fill="#263238"/>
<path d="M289.138 336.415L347.266 299.18C370.339 337.307 355.696 374.097 355.474 420.92L355.918 453.027L511.665 469.526L509.89 513.228L323.304 510.552C302.449 509.438 286.254 492.269 286.475 471.31C286.697 418.244 282.805 341.677 281.917 345.468" fill="#407BFF"/>
<path d="M240.093 133.348C240.093 133.348 255.478 122.199 275.322 134.685C295.166 147.172 347.787 243.939 347.787 243.939L388.144 278.053L283.795 351.632C292.251 349.747 211.123 246.204 194.608 232.568L189.034 158.32L240.093 133.348Z" fill="#407BFF"/>
<path d="M190.595 158.544L112.556 111.498L39.869 36.1353L13.113 50.1822L88.9218 160.105L196.169 232.792L190.595 158.544Z" fill="#407BFF"/>
<path d="M394.164 277.385C394.164 277.385 356.482 290.095 342.658 311.722C338.199 318.857 337.307 327.776 339.983 335.803L349.793 359.66C349.793 359.66 306.881 330.345 282.355 347.514L272.321 330.791L376.549 262.893C376.549 263.116 389.035 268.69 394.164 277.385Z" fill="#305CBF"/>
<path d="M393.049 274.709L487.587 449.069L610.665 541.824L590.597 579.505L474.432 513.507C453.696 504.142 433.183 488.98 420.474 470.028L392.826 428.779L343.327 347.173C331.287 328.444 337.084 310.607 355.59 297.898L393.049 274.709Z" fill="#407BFF"/>
<path d="M67.5168 64.675L59.713 102.802L42.3216 92.5459L13.1129 50.1822L39.8689 36.1353L67.5168 64.675Z" fill="#305CBF"/>
<path d="M205.756 217.631L257.262 240.373L250.35 187.976L205.756 217.631Z" fill="#EC1515"/>
<path d="M370.306 266.684L370.975 260.218C370.752 259.995 370.752 259.772 370.752 259.772H370.975L372.982 188.199L302.747 177.051L252.579 128.89C252.579 128.89 275.099 120.417 289.146 122.424C338.199 129.336 407.764 150.518 410.663 157.876C414.676 168.578 407.096 231.678 405.535 251.299C404.866 260.441 407.096 267.13 406.204 271.589C407.764 270.474 414.23 265.569 417.798 263.562C421.811 261.556 414.676 274.265 412.67 277.163C412.001 278.278 408.433 278.724 404.42 278.947C404.197 279.616 404.42 278.947 404.42 278.947H401.967C396.17 278.947 390.15 278.278 388.366 278.055C387.028 277.832 383.461 274.265 379.894 270.251L370.306 266.684Z" fill="#407BFF"/>
<path d="M371.198 247.285L405.312 251.521L406.203 270.696L405.981 271.588C407.541 270.473 414.007 265.568 417.575 263.561C421.588 261.555 414.453 274.264 412.447 277.162C411.778 278.277 408.21 278.723 404.197 278.946C403.974 279.615 404.197 278.946 404.197 278.946H401.744C395.947 278.946 389.927 278.277 388.143 278.054C386.805 277.831 383.238 274.264 379.67 270.25L370.083 266.46L371.198 247.285Z" fill="#FFBE9D"/>
<path d="M405.312 251.522L371.198 247.285L372.536 206.482L389.704 183.071L409.103 213.171L405.312 251.522Z" fill="#305CBF"/>
<path d="M373.651 396.896C373.874 396.896 372.09 394.22 369.637 390.207C366.739 385.747 363.171 380.396 359.381 374.153C355.367 367.91 351.577 362.336 348.901 358.322C346.226 354.309 344.442 351.856 344.219 351.856C343.996 351.856 345.557 354.532 348.232 358.768C350.685 363.005 354.252 368.579 358.489 374.822C362.502 381.065 366.293 386.639 369.191 390.653C370.529 392.659 371.867 394.22 372.536 395.335C373.205 396.45 373.651 396.896 373.651 396.896Z" fill="#263238"/>
<path d="M184.397 196.955C184.397 196.955 184.442 197.399 184.532 198.286C184.623 199.173 184.758 200.504 185.161 202.255C185.966 205.757 187.352 210.543 189.962 216.324C192.572 222.104 196.363 228.435 201.31 235.095C206.258 241.754 212.118 248.543 218.69 255.707C231.79 269.591 243.842 282.014 252.619 290.967C256.897 295.455 260.394 298.903 262.912 301.556C264.159 302.771 265.139 303.566 265.674 304.408C266.409 305.004 266.677 305.424 266.677 305.424C266.677 305.424 266.409 305.004 265.897 304.385C265.139 303.566 264.359 302.527 263.112 301.311C260.594 298.658 257.297 294.965 253.019 290.478C244.22 281.303 232.39 268.857 219.313 255.194C212.763 248.252 206.68 241.486 201.955 234.804C197.008 228.144 193.217 221.814 190.407 216.278C187.819 210.719 186.211 205.955 185.183 202.476C184.78 200.725 184.423 199.418 184.333 198.531C184.442 197.399 184.397 196.955 184.397 196.955Z" fill="#263238"/>
<path d="M277.774 125.769C277.774 125.769 277.551 125.769 277.106 125.992C276.66 126.214 275.991 126.66 275.322 127.329C273.984 128.667 272.646 131.12 272.423 134.464C271.977 140.93 273.538 150.072 278.889 158.545C284.24 167.017 292.044 172.369 297.841 174.821C300.74 176.159 303.416 176.828 305.199 177.274C306.983 177.72 307.875 177.72 307.875 177.72C307.875 177.497 303.862 176.828 298.064 174.152C292.267 171.477 284.909 166.349 279.781 157.876C274.653 149.626 272.869 140.707 273.092 134.464C273.315 131.343 274.43 128.89 275.545 127.552C276.883 126.214 277.774 125.769 277.774 125.769Z" fill="#263238"/>
<path d="M273.45 332.485C271.563 329.659 270.675 328.327 269.499 325.147L363.171 257.095L379.894 270.473L273.45 332.485Z" fill="#305CBF"/>
<g opacity="0.4">
<path opacity="0.4" d="M356.172 220.278C354.267 219.412 352.845 218.437 352.998 218.101C353.151 217.765 354.82 218.194 356.726 219.06C358.632 219.927 360.053 220.902 359.9 221.238C359.747 221.574 358.078 221.145 356.172 220.278Z" fill="white"/>
</g>
</svg>
