<svg width="18" height="18" viewBox="0 0 18 18" fill="none" xmlns="http://www.w3.org/2000/svg">
<path d="M17.4697 1.59081C17.7626 1.29795 17.7626 0.82313 17.4697 0.53027C17.1769 0.23741 16.7021 0.23741 16.4092 0.53027L9 7.93946L1.59081 0.53027C1.29795 0.23741 0.82313 0.23741 0.53027 0.53027C0.23741 0.82313 0.23741 1.29795 0.53027 1.59081L7.93946 9L0.53027 16.4092C0.23741 16.7021 0.23741 17.1769 0.53027 17.4697C0.82313 17.7626 1.29795 17.7626 1.59081 17.4697L9 10.0605L16.4092 17.4697C16.7021 17.7626 17.1769 17.7626 17.4697 17.4697C17.7626 17.1769 17.7626 16.7021 17.4697 16.4092L10.0605 9L17.4697 1.59081Z" fill="#CCCCCC"/>
</svg>
