<svg width="173" height="63" viewBox="0 0 173 63" fill="none" xmlns="http://www.w3.org/2000/svg">
<path d="M0 62.9278C0.493292 53.5055 4.58498 44.6318 11.4312 38.1368C18.2774 31.6418 27.356 28.0208 36.7945 28.0206C37.9144 28.0206 39.0201 28.079 40.1145 28.1768C44.4187 20.7746 50.5903 14.6309 58.013 10.3591C65.4357 6.08734 73.8497 3.83706 82.4146 3.83301C90.9795 3.82897 99.3956 6.07129 106.822 10.336C114.249 14.6008 120.426 20.7387 124.738 28.1368C125.661 28.0675 126.59 28.0206 127.531 28.0206C136.97 28.0208 146.049 31.6418 152.895 38.1368C159.741 44.6319 163.833 53.5056 164.326 62.9278" fill="white"/>
<path d="M7.67407 60.0947C8.16737 50.6725 12.2591 41.7988 19.1053 35.3038C25.9515 28.8088 35.03 25.1878 44.4686 25.1876C45.5884 25.1876 46.6942 25.246 47.7885 25.3438C52.0927 17.9416 58.2644 11.7979 65.6871 7.52611C73.1097 3.25434 81.5237 1.00405 90.0886 1.00001C98.6536 0.995957 107.07 3.23828 114.496 7.50304C121.923 11.7678 128.101 17.9057 132.412 25.3038C133.335 25.2345 134.264 25.1876 135.205 25.1876C144.644 25.1878 153.723 28.8088 160.569 35.3038C167.415 41.7989 171.507 50.6725 172 60.0948" stroke="#263238" stroke-width="0.996185" stroke-miterlimit="10"/>
</svg>
