<svg width="100" height="73" viewBox="0 0 100 73" fill="none" xmlns="http://www.w3.org/2000/svg">
<rect width="99.0391" height="72.0284" rx="8.78396" fill="#A293D7"/>
<path d="M23.2837 56.4369H20.7856L24.8648 47.6143L17.7182 32.9732H20.3429L26.0981 45.1161L31.5687 32.9732H34.0353L23.2837 56.4369ZM36.8413 35.4081V33.1313H50.5021V35.4081H36.8413ZM36.8413 42.0488V39.8036H50.5021V42.0488H36.8413ZM65.7494 48.6895L60.8796 42.3018L56.0098 48.6895H53.3219L59.5515 40.689L53.5749 32.9732H56.2627L60.9112 39.0763L65.5597 32.9732H68.216L62.271 40.6574L68.4689 48.6895H65.7494Z" fill="white"/>
<path d="M81.1283 31.5408H70.7562V31.0559C70.7562 28.9337 71.9438 27.1347 74.319 25.659L76.6379 24.2255C77.0315 24.0006 77.3898 23.7617 77.7131 23.5087C77.8958 23.3682 78.1699 23.1152 78.5353 22.7498C79.0693 22.1455 79.3364 21.4217 79.3364 20.5784C79.3364 19.7773 79.0131 19.0605 78.3666 18.4281C77.7201 17.8097 76.919 17.5005 75.9633 17.5005C75.1903 17.5005 74.5298 17.6902 73.9817 18.0697C73.4617 18.4492 73.0681 18.913 72.8011 19.4611C72.6324 19.9108 72.527 20.4168 72.4849 20.9789L70.8827 20.747C70.8827 20.0724 71.0443 19.4119 71.3676 18.7654C71.7049 18.1048 72.1757 17.5356 72.78 17.0578C73.6373 16.3551 74.7125 16.0037 76.0055 16.0037C77.4109 16.0037 78.6055 16.4605 79.5893 17.374C80.531 18.2875 81.0018 19.3416 81.0018 20.5362C81.0018 21.5481 80.7348 22.4195 80.2007 23.1503C79.6526 23.8952 78.8445 24.5979 77.7763 25.2585L75.352 26.7764C73.6514 27.8304 72.773 28.9267 72.7168 30.0651H81.1283V31.5408Z" fill="white"/>
</svg>
