<svg width="96" height="96" viewBox="0 0 96 96" fill="none" xmlns="http://www.w3.org/2000/svg">
<circle cx="48" cy="48" r="48" fill="#407BFF" fill-opacity="0.1"/>
<g clip-path="url(#clip0)">
<path d="M58.3762 48.0723H51.639C51.2956 46.7526 50.2626 45.7196 48.9429 45.3762V35.809C48.9429 35.2874 48.5203 34.8657 47.9996 34.8657C47.4789 34.8657 47.0563 35.2874 47.0563 35.809V45.3762C45.4338 45.7979 44.2263 47.2619 44.2263 49.0156C44.2263 51.0966 45.9186 52.7889 47.9996 52.7889C49.7523 52.7889 51.2173 51.5814 51.639 49.9589H58.3762C58.8969 49.9589 59.3195 49.5372 59.3195 49.0156C59.3195 48.4939 58.8978 48.0723 58.3762 48.0723ZM47.9996 50.9022C46.9591 50.9022 46.113 50.0561 46.113 49.0156C46.113 47.9751 46.9591 47.1289 47.9996 47.1289C49.0401 47.1289 49.8863 47.9751 49.8863 49.0156C49.8863 50.0561 49.0401 50.9022 47.9996 50.9022Z" fill="#407BFF"/>
<path d="M67.9151 29.7819L71.7789 33.6458C71.9563 33.8231 72.1959 33.9222 72.4459 33.9222C72.6958 33.9222 72.9364 33.8231 73.1128 33.6458C76.1003 30.6592 76.1003 25.7983 73.1128 22.8117C70.1253 19.8251 65.2653 19.8251 62.2787 22.8117C62.1014 22.989 62.0023 23.2277 62.0023 23.4786C62.0023 23.7296 62.1014 23.9692 62.2787 24.1456L66.5812 28.4481L64.9785 30.0508C60.4694 26.0096 54.518 23.5456 48.0005 23.5456C41.4831 23.5456 35.5317 26.0096 31.0226 30.0508L29.4189 28.4481L33.7214 24.1456C33.8988 23.9682 33.9978 23.7296 33.9978 23.4786C33.9978 23.2277 33.8988 22.9881 33.7214 22.8117C30.7349 19.8251 25.8749 19.8251 22.8874 22.8117C19.8999 25.7983 19.8999 30.6592 22.8874 33.6458C23.0647 33.8231 23.3043 33.9222 23.5543 33.9222C23.8043 33.9222 24.0448 33.8231 24.2212 33.6458L28.0851 29.7819L29.6661 31.3629C25.2523 35.9447 22.5298 42.1668 22.5298 49.0154C22.5298 58.3524 27.5832 66.5272 35.0959 70.9618L32.2395 73.8182C31.8706 74.187 31.8706 74.7832 32.2395 75.1521C32.4234 75.336 32.6649 75.4284 32.9064 75.4284C33.1479 75.4284 33.3894 75.336 33.5733 75.1521L36.8278 71.8976C40.203 73.5522 43.9942 74.4851 47.9996 74.4851C52.005 74.4851 55.7962 73.5522 59.1714 71.8976L62.4259 75.1521C62.6098 75.336 62.8513 75.4284 63.0928 75.4284C63.3343 75.4284 63.5758 75.336 63.7597 75.1521C64.1286 74.7832 64.1286 74.187 63.7597 73.8182L60.9033 70.9618C68.416 66.5272 73.4694 58.3524 73.4694 49.0154C73.4694 42.1668 70.7469 35.9447 66.3331 31.3629L67.9151 29.7819ZM71.778 24.1456C73.8023 26.1699 74.0061 29.3357 72.3902 31.5912L64.3333 23.5333C66.5878 21.9174 69.7527 22.1202 71.778 24.1456ZM23.609 31.5903C21.9931 29.3357 22.1968 26.1699 24.2212 24.1456C26.2456 22.1212 29.4114 21.9184 31.6659 23.5333L23.609 31.5903ZM47.9996 72.5985C34.9959 72.5985 24.4165 62.0191 24.4165 49.0154C24.4165 36.0116 34.9959 25.4323 47.9996 25.4323C61.0033 25.4323 71.5827 36.0116 71.5827 49.0154C71.5827 62.0191 61.0043 72.5985 47.9996 72.5985Z" fill="#407BFF"/>
<path d="M47.9995 30.0346C48.5202 30.0346 48.9428 29.6129 48.9428 29.0912V28.1479C48.9428 27.6263 48.5202 27.2046 47.9995 27.2046C47.4788 27.2046 47.0562 27.6263 47.0562 28.1479V29.0912C47.0562 29.612 47.4788 30.0346 47.9995 30.0346Z" fill="#407BFF"/>
<path d="M47.9995 67.7676C47.4788 67.7676 47.0562 68.1892 47.0562 68.7109V69.6542C47.0562 70.1759 47.4788 70.5975 47.9995 70.5975C48.5202 70.5975 48.9428 70.1759 48.9428 69.6542V68.7109C48.9428 68.1892 48.5211 67.7676 47.9995 67.7676Z" fill="#407BFF"/>
<path d="M67.8093 49.8447H68.7526C69.2733 49.8447 69.6959 49.423 69.6959 48.9013C69.6959 48.3797 69.2733 47.958 68.7526 47.958H67.8093C67.2886 47.958 66.866 48.3797 66.866 48.9013C66.866 49.423 67.2886 49.8447 67.8093 49.8447Z" fill="#407BFF"/>
<path d="M28.1899 47.958H27.2465C26.7258 47.958 26.3032 48.3797 26.3032 48.9013C26.3032 49.423 26.7258 49.8447 27.2465 49.8447H28.1899C28.7106 49.8447 29.1332 49.423 29.1332 48.9013C29.1332 48.3797 28.7115 47.958 28.1899 47.958Z" fill="#407BFF"/>
<path d="M62.008 33.5589L61.3411 34.2258C60.9722 34.5946 60.9722 35.1908 61.3411 35.5597C61.525 35.7436 61.7665 35.836 62.008 35.836C62.2495 35.836 62.491 35.7436 62.6749 35.5597L63.3419 34.8927C63.7107 34.5239 63.7107 33.9277 63.3419 33.5589C62.973 33.19 62.3759 33.19 62.008 33.5589Z" fill="#407BFF"/>
<path d="M33.3252 62.2416L32.6582 62.9085C32.2894 63.2774 32.2894 63.8736 32.6582 64.2424C32.8422 64.4264 33.0837 64.5188 33.3252 64.5188C33.5666 64.5188 33.8081 64.4264 33.9921 64.2424L34.659 63.5755C35.0279 63.2066 35.0279 62.6105 34.659 62.2416C34.2902 61.8728 33.694 61.8737 33.3252 62.2416Z" fill="#407BFF"/>
<path d="M62.6749 62.242C62.3061 61.8731 61.7099 61.8731 61.3411 62.242C60.9722 62.6108 60.9722 63.207 61.3411 63.5758L62.008 64.2428C62.192 64.4267 62.4334 64.5192 62.6749 64.5192C62.9164 64.5192 63.1579 64.4267 63.3419 64.2428C63.7107 63.8739 63.7107 63.2777 63.3419 62.9089L62.6749 62.242Z" fill="#407BFF"/>
<path d="M33.9921 33.5589C33.6232 33.19 33.0271 33.19 32.6582 33.5589C32.2894 33.9277 32.2894 34.5239 32.6582 34.8927L33.3252 35.5597C33.5091 35.7436 33.7506 35.836 33.9921 35.836C34.2336 35.836 34.4751 35.7436 34.659 35.5597C35.0279 35.1908 35.0279 34.5946 34.659 34.2258L33.9921 33.5589Z" fill="#407BFF"/>
</g>
<defs>
<clipPath id="clip0">
<rect x="20.5715" y="20.5713" width="54.8571" height="54.8571" fill="white"/>
</clipPath>
</defs>
</svg>
