<svg width="96" height="96" viewBox="0 0 96 96" fill="none" xmlns="http://www.w3.org/2000/svg">
<circle cx="48" cy="48" r="48" fill="#407BFF" fill-opacity="0.1"/>
<g clip-path="url(#clip0)">
<path d="M75.1686 42.2543C74.4832 40.5286 72.5285 39.6852 70.8027 40.3707C70.7139 40.4059 70.6266 40.4449 70.5412 40.4876L68.048 41.7361L62.9579 34.9505C62.895 34.8666 62.8184 34.794 62.7312 34.7358L57.1784 31.0339C57.0669 30.9595 56.9405 30.9103 56.8082 30.8896L44.7771 29.0386C44.4862 28.9938 44.1915 29.0901 43.983 29.2977L37.0836 36.1712C35.9249 37.3256 35.9214 39.2007 37.0758 40.3594C37.0784 40.3621 37.081 40.3648 37.0836 40.3673C38.1888 41.465 39.9539 41.5232 41.1289 40.5006L46.7196 35.6085L51.6802 37.0263L47.5285 46.1487L41.1594 55.247L33.5891 62.0594C32.2103 63.2437 32.0527 65.3214 33.2369 66.7002C34.4212 68.0789 36.499 68.2366 37.8777 67.0523L46.218 60.2223L51.2035 55.2368L57.5263 59.9799L56.1196 69.7973C55.9879 70.7153 56.2615 71.6454 56.8693 72.346C57.4936 73.0601 58.4001 73.4639 59.3486 73.4501C60.9199 73.4523 62.2704 72.3358 62.5637 70.7921L64.9829 57.8874C65.043 57.5659 64.929 57.2367 64.683 57.0211L57.7512 50.9612L60.7016 42.8485L66.149 49.0741C66.4155 49.3784 66.8487 49.4744 67.2188 49.311L73.4676 46.5476C75.1104 45.8198 75.8672 43.9099 75.1686 42.2543ZM72.7189 44.8531L67.0929 47.3407L61.0626 40.4487C60.7258 40.0642 60.1411 40.0256 59.7566 40.3623C59.6393 40.465 59.55 40.5957 59.4967 40.7421L55.7948 50.9223C55.6643 51.2811 55.7676 51.6833 56.0548 51.9348L63.0616 58.066L60.7368 70.4516C60.5981 71.1366 59.9852 71.6216 59.2866 71.5991C58.5414 71.5989 57.9374 70.9947 57.9376 70.2495C57.9376 70.1858 57.9421 70.1222 57.9511 70.0592L59.4319 59.6994C59.4799 59.3648 59.3415 59.0304 59.071 58.8277L51.6672 53.2748C51.2987 52.9986 50.7833 53.0352 50.4576 53.3609L44.9733 58.8517L36.7014 65.6197C36.0898 66.1265 35.1832 66.0415 34.6764 65.4298C34.1821 64.8333 34.2492 63.9522 34.8283 63.4374L42.4764 56.5538C42.5286 56.5069 42.5751 56.4542 42.6152 56.3964L49.0935 47.1417C49.1262 47.0955 49.1543 47.0462 49.1777 46.9946L53.805 36.8144C54.0165 36.349 53.8107 35.8004 53.3453 35.589C53.3039 35.5701 53.2611 35.5544 53.2174 35.5419L46.7391 33.691C46.4368 33.6034 46.1108 33.6763 45.8747 33.8844L39.9054 39.1077C39.4567 39.5271 38.7528 39.5033 38.3335 39.0545C37.9141 38.6058 37.938 37.902 38.3867 37.4826L44.9575 30.9386L56.3232 32.6877L61.5697 36.1879L67.03 43.4648C67.2982 43.8228 67.7839 43.9376 68.1841 43.7379L71.3686 42.1414C71.7432 41.9529 72.1798 41.9304 72.5717 42.0794C72.9912 42.2432 73.3189 42.5808 73.4703 43.0049C73.7584 43.7228 73.4262 44.5399 72.7189 44.8531Z" fill="#407BFF"/>
<path d="M33.5282 42.9097H26.1244C25.6133 42.9097 25.199 43.324 25.199 43.8351C25.199 44.3463 25.6133 44.7606 26.1244 44.7606H33.5282C34.0393 44.7606 34.4537 44.3463 34.4537 43.8351C34.4537 43.324 34.0393 42.9097 33.5282 42.9097Z" fill="#407BFF"/>
<path d="M37.2299 50.3135H23.3478C22.8367 50.3135 22.4224 50.7278 22.4224 51.2389C22.4224 51.7501 22.8367 52.1644 23.3478 52.1644H37.2299C37.741 52.1644 38.1554 51.7501 38.1554 51.2389C38.1554 50.7278 37.741 50.3135 37.2299 50.3135Z" fill="#407BFF"/>
<path d="M30.7517 57.7173H25.1989C24.6878 57.7173 24.2734 58.1316 24.2734 58.6428C24.2734 59.1539 24.6878 59.5682 25.1989 59.5682H30.7517C31.2629 59.5682 31.6772 59.1539 31.6772 58.6428C31.6772 58.1316 31.2629 57.7173 30.7517 57.7173Z" fill="#407BFF"/>
<path d="M27.9752 65.1211H23.3478C22.8367 65.1211 22.4224 65.5354 22.4224 66.0466C22.4224 66.5577 22.8367 66.972 23.3478 66.972H27.9752C28.4863 66.972 28.9007 66.5577 28.9007 66.0466C28.9007 65.5354 28.4863 65.1211 27.9752 65.1211Z" fill="#407BFF"/>
<path d="M66.845 22.5493H62.6804C59.8692 22.5493 57.5903 24.8282 57.5903 27.6394C57.5903 30.4506 59.8692 32.7295 62.6804 32.7295C65.4916 32.7295 67.7705 30.4506 67.7705 27.6394V23.4748C67.7705 22.9637 67.3561 22.5493 66.845 22.5493ZM65.9196 27.6394C65.9265 29.4212 64.4879 30.8713 62.7061 30.8782C61.7069 30.8821 60.7624 30.4229 60.1483 29.6347C61.6889 28.1119 63.7538 27.2362 65.9196 27.1878V27.6394ZM65.9196 25.3368C63.5491 25.38 61.2658 26.2386 59.4542 27.768C59.4542 27.7245 59.4413 27.6838 59.4413 27.6394C59.4413 25.8505 60.8915 24.4003 62.6804 24.4003H65.9196V25.3368Z" fill="#407BFF"/>
</g>
<defs>
<clipPath id="clip0">
<rect x="20.5715" y="20.5713" width="54.8571" height="54.8571" fill="white"/>
</clipPath>
</defs>
</svg>
