<svg width="100" height="73" viewBox="0 0 100 73" fill="none" xmlns="http://www.w3.org/2000/svg">
<rect width="99.0391" height="72.0284" rx="8.78396" fill="#F23E5E"/>
<path d="M17.6017 34.6458V33.8869C17.6017 30.8511 18.3395 28.0895 19.8153 25.6019C21.2699 23.0932 23.3253 21.0799 25.9816 19.562L26.9303 21.0483C22.2712 24.0418 19.9417 28.3319 19.9417 33.9185V34.6142C19.9417 40.1586 22.2712 44.4382 26.9303 47.4528L25.9816 49.0023C23.3253 47.4634 21.2699 45.4395 19.8153 42.9308C18.3395 40.4432 17.6017 37.6816 17.6017 34.6458ZM44.8638 45.176H29.3056V44.4487C29.3056 41.2654 31.087 38.567 34.6498 36.3534L38.1282 34.2031C38.7185 33.8658 39.2561 33.5074 39.741 33.128C40.015 32.9171 40.4261 32.5377 40.9742 31.9896C41.7753 31.083 42.1759 29.9973 42.1759 28.7325C42.1759 27.5308 41.691 26.4557 40.7213 25.507C39.7515 24.5794 38.5499 24.1156 37.1163 24.1156C35.9568 24.1156 34.966 24.4002 34.1438 24.9694C33.3638 25.5386 32.7735 26.2343 32.373 27.0565C32.12 27.7311 31.9619 28.49 31.8987 29.3333L29.4954 28.9854C29.4954 27.9735 29.7378 26.9827 30.2227 26.0129C30.7286 25.0221 31.4349 24.1683 32.3414 23.4515C33.6273 22.3975 35.2401 21.8704 37.1796 21.8704C39.2877 21.8704 41.0796 22.5556 42.5553 23.9259C43.9678 25.2962 44.674 26.8773 44.674 28.6692C44.674 30.1871 44.2735 31.4941 43.4724 32.5904C42.6502 33.7077 41.438 34.7618 39.8358 35.7526L36.1993 38.0294C33.6484 39.6105 32.3308 41.2549 32.2465 42.9625H44.8638V45.176ZM48.8704 49.4767V48.275C49.5029 48.1485 50.051 47.7901 50.5148 47.1998C50.9786 46.5885 51.221 45.9244 51.2421 45.2076C51.0313 45.3341 50.7783 45.3974 50.4831 45.3974C49.935 45.3974 49.4818 45.2182 49.1234 44.8598C48.7861 44.4803 48.6174 44.006 48.6174 43.4368C48.6174 42.9098 48.8177 42.4565 49.2183 42.077C49.6399 41.6976 50.1248 41.5078 50.6729 41.5078C51.3896 41.5078 51.9378 41.7819 52.3172 42.33C52.7178 42.8149 52.9181 43.4473 52.9181 44.2274C52.9181 45.5766 52.5597 46.7361 51.8429 47.7058C51.1683 48.6966 50.1775 49.2869 48.8704 49.4767ZM64.4792 45.3974C62.1602 45.3974 60.2734 44.7017 58.8188 43.3103C57.4064 41.9611 56.6053 40.4221 56.4155 38.6935L58.7556 38.2508C58.8821 39.5578 59.4618 40.7067 60.4948 41.6976C61.5489 42.6884 62.877 43.1838 64.4792 43.1838C65.0484 43.1838 65.6281 43.089 66.2184 42.8992C66.8298 42.7095 67.4201 42.4354 67.9893 42.077C68.5795 41.7187 69.0539 41.2022 69.4123 40.5276C69.7917 39.8529 69.9815 39.0835 69.9815 38.2191C69.9815 36.891 69.4755 35.8158 68.4636 34.9937C67.4728 34.1926 66.1552 33.792 64.5108 33.792C63.7097 33.792 62.993 33.908 62.3605 34.1399L61.2221 32.2109L68.7798 24.337H56.9531V22.1234H71.8788V24.2421L64.7322 31.5785C66.6295 31.5152 68.2844 31.9896 69.6969 33.0015C71.5099 34.2453 72.4164 35.9529 72.4164 38.1243C72.4164 39.5789 72.058 40.8543 71.3412 41.9506C70.6455 43.0468 69.6863 43.9006 68.4636 44.512C67.283 45.1022 65.9549 45.3974 64.4792 45.3974ZM84.2888 33.8869V34.6458C84.2888 37.7026 83.5615 40.4749 82.1069 42.9625C80.6312 45.4501 78.5652 47.4634 75.9089 49.0023L74.9602 47.4528C79.6192 44.4382 81.9488 40.1586 81.9488 34.6142V33.9185C81.9488 28.3319 79.6192 24.0418 74.9602 21.0483L75.9089 19.562C78.5652 21.0588 80.6312 23.0615 82.1069 25.5702C83.5615 28.0789 84.2888 30.8511 84.2888 33.8869Z" fill="white"/>
</svg>
