<svg width="96" height="96" viewBox="0 0 96 96" fill="none" xmlns="http://www.w3.org/2000/svg">
<circle cx="48" cy="48" r="48" fill="#FFD322" fill-opacity="0.1"/>
<path d="M57.1428 32.8211C57.2413 32.8211 57.3389 32.8018 57.4299 32.7641C57.5209 32.7264 57.6036 32.6712 57.6733 32.6015C57.7429 32.5319 57.7982 32.4492 57.8358 32.3582C57.8735 32.2671 57.8929 32.1696 57.8928 32.0711V27.6782C57.8928 27.4793 57.8138 27.2885 57.6732 27.1479C57.5325 27.0072 57.3417 26.9282 57.1428 26.9282C56.9439 26.9282 56.7531 27.0072 56.6125 27.1479C56.4718 27.2885 56.3928 27.4793 56.3928 27.6782V32.0711C56.3928 32.1696 56.4121 32.2671 56.4498 32.3582C56.4875 32.4492 56.5427 32.5319 56.6124 32.6015C56.682 32.6712 56.7647 32.7264 56.8557 32.7641C56.9468 32.8018 57.0443 32.8211 57.1428 32.8211Z" fill="#FFD322"/>
<path d="M70.0715 38.7212H65.8115V28.2855C65.8113 28.0866 65.7323 27.8959 65.5917 27.7553C65.451 27.6147 65.2603 27.5356 65.0615 27.5355H60.4629V23.3569C60.4629 23.158 60.3839 22.9673 60.2432 22.8266C60.1026 22.686 59.9118 22.6069 59.7129 22.6069H36.2872C36.0883 22.6069 35.8975 22.686 35.7568 22.8266C35.6162 22.9673 35.5372 23.158 35.5372 23.3569V27.5355H30.9386C30.7397 27.5356 30.549 27.6147 30.4084 27.7553C30.2678 27.8959 30.1887 28.0866 30.1886 28.2855V38.7212H25.9286C25.048 38.7222 24.2038 39.0725 23.5811 39.6952C22.9585 40.3178 22.6082 41.1621 22.6072 42.0426V62.4898C22.6082 63.3704 22.9585 64.2146 23.5811 64.8373C24.2038 65.4599 25.048 65.8102 25.9286 65.8112H35.5359V72.6426C35.5359 72.8416 35.6149 73.0323 35.7556 73.173C35.8962 73.3136 36.087 73.3926 36.2859 73.3926H59.7142C59.9131 73.3926 60.1039 73.3136 60.2445 73.173C60.3852 73.0323 60.4642 72.8416 60.4642 72.6426V65.8112H70.0715C70.952 65.8102 71.7963 65.4599 72.4189 64.8373C73.0416 64.2146 73.3919 63.3704 73.3929 62.4898V42.0426C73.3919 41.1621 73.0416 40.3178 72.4189 39.6952C71.7963 39.0725 70.952 38.7222 70.0715 38.7212ZM64.3115 29.0355V38.7212H60.4629V29.0355H64.3115ZM37.0372 24.1069H58.9629V38.7212H37.0372V24.1069ZM31.6886 29.0355H35.5372V38.7212H31.6886V29.0355ZM31.6886 64.3112V56.6784H35.5359V64.3112H31.6886ZM37.0359 71.8926V56.6784H58.9642C58.9642 56.6784 58.9642 65.0569 58.9642 65.0612C58.9642 65.0655 58.9642 71.8926 58.9642 71.8926H37.0359ZM60.4642 64.3112V56.6784H64.3115V64.3112H60.4642ZM71.8929 62.4898C71.8923 62.9727 71.7002 63.4356 71.3588 63.7771C71.0173 64.1186 70.5544 64.3106 70.0715 64.3112H65.8115V55.9284C65.8113 55.7295 65.7323 55.5388 65.5917 55.3982C65.451 55.2575 65.2603 55.1785 65.0615 55.1784H30.9386C30.7397 55.1785 30.549 55.2575 30.4084 55.3982C30.2678 55.5388 30.1887 55.7295 30.1886 55.9284V64.3112H25.9286C25.4457 64.3106 24.9827 64.1186 24.6413 63.7771C24.2998 63.4356 24.1077 62.9727 24.1072 62.4898V42.0426C24.1077 41.5597 24.2998 41.0968 24.6413 40.7553C24.9827 40.4139 25.4457 40.2218 25.9286 40.2212H70.0715C70.5544 40.2218 71.0173 40.4139 71.3588 40.7553C71.7002 41.0968 71.8923 41.5597 71.8929 42.0426V62.4898Z" fill="#FFD322"/>
<path d="M37.8571 43.8623H27.2144C27.0154 43.8623 26.8247 43.9413 26.684 44.082C26.5434 44.2226 26.4644 44.4134 26.4644 44.6123C26.4644 44.8112 26.5434 45.002 26.684 45.1426C26.8247 45.2833 27.0154 45.3623 27.2144 45.3623H37.8571C38.056 45.3623 38.2467 45.2833 38.3874 45.1426C38.5281 45.002 38.6071 44.8112 38.6071 44.6123C38.6071 44.4134 38.5281 44.2226 38.3874 44.082C38.2467 43.9413 38.056 43.8623 37.8571 43.8623Z" fill="#FFD322"/>
<path d="M54.4287 58.8213H41.5715C41.3726 58.8213 41.1819 58.9003 41.0412 59.041C40.9006 59.1816 40.8215 59.3724 40.8215 59.5713C40.8215 59.7702 40.9006 59.961 41.0412 60.1016C41.1819 60.2423 41.3726 60.3213 41.5715 60.3213H54.4287C54.6276 60.3213 54.8183 60.2423 54.959 60.1016C55.0997 59.961 55.1787 59.7702 55.1787 59.5713C55.1787 59.3724 55.0997 59.1816 54.959 59.041C54.8183 58.9003 54.6276 58.8213 54.4287 58.8213Z" fill="#FFD322"/>
<path d="M54.4287 62.6782H41.5715C41.3726 62.6782 41.1819 62.7572 41.0412 62.8979C40.9006 63.0385 40.8215 63.2293 40.8215 63.4282C40.8215 63.6271 40.9006 63.8179 41.0412 63.9586C41.1819 64.0992 41.3726 64.1782 41.5715 64.1782H54.4287C54.6276 64.1782 54.8183 64.0992 54.959 63.9586C55.0997 63.8179 55.1787 63.6271 55.1787 63.4282C55.1787 63.2293 55.0997 63.0385 54.959 62.8979C54.8183 62.7572 54.6276 62.6782 54.4287 62.6782Z" fill="#FFD322"/>
<path d="M54.4287 66.5356H41.5715C41.3726 66.5356 41.1819 66.6147 41.0412 66.7553C40.9006 66.896 40.8215 67.0867 40.8215 67.2856C40.8215 67.4846 40.9006 67.6753 41.0412 67.816C41.1819 67.9566 41.3726 68.0356 41.5715 68.0356H54.4287C54.6276 68.0356 54.8183 67.9566 54.959 67.816C55.0997 67.6753 55.1787 67.4846 55.1787 67.2856C55.1787 67.0867 55.0997 66.896 54.959 66.7553C54.8183 66.6147 54.6276 66.5356 54.4287 66.5356Z" fill="#FFD322"/>
<path d="M67.5001 42.5767C67.0974 42.5767 66.7039 42.6961 66.3691 42.9197C66.0343 43.1434 65.7734 43.4614 65.6193 43.8333C65.4652 44.2053 65.4249 44.6146 65.5035 45.0095C65.582 45.4044 65.7759 45.7671 66.0606 46.0518C66.3453 46.3365 66.708 46.5304 67.1029 46.609C67.4978 46.6875 67.9071 46.6472 68.2791 46.4931C68.6511 46.3391 68.969 46.0781 69.1927 45.7434C69.4164 45.4086 69.5358 45.015 69.5358 44.6124C69.5351 44.0727 69.3204 43.5553 68.9388 43.1737C68.5572 42.792 68.0398 42.5773 67.5001 42.5767ZM67.5001 45.1481C67.3941 45.1481 67.2905 45.1167 67.2024 45.0578C67.1143 44.9989 67.0457 44.9153 67.0051 44.8174C66.9646 44.7195 66.954 44.6118 66.9747 44.5079C66.9953 44.4039 67.0463 44.3085 67.1213 44.2336C67.1962 44.1586 67.2916 44.1076 67.3956 44.087C67.4995 44.0663 67.6072 44.0769 67.7051 44.1174C67.803 44.158 67.8866 44.2267 67.9455 44.3147C68.0044 44.4028 68.0358 44.5064 68.0358 44.6124C68.0357 44.7544 67.9792 44.8906 67.8788 44.9911C67.7783 45.0915 67.6421 45.148 67.5001 45.1481Z" fill="#FFD322"/>
<path d="M62.4107 42.5767C62.0081 42.5767 61.6145 42.6961 61.2797 42.9197C60.945 43.1434 60.684 43.4614 60.53 43.8333C60.3759 44.2053 60.3356 44.6146 60.4141 45.0095C60.4927 45.4044 60.6865 45.7671 60.9712 46.0518C61.256 46.3365 61.6187 46.5304 62.0136 46.609C62.4085 46.6875 62.8178 46.6472 63.1898 46.4931C63.5617 46.3391 63.8797 46.0781 64.1034 45.7434C64.327 45.4086 64.4464 45.015 64.4464 44.6124C64.4458 44.0727 64.2311 43.5553 63.8494 43.1737C63.4678 42.792 62.9504 42.5773 62.4107 42.5767ZM62.4107 45.1481C62.3048 45.1481 62.2012 45.1167 62.1131 45.0578C62.025 44.9989 61.9563 44.9153 61.9158 44.8174C61.8752 44.7195 61.8646 44.6118 61.8853 44.5079C61.906 44.4039 61.957 44.3085 62.0319 44.2336C62.1068 44.1586 62.2023 44.1076 62.3062 44.087C62.4101 44.0663 62.5178 44.0769 62.6157 44.1174C62.7136 44.158 62.7973 44.2267 62.8562 44.3147C62.915 44.4028 62.9464 44.5064 62.9464 44.6124C62.9463 44.7544 62.8898 44.8906 62.7894 44.9911C62.689 45.0915 62.5528 45.148 62.4107 45.1481Z" fill="#FFD322"/>
<path d="M57.3214 42.5767C56.9188 42.5767 56.5253 42.696 56.1906 42.9196C55.8558 43.1432 55.5949 43.4611 55.4408 43.8329C55.2866 44.2048 55.2462 44.6141 55.3246 45.0089C55.403 45.4037 55.5968 45.7665 55.8813 46.0512C56.1658 46.336 56.5284 46.53 56.9232 46.6088C57.3179 46.6875 57.7272 46.6474 58.0992 46.4936C58.4712 46.3398 58.7893 46.0792 59.0132 45.7446C59.2371 45.4101 59.3567 45.0166 59.3571 44.6141C59.3569 44.0741 59.1424 43.5563 58.7607 43.1743C58.379 42.7923 57.8614 42.5773 57.3214 42.5767ZM57.3214 45.1481C57.2153 45.1481 57.1117 45.1166 57.0236 45.0577C56.9354 44.9987 56.8668 44.915 56.8263 44.817C56.7858 44.719 56.7753 44.6112 56.7961 44.5072C56.8169 44.4033 56.8681 44.3078 56.9432 44.233C57.0183 44.1581 57.1139 44.1072 57.2179 44.0867C57.3219 44.0663 57.4297 44.0771 57.5276 44.1179C57.6254 44.1587 57.709 44.2277 57.7676 44.316C57.8263 44.4043 57.8574 44.5081 57.8571 44.6141C57.8565 44.7558 57.7998 44.8916 57.6994 44.9917C57.599 45.0917 57.4631 45.148 57.3214 45.1481Z" fill="#FFD322"/>
</svg>
