<svg width="96" height="96" viewBox="0 0 96 96" fill="none" xmlns="http://www.w3.org/2000/svg">
<circle cx="48" cy="48" r="48" fill="#2CAE63" fill-opacity="0.1"/>
<path d="M50.6447 56.6617C50.6447 50.1216 55.9665 44.802 62.5045 44.802C69.0424 44.802 74.3643 50.1216 74.3643 56.6617C74.3643 63.2018 69.0424 68.5215 62.5045 68.5215C55.9666 68.5215 50.6447 63.2018 50.6447 56.6617ZM52.7101 56.6618C52.7101 62.0619 57.1045 66.4562 62.5045 66.4562C67.9045 66.4562 72.2989 62.0619 72.2989 56.6618C72.2989 51.2618 67.9045 46.8674 62.5045 46.8674C57.1045 46.8674 52.7101 51.2618 52.7101 56.6618Z" fill="#2CAE63" stroke="white" stroke-width="0.1"/>
<path d="M54.1187 49.7376L54.1186 49.7376C53.7159 49.3349 53.7159 48.6801 54.1186 48.2773C54.5214 47.8746 55.1762 47.8746 55.5789 48.2773C55.5789 48.2773 55.5789 48.2773 55.5789 48.2773L70.8885 63.589L70.9238 63.5537L70.8885 63.589C71.2912 63.9918 71.2912 64.6465 70.8885 65.0493C70.6881 65.2497 70.4239 65.3509 70.1594 65.3509C69.895 65.3509 69.6307 65.2496 69.4281 65.0492C69.4281 65.0492 69.428 65.0492 69.428 65.0491L54.1187 49.7376Z" fill="#2CAE63" stroke="white" stroke-width="0.1"/>
<path d="M24.3776 39.0359L24.3774 39.0361C23.9957 39.4611 23.3431 39.4885 22.9193 39.106C22.496 38.7219 22.465 38.0692 22.8492 37.6458C28.8103 31.088 36.7398 27.4782 45.181 27.4782C53.6221 27.4782 61.5516 31.088 67.5127 37.648C67.8969 38.0714 67.8659 38.7239 67.4427 39.1082C67.2443 39.286 66.9964 39.3747 66.7486 39.3747C66.4677 39.3747 66.1889 39.2611 65.9844 39.0359L65.9474 39.0695L65.9844 39.0359C60.4212 32.9152 53.0326 29.5436 45.181 29.5436C37.3293 29.5436 29.9408 32.9152 24.3776 39.0359Z" fill="#2CAE63" stroke="white" stroke-width="0.1"/>
<path d="M28.4849 45.2321L28.4848 45.232C28.0615 44.8479 28.0304 44.1952 28.4146 43.7717C32.8881 38.8488 38.8406 36.1398 45.1813 36.1398C51.5221 36.1398 57.4746 38.8488 61.948 43.7717C62.3322 44.1952 62.3013 44.8477 61.8778 45.232C61.6794 45.4098 61.4315 45.4985 61.1837 45.4985C60.9028 45.4985 60.6241 45.3849 60.4195 45.1597L60.3825 45.1933L60.4195 45.1597C56.3439 40.6761 50.9302 38.2053 45.1812 38.2053C39.4322 38.2053 34.0185 40.6761 29.943 45.1619L29.943 45.1619C29.5587 45.5853 28.9062 45.6162 28.4849 45.2321Z" fill="#2CAE63" stroke="white" stroke-width="0.1"/>
<path d="M54.6672 48.1822L54.6672 48.1823C55.0928 48.5644 55.1279 49.2149 54.7456 49.6404L54.7828 49.6738L54.7456 49.6404C54.3636 50.0659 53.7088 50.0989 53.2877 49.7169L53.2875 49.7167C48.9384 45.8051 40.7606 45.5054 35.5104 51.2859L35.5104 51.2859C35.3059 51.5111 35.025 51.6247 34.7462 51.6247C34.4984 51.6247 34.2506 51.5359 34.0522 51.3562C33.6288 50.972 33.5978 50.3193 33.9821 49.8958C40.061 43.2039 49.5876 43.6095 54.6672 48.1822Z" fill="#2CAE63" stroke="white" stroke-width="0.1"/>
<path d="M39.8176 58.8271C39.8176 55.8708 42.2226 53.4636 45.1811 53.4636C48.1396 53.4636 50.5446 55.8708 50.5446 58.8271C50.5446 61.7834 48.1396 64.1906 45.1811 64.1906C42.2227 64.1906 39.8176 61.7834 39.8176 58.8271ZM41.883 58.8271C41.883 60.6455 43.3626 62.1252 45.1811 62.1252C46.9995 62.1252 48.4792 60.6455 48.4792 58.8271C48.4792 57.0086 46.9995 55.529 45.1811 55.529C43.3626 55.529 41.883 57.0086 41.883 58.8271Z" fill="#2CAE63" stroke="white" stroke-width="0.1"/>
</svg>
