<svg width="132" height="96" viewBox="0 0 132 96" fill="none" xmlns="http://www.w3.org/2000/svg">
<rect width="132" height="96" rx="10" fill="#9AE091"/>
<path d="M66 72C52.7659 72 42 61.2341 42 48C42 34.7659 52.7659 24 66 24C79.2341 24 90 34.7659 90 48C90 61.2341 79.2341 72 66 72ZM66 27C54.42 27 45 36.42 45 48C45 59.58 54.42 69 66 69C77.58 69 87 59.58 87 48C87 36.42 77.58 27 66 27Z" fill="white"/>
<path d="M63.75 55.9998C63.3658 55.9998 62.9821 55.854 62.6898 55.5599L56.1899 49.0601C55.604 48.4738 55.604 47.5238 56.1899 46.9379C56.7759 46.3519 57.7258 46.3519 58.3121 46.9379L63.7518 52.3779L75.6921 40.438C76.2781 39.8521 77.228 39.8521 77.814 40.438C78.3999 41.0239 78.3999 41.9739 77.814 42.5598L64.8138 55.5599C64.5179 55.854 64.1342 55.9998 63.75 55.9998Z" fill="white"/>
</svg>
