<svg width="132" height="96" viewBox="0 0 132 96" fill="none" xmlns="http://www.w3.org/2000/svg">
<rect width="132" height="96" rx="10" fill="#6CC4EA"/>
<path d="M79.5 37.5C80.328 37.5 81 36.828 81 36V31.5C81 30.672 80.328 30 79.5 30H52.5C51.672 30 51 30.672 51 31.5V36C51 36.828 51.672 37.5 52.5 37.5C53.328 37.5 54 36.828 54 36V33H61.5V63H57C56.172 63 55.5 63.672 55.5 64.5C55.5 65.328 56.172 66 57 66H75C75.828 66 76.5 65.328 76.5 64.5C76.5 63.672 75.828 63 75 63H70.5V33H78V36C78 36.828 78.672 37.5 79.5 37.5ZM67.5 63H64.5V33H67.5V63Z" fill="white"/>
</svg>
