<svg width="132" height="96" viewBox="0 0 132 96" fill="none" xmlns="http://www.w3.org/2000/svg">
<rect width="132" height="96" rx="10" fill="#EF7850"/>
<path d="M54.1715 60.4386L67.2699 23.497C67.2699 23.497 67.2699 23.497 67.27 23.4969C67.4293 23.0427 67.8702 22.75 68.3542 22.75H95.1149H95.3649V23V24.7027V24.9527H95.1149H69.1749L55.5528 63.3693L54.1715 60.4386ZM54.1715 60.4386L45.1444 46.263L45.1444 46.263C44.9342 45.9331 44.5616 45.737 44.1667 45.737H37H36.75V45.987V47.6897V47.9397H37H43.5251L53.4919 63.5896C53.4919 63.5896 53.4919 63.5896 53.4919 63.5897C53.7032 63.9217 54.076 64.1157 54.4688 64.1157C54.5099 64.1157 54.5507 64.1135 54.592 64.1093L54.5927 64.1092C55.0292 64.0631 55.4075 63.7799 55.5527 63.3695L54.1715 60.4386Z" fill="white" stroke="white" stroke-width="0.5"/>
<path d="M93.2659 64H73.5859V63.08C73.5859 59.0533 75.8393 55.64 80.3459 52.84L84.7459 50.12C85.4926 49.6933 86.1726 49.24 86.7859 48.76C87.1326 48.4933 87.6526 48.0133 88.3459 47.32C89.3593 46.1733 89.8659 44.8 89.8659 43.2C89.8659 41.68 89.2526 40.32 88.0259 39.12C86.7993 37.9467 85.2793 37.36 83.4659 37.36C81.9993 37.36 80.7459 37.72 79.7059 38.44C78.7193 39.16 77.9726 40.04 77.4659 41.08C77.1459 41.9333 76.9459 42.8933 76.8659 43.96L73.8259 43.52C73.8259 42.24 74.1326 40.9867 74.7459 39.76C75.3859 38.5067 76.2793 37.4267 77.4259 36.52C79.0526 35.1867 81.0926 34.52 83.5459 34.52C86.2126 34.52 88.4793 35.3867 90.3459 37.12C92.1326 38.8533 93.0259 40.8533 93.0259 43.12C93.0259 45.04 92.5193 46.6933 91.5059 48.08C90.4659 49.4933 88.9326 50.8267 86.9059 52.08L82.3059 54.96C79.0793 56.96 77.4126 59.04 77.3059 61.2H93.2659V64Z" fill="white"/>
</svg>
