<svg width="96" height="96" viewBox="0 0 96 96" fill="none" xmlns="http://www.w3.org/2000/svg">
<circle cx="48" cy="48" r="48" fill="#FFD322" fill-opacity="0.1"/>
<path d="M70.2859 28.2856H25.7144C24.5781 28.2868 23.4887 28.7387 22.6852 29.5422C21.8817 30.3456 21.4298 31.4351 21.4287 32.5714V56.5714C21.4298 57.7077 21.8817 58.7971 22.6852 59.6006C23.4887 60.404 24.5781 60.8559 25.7144 60.8571H42.5016L41.2876 64.2856H37.7144C37.4871 64.2856 37.2691 64.376 37.1083 64.5367C36.9476 64.6974 36.8573 64.9155 36.8573 65.1428V67.7142C36.8573 67.9415 36.9476 68.1596 37.1083 68.3203C37.2691 68.4811 37.4871 68.5714 37.7144 68.5714H69.4287C70.1104 68.5705 70.7639 68.2992 71.246 67.8172C71.728 67.3352 71.9992 66.6816 72.0001 65.9999V60.5003C72.7646 60.1667 73.4151 59.6172 73.8718 58.9193C74.3286 58.2214 74.5718 57.4054 74.5716 56.5714V32.5714C74.5704 31.4351 74.1185 30.3456 73.3151 29.5422C72.5116 28.7387 71.4221 28.2868 70.2859 28.2856ZM25.7144 59.1428C25.0327 59.1419 24.3792 58.8707 23.8972 58.3886C23.4151 57.9066 23.1439 57.2531 23.143 56.5714V55.7142H54.8573V59.1428H25.7144ZM54.8573 60.8571V64.2856H54.6055L53.3916 60.8571H54.8573ZM52.7873 64.2856H43.1059L44.3198 60.8571H51.5734L52.7873 64.2856ZM38.5716 66.8571V65.9999H54.8573C54.8572 66.292 54.9072 66.5819 55.0051 66.8571H38.5716ZM70.2859 65.9999C70.2855 66.2272 70.1951 66.445 70.0345 66.6057C69.8738 66.7664 69.6559 66.8568 69.4287 66.8571H57.4287C57.2015 66.8568 56.9836 66.7664 56.823 66.6057C56.6623 66.445 56.5719 66.2272 56.5716 65.9999V46.2856C56.5719 46.0584 56.6623 45.8406 56.823 45.6799C56.9836 45.5192 57.2015 45.4288 57.4287 45.4285H59.3819L60.0441 47.4139C60.101 47.5845 60.2101 47.733 60.3561 47.8382C60.502 47.9433 60.6774 47.9999 60.8573 47.9999H66.0001C66.18 47.9999 66.3554 47.9433 66.5014 47.8382C66.6473 47.733 66.7565 47.5845 66.8134 47.4139L67.4755 45.4285H69.4287C69.6559 45.4288 69.8738 45.5192 70.0345 45.6799C70.1951 45.8406 70.2855 46.0584 70.2859 46.2856V65.9999ZM61.1894 45.4285H65.668L65.3819 46.2856H61.4755L61.1894 45.4285ZM72.8573 56.5714C72.8572 56.9332 72.7808 57.2909 72.6331 57.6212C72.4855 57.9515 72.2698 58.2469 72.0001 58.4881V46.2856C71.9992 45.6039 71.728 44.9504 71.246 44.4684C70.7639 43.9863 70.1104 43.7151 69.4287 43.7142H57.4287C56.747 43.7151 56.0935 43.9863 55.6114 44.4684C55.1294 44.9504 54.8582 45.6039 54.8573 46.2856V53.9999H23.143V32.5714C23.1439 31.8897 23.4151 31.2361 23.8972 30.7541C24.3792 30.272 25.0327 30.0008 25.7144 29.9999H70.2859C70.9676 30.0008 71.6211 30.272 72.1031 30.7541C72.5852 31.2361 72.8564 31.8897 72.8573 32.5714V56.5714Z" fill="#FFD322"/>
</svg>
