<svg width="100" height="73" viewBox="0 0 100 73" fill="none" xmlns="http://www.w3.org/2000/svg">
<rect width="99.0391" height="72.0284" rx="8.78396" fill="#E489D7"/>
<path d="M49.5954 43.4192V32.8574H36.4722V43.4192H34.0372V20.3666H36.4722V30.5806H49.5954V20.3666H52.0303V43.4192H49.5954Z" fill="white"/>
<path d="M67.0738 51.7439H56.7018V51.259C56.7018 49.1368 57.8893 47.3379 60.2645 45.8622L62.5835 44.4286C62.977 44.2037 63.3354 43.9648 63.6586 43.7118C63.8414 43.5713 64.1154 43.3183 64.4808 42.9529C65.0149 42.3486 65.2819 41.6248 65.2819 40.7815C65.2819 39.9804 64.9587 39.2637 64.3122 38.6312C63.6657 38.0128 62.8646 37.7036 61.9089 37.7036C61.1359 37.7036 60.4753 37.8934 59.9272 38.2728C59.4072 38.6523 59.0137 39.1161 58.7467 39.6642C58.578 40.1139 58.4726 40.6199 58.4304 41.1821L56.8282 40.9502C56.8282 40.2756 56.9899 39.615 57.3131 38.9685C57.6504 38.308 58.1212 37.7388 58.7256 37.2609C59.5829 36.5582 60.658 36.2068 61.951 36.2068C63.3565 36.2068 64.5511 36.6636 65.5349 37.5771C66.4765 38.4907 66.9474 39.5447 66.9474 40.7394C66.9474 41.7513 66.6803 42.6226 66.1463 43.3535C65.5981 44.0983 64.79 44.8011 63.7219 45.4616L61.2975 46.9795C59.5969 48.0336 58.7185 49.1298 58.6623 50.2682H67.0738V51.7439Z" fill="white"/>
</svg>
