<svg width="96" height="96" viewBox="0 0 96 96" fill="none" xmlns="http://www.w3.org/2000/svg">
<circle cx="48" cy="48" r="48" fill="#EC1515" fill-opacity="0.1"/>
<path d="M42.8569 25.7139C39.2969 25.7139 35.8168 26.7695 32.8567 28.7474C29.8966 30.7253 27.5895 33.5365 26.2271 36.8256C24.8647 40.1146 24.5083 43.7338 25.2028 47.2255C25.8973 50.7172 27.6117 53.9244 30.129 56.4418C32.6464 58.9591 35.8537 60.6735 39.3453 61.368C42.837 62.0625 46.4562 61.7061 49.7452 60.3437C53.0343 58.9813 55.8455 56.6742 57.8234 53.7141C59.8013 50.754 60.8569 47.2739 60.8569 43.7139C60.8515 38.9416 58.9533 34.3664 55.5788 30.992C52.2044 27.6175 47.6292 25.7193 42.8569 25.7139ZM42.8569 59.9996C39.6359 59.9996 36.4873 59.0444 33.8091 57.2549C31.1309 55.4654 29.0435 52.922 27.8109 49.9461C26.5783 46.9703 26.2558 43.6958 26.8842 40.5367C27.5125 37.3776 29.0636 34.4757 31.3412 32.1981C33.6188 29.9205 36.5206 28.3695 39.6798 27.7411C42.8389 27.1127 46.1134 27.4352 49.0892 28.6678C52.065 29.9005 54.6085 31.9878 56.398 34.666C58.1875 37.3442 59.1427 40.4929 59.1427 43.7139C59.1377 48.0316 57.4202 52.171 54.3672 55.2241C51.3141 58.2772 47.1746 59.9946 42.8569 59.9996Z" fill="#EC1515"/>
<path d="M60.0798 56.4444C63.3331 52.0472 64.785 46.5738 64.139 41.1422C63.493 35.7106 60.7978 30.7305 56.6038 27.219C52.4098 23.7076 47.0335 21.9297 41.5729 22.2484C36.1123 22.5672 30.9794 24.9586 27.2224 28.9342C23.4655 32.9098 21.3681 38.1697 21.3584 43.6396C21.3488 49.1095 23.4277 54.3767 27.1706 58.3655C30.9135 62.3543 36.038 64.7638 41.4974 65.1018C46.9569 65.4398 52.3394 63.6808 56.5457 60.1841L69.3223 72.9555C69.5588 73.201 69.8417 73.3968 70.1547 73.5317C70.4677 73.6666 70.8044 73.7378 71.1452 73.7412C71.486 73.7445 71.824 73.68 72.1396 73.5513C72.4551 73.4226 72.7419 73.2323 72.9831 72.9916C73.2244 72.7509 73.4153 72.4645 73.5446 72.1492C73.674 71.8339 73.7393 71.496 73.7366 71.1552C73.734 70.8144 73.6635 70.4776 73.5293 70.1643C73.3951 69.851 73.1998 69.5677 72.9549 69.3307L60.0798 56.4444ZM23.1429 43.7141C23.1429 39.815 24.2991 36.0035 26.4654 32.7615C28.6316 29.5195 31.7105 26.9926 35.3128 25.5005C38.9152 24.0084 42.879 23.618 46.7032 24.3787C50.5274 25.1393 54.0402 27.0169 56.7973 29.774C59.5544 32.5311 61.432 36.0439 62.1927 39.8681C62.9533 43.6923 62.5629 47.6561 61.0708 51.2585C59.5787 54.8608 57.0518 57.9397 53.8098 60.106C50.5679 62.2722 46.7563 63.4284 42.8572 63.4284C37.6304 63.4227 32.6193 61.3439 28.9233 57.648C25.2274 53.952 23.1486 48.9409 23.1429 43.7141ZM71.7429 71.7495C71.5836 71.9085 71.3679 71.9977 71.1429 71.9977C70.9179 71.9977 70.7021 71.9085 70.5429 71.7495L57.8177 59.033C58.2275 58.633 58.62 58.217 58.9955 57.785L71.7429 70.5427C71.824 70.6202 71.8885 70.7133 71.9327 70.8164C71.9769 70.9195 71.9998 71.0305 72 71.1427C72.0002 71.2559 71.9774 71.368 71.9333 71.4723C71.8891 71.5766 71.8243 71.6709 71.7429 71.7495Z" fill="#EC1515"/>
<path d="M34.2859 49.7139H37.7144C37.9418 49.7139 38.1598 49.6236 38.3205 49.4629C38.4813 49.3021 38.5716 49.0841 38.5716 48.8568V40.2854C38.5716 40.058 38.4813 39.84 38.3205 39.6793C38.1598 39.5185 37.9418 39.4282 37.7144 39.4282H34.2859C34.0585 39.4282 33.8405 39.5185 33.6798 39.6793C33.519 39.84 33.4287 40.058 33.4287 40.2854V48.8568C33.4287 49.0841 33.519 49.3021 33.6798 49.4629C33.8405 49.6236 34.0585 49.7139 34.2859 49.7139ZM35.143 41.1425H36.8573V47.9997H35.143V41.1425Z" fill="#EC1515"/>
<path d="M41.1428 49.7139H44.5714C44.7987 49.7139 45.0167 49.6236 45.1775 49.4628C45.3382 49.3021 45.4285 49.0841 45.4285 48.8567V38.571C45.4285 38.3437 45.3382 38.1257 45.1775 37.9649C45.0167 37.8042 44.7987 37.7139 44.5714 37.7139H41.1428C40.9155 37.7139 40.6974 37.8042 40.5367 37.9649C40.3759 38.1257 40.2856 38.3437 40.2856 38.571V48.8567C40.2856 49.0841 40.3759 49.3021 40.5367 49.4628C40.6974 49.6236 40.9155 49.7139 41.1428 49.7139ZM41.9999 39.4282H43.7142V47.9996H41.9999V39.4282Z" fill="#EC1515"/>
<path d="M51.4288 36H48.0002C47.7729 36 47.5549 36.0903 47.3941 36.2511C47.2334 36.4118 47.1431 36.6298 47.1431 36.8571V48.8571C47.1431 49.0845 47.2334 49.3025 47.3941 49.4632C47.5549 49.624 47.7729 49.7143 48.0002 49.7143H51.4288C51.6561 49.7143 51.8741 49.624 52.0349 49.4632C52.1956 49.3025 52.2859 49.0845 52.2859 48.8571V36.8571C52.2859 36.6298 52.1956 36.4118 52.0349 36.2511C51.8741 36.0903 51.6561 36 51.4288 36ZM50.5716 48H48.8574V37.7143H50.5716V48Z" fill="#EC1515"/>
</svg>
