<svg width="100" height="73" viewBox="0 0 100 73" fill="none" xmlns="http://www.w3.org/2000/svg">
<rect width="99.0391" height="72.0284" rx="8.78396" fill="#E6DA00"/>
<path d="M61.8994 22.5088H37.1396C36.5184 22.5088 36.0142 23.013 36.0142 23.6342C36.0142 24.2555 36.5184 24.7597 37.1396 24.7597H61.8994C62.5206 24.7597 63.0248 24.2555 63.0248 23.6342C63.0248 23.013 62.5206 22.5088 61.8994 22.5088Z" fill="white"/>
<path d="M61.8994 47.2686H37.1396C36.5184 47.2686 36.0142 47.7728 36.0142 48.394C36.0142 49.0152 36.5184 49.5194 37.1396 49.5194H61.8994C62.5206 49.5194 63.0248 49.0152 63.0248 48.394C63.0248 47.7728 62.5206 47.2686 61.8994 47.2686Z" fill="white"/>
<path d="M37.1396 30.9496H52.8958C53.5171 30.9496 54.0213 30.4454 54.0213 29.8242C54.0213 29.2029 53.5171 28.6987 52.8958 28.6987H37.1396C36.5184 28.6987 36.0142 29.2029 36.0142 29.8242C36.0142 30.4454 36.5184 30.9496 37.1396 30.9496Z" fill="white"/>
<path d="M61.8994 34.8887H37.1396C36.5184 34.8887 36.0142 35.3929 36.0142 36.0141C36.0142 36.6354 36.5184 37.1396 37.1396 37.1396H61.8994C62.5206 37.1396 63.0248 36.6354 63.0248 36.0141C63.0248 35.3929 62.5206 34.8887 61.8994 34.8887Z" fill="white"/>
<path d="M37.1396 43.3295H52.8958C53.5171 43.3295 54.0213 42.8253 54.0213 42.2041C54.0213 41.5828 53.5171 41.0786 52.8958 41.0786H37.1396C36.5184 41.0786 36.0142 41.5828 36.0142 42.2041C36.0142 42.8253 36.5184 43.3295 37.1396 43.3295Z" fill="white"/>
</svg>
