<svg width="35" height="42" viewBox="0 0 35 42" fill="none" xmlns="http://www.w3.org/2000/svg">
<path fill-rule="evenodd" clip-rule="evenodd" d="M13.3041 41.9102C14.6948 40.1997 16.0034 38.4167 17.2251 36.5678C17.9799 35.4256 18.687 34.2324 18.4449 32.8834C18.1709 31.3561 15.696 29.4368 10.8644 27.9094C9.35032 27.4318 7.8075 27.0625 6.24645 26.8041C7.98151 25.5953 9.64408 24.3529 11.3001 23.0276C12.2812 22.2424 13.2237 21.4574 14.1755 20.6327C14.2162 20.6027 14.2468 20.5596 14.2625 20.5098C14.2782 20.46 14.2782 20.4062 14.2626 20.3564C14.2174 20.2747 14.0529 20.239 13.9141 20.3564C12.8972 21.0644 11.7858 21.8341 10.8644 22.4749C9.43748 23.4673 8.11029 24.3648 6.15932 24.5013C5.42862 24.5511 4.69494 24.4891 3.98102 24.3171C3.91454 24.2649 3.86306 24.1942 3.8323 24.1129C3.80153 24.0316 3.79269 23.9428 3.80676 23.8566C3.82951 23.7444 3.89182 23.6456 3.98102 23.5802C4.71798 23.4211 5.43508 23.2394 6.15932 23.0276C8.96792 22.2042 11.6628 20.9965 14.1755 19.4353C14.2958 19.3638 14.3632 19.2866 14.3497 19.251C14.3362 19.2155 14.2322 19.2077 14.0883 19.251C13.4051 19.4835 12.7478 19.7251 12.0843 19.9879C8.90572 21.2468 7.05286 22.398 4.24242 22.2907C3.56772 22.2647 2.8968 22.1722 2.23838 22.0143C1.77344 21.9038 1.45254 21.7202 1.45419 21.5538C1.45602 21.3705 1.84934 21.16 2.49978 21.0932C3.73139 20.9909 4.9406 20.8387 6.15932 20.6327C8.85647 20.1762 11.5099 19.4672 14.0883 18.5142C14.1007 18.4852 14.1071 18.4538 14.1071 18.422C14.1071 18.3903 14.1007 18.3589 14.0883 18.3299C14.068 18.2912 14.0378 18.2593 14.0012 18.2378C13.9469 18.2099 13.8873 18.1954 13.8269 18.1954C13.7666 18.1954 13.707 18.2099 13.6527 18.2378C11.5179 18.8649 9.28962 19.3676 7.29203 19.6195C5.48431 19.8475 4.08558 19.8164 2.76117 19.5274C2.22918 19.4113 1.7052 19.2574 1.1928 19.0668C0.693008 18.924 0.451217 18.6085 0.495741 18.422C0.529984 18.2784 0.743283 18.1739 1.01853 18.1457C2.92986 18.335 4.85058 18.3965 6.76924 18.3299C9.13861 18.2479 11.4983 17.9707 13.8269 17.5009C13.9475 17.4931 14.0656 17.4618 14.1755 17.4088C14.2143 17.3906 14.2453 17.3578 14.2626 17.3167C14.273 17.287 14.273 17.2543 14.2626 17.2246C14.2325 17.1472 14.1032 17.1036 13.9141 17.1325C12.9529 17.1586 12 17.1891 11.0387 17.2246C10.242 17.2541 9.12756 17.2886 8.68615 17.3167C7.73641 17.3771 6.93601 17.437 5.98506 17.4088C4.67659 17.37 3.65445 17.197 2.76117 16.8562C1.95024 16.5462 1.1869 16.1117 0.495741 15.5666C0.0180838 15.1352 -0.0834249 14.6363 0.0600814 14.4613C0.183286 14.3112 0.543577 14.3313 0.931401 14.5534C2.01752 14.9522 3.12272 15.2904 4.24242 15.5666C7.4673 16.3579 10.7856 16.6372 14.0883 16.3956C14.1231 16.3976 14.158 16.3918 14.1905 16.3786C14.2231 16.3654 14.2526 16.3451 14.2773 16.3191C14.3019 16.293 14.3211 16.2617 14.3336 16.2273C14.3461 16.1929 14.3516 16.1561 14.3497 16.1193C14.3338 16.0609 14.2988 16.0103 14.2509 15.9766C14.2031 15.9429 14.1455 15.9282 14.0883 15.9351C12.4289 15.9555 10.77 15.8632 9.12181 15.6587C7.25579 15.4257 5.59148 15.0434 4.32955 14.5534C3.20501 14.1165 2.12494 13.5611 1.10566 12.8954C0.380204 12.1369 0.123862 11.4611 0.321477 11.1453C0.385167 11.0531 0.477821 10.9878 0.582873 10.9611C2.37195 11.9803 4.237 12.8429 6.15932 13.5402C8.86801 14.5225 11.6747 15.1715 14.524 15.4745C14.5585 15.4811 14.5942 15.4757 14.6256 15.4591C14.657 15.4425 14.6825 15.4156 14.6983 15.3824C14.7083 15.3526 14.7083 15.3201 14.6983 15.2903C12.3161 14.717 9.99173 14.0354 7.81483 13.2639C5.93408 12.5973 4.37407 11.8954 2.8483 10.4085C2.22589 9.8012 1.67052 9.12139 1.1928 8.38203C0.816997 7.85396 0.823532 7.34809 1.01853 7.1846C1.15045 7.07407 1.37168 7.11727 1.54132 7.1846C2.68259 8.2993 3.90634 9.31575 5.20087 10.2242C7.97457 12.1652 11.0381 13.5977 14.2626 14.4613C14.3898 14.4716 14.4945 14.4359 14.524 14.3692C14.5639 14.2789 14.4814 14.0977 14.2626 14.0008C12.4405 13.2623 10.6652 12.4008 8.94754 11.4217C5.42915 9.41367 3.6345 7.61217 3.02257 5.61872C2.47869 3.84698 2.61357 1.91589 3.28396 0C4.15707 2.00672 5.30178 3.86843 6.68211 5.52661C8.3621 7.5383 10.8209 9.28619 13.9141 11.2374C16.3876 12.798 18.5259 14.092 20.7104 15.843C21.6862 16.6251 22.4601 17.4228 23.4114 18.2378C24.137 18.8593 24.6777 19.3266 25.2412 20.1721C26.6751 22.3238 26.8139 24.9295 26.6353 26.6199C26.3203 29.6025 24.7533 32.0013 21.7559 35.0019C19.1542 37.5851 16.3239 39.8985 13.3041 41.9102ZM24.7184 16.1193C26.0853 15.4515 27.4738 15.2032 28.8136 15.4745C30.2392 15.7632 31.0659 16.5246 32.2989 17.5009C33.158 18.1812 34.0553 18.8234 35 19.4353C33.8108 19.4463 32.6372 19.7227 31.5561 20.2466C30.4749 20.7704 29.5107 21.5297 28.7265 22.4749C28.9525 21.7215 29.1272 20.9519 29.2493 20.1721C29.4465 18.9096 29.3816 17.9046 29.1622 17.5009C28.5142 16.3093 26.7887 15.7997 24.7184 16.1193Z" fill="#E3E3E3"/>
</svg>
