<svg width="46" height="54" viewBox="0 0 46 54" fill="none" xmlns="http://www.w3.org/2000/svg">
<path fill-rule="evenodd" clip-rule="evenodd" d="M17.4421 53.4715C19.2653 51.2935 20.9809 49.023 22.5826 46.6686C23.5722 45.2142 24.4992 43.6948 24.1819 41.977C23.8226 40.0322 20.5779 37.5882 14.2436 35.6433C12.2586 35.0351 10.2359 34.5649 8.18929 34.2358C10.464 32.6966 12.6437 31.1146 14.8148 29.4269C16.101 28.4271 17.3367 27.4274 18.5845 26.3773C18.6379 26.3392 18.6779 26.2843 18.6985 26.2209C18.7191 26.1574 18.7192 26.0889 18.6987 26.0254C18.6394 25.9214 18.4237 25.876 18.2418 26.0254C16.9087 26.927 15.4515 27.9071 14.2436 28.7231C12.3728 29.9868 10.6328 31.1297 8.07505 31.3035C7.11708 31.3669 6.15521 31.2879 5.21924 31.0689C5.13208 31.0024 5.06459 30.9124 5.02426 30.8089C4.98393 30.7053 4.97233 30.5924 4.99077 30.4825C5.0206 30.3396 5.1023 30.2138 5.21924 30.1306C6.18542 29.9279 7.12555 29.6966 8.07505 29.4269C11.7572 28.3784 15.2902 26.8406 18.5845 24.8525C18.7422 24.7615 18.8306 24.6632 18.8129 24.6179C18.7952 24.5727 18.6588 24.5627 18.4702 24.6179C17.5745 24.914 16.7128 25.2216 15.8429 25.5563C11.6757 27.1593 9.24651 28.6252 5.56194 28.4885C4.67739 28.4555 3.79779 28.3377 2.93458 28.1367C2.32504 27.9959 1.90432 27.7622 1.90649 27.5502C1.90889 27.3168 2.42454 27.0488 3.27728 26.9638C4.89196 26.8334 6.47728 26.6397 8.07505 26.3773C11.6111 25.796 15.0898 24.8932 18.4702 23.6796C18.4864 23.6427 18.4948 23.6028 18.4948 23.5623C18.4948 23.5219 18.4864 23.4819 18.4702 23.445C18.4436 23.3957 18.404 23.355 18.356 23.3277C18.2848 23.2922 18.2067 23.2737 18.1275 23.2737C18.0484 23.2737 17.9702 23.2922 17.8991 23.3277C15.1004 24.1262 12.179 24.7663 9.56008 25.0871C7.19009 25.3774 5.35632 25.3379 3.61998 24.9698C2.92253 24.822 2.23557 24.6261 1.56379 24.3834C0.908555 24.2015 0.591559 23.7997 0.649932 23.5623C0.694825 23.3795 0.974467 23.2463 1.33533 23.2104C3.84113 23.4515 6.35926 23.5298 8.87468 23.445C11.981 23.3405 15.0746 22.9876 18.1275 22.3894C18.2855 22.3794 18.4404 22.3396 18.5845 22.2721C18.6354 22.2489 18.6761 22.2071 18.6987 22.1548C18.7123 22.117 18.7123 22.0754 18.6987 22.0375C18.6593 21.9389 18.4898 21.8834 18.2418 21.9202C16.9817 21.9534 15.7324 21.9923 14.4721 22.0375C13.4275 22.0751 11.9665 22.119 11.3878 22.1548C10.1427 22.2316 9.09332 22.308 7.84659 22.2721C6.13116 22.2226 4.79109 22.0023 3.61998 21.5684C2.55682 21.1737 1.55607 20.6204 0.649932 19.9263C0.0237084 19.3769 -0.109373 18.7417 0.0787686 18.5188C0.240294 18.3276 0.712645 18.3533 1.22109 18.6361C2.64504 19.1439 4.09398 19.5746 5.56194 19.9263C9.78986 20.9338 14.1403 21.2896 18.4702 20.9819C18.5159 20.9844 18.5615 20.977 18.6042 20.9602C18.6469 20.9434 18.6856 20.9176 18.718 20.8844C18.7503 20.8512 18.7754 20.8114 18.7918 20.7676C18.8082 20.7238 18.8154 20.6769 18.8129 20.63C18.792 20.5557 18.7461 20.4913 18.6834 20.4483C18.6207 20.4054 18.5451 20.3867 18.4702 20.3955C16.2947 20.4215 14.1198 20.304 11.959 20.0436C9.51256 19.7468 7.3306 19.2601 5.67617 18.6361C4.20187 18.0798 2.78586 17.3725 1.44956 16.5249C0.498459 15.559 0.162387 14.6984 0.421467 14.2963C0.504966 14.1789 0.626438 14.0957 0.764165 14.0617C3.1097 15.3596 5.55484 16.458 8.07505 17.3459C11.6262 18.5967 15.3059 19.4232 19.0414 19.809C19.0867 19.8174 19.1334 19.8104 19.1746 19.7893C19.2158 19.7682 19.2492 19.7339 19.2699 19.6917C19.2831 19.6538 19.2831 19.6123 19.2699 19.5744C16.1467 18.8444 13.0995 17.9764 10.2455 16.994C7.77976 16.1452 5.73454 15.2514 3.73421 13.358C2.91821 12.5847 2.1901 11.7191 1.56379 10.7776C1.07111 10.1052 1.07967 9.46101 1.33533 9.25282C1.50828 9.11207 1.79831 9.16708 2.02072 9.25282C3.51696 10.6723 5.12132 11.9666 6.81849 13.1234C10.4549 15.595 14.4713 17.4191 18.6987 18.5188C18.8655 18.5319 19.0028 18.4864 19.0414 18.4015C19.0937 18.2866 18.9855 18.0557 18.6987 17.9323C16.3099 16.992 13.9823 15.895 11.7305 14.6482C7.11778 12.0913 4.76494 9.79728 3.96268 7.25887C3.24964 5.00278 3.42647 2.54378 4.30538 0.104126C5.45005 2.65943 6.9508 5.03009 8.76045 7.14158C10.963 9.70322 14.1865 11.9289 18.2418 14.4136C21.4846 16.4008 24.288 18.0486 27.1519 20.2782C28.4313 21.2741 29.4458 22.2899 30.6931 23.3277C31.6443 24.1191 32.3533 24.7141 33.092 25.7908C34.9719 28.5308 35.1538 31.8488 34.9197 34.0012C34.5068 37.7992 32.4523 40.8538 28.5227 44.6747C25.1117 47.9641 21.4012 50.9099 17.4421 53.4715ZM32.4066 20.63C34.1986 19.7797 36.019 19.4635 37.7755 19.809C39.6445 20.1766 40.7283 21.1461 42.3449 22.3894C43.4712 23.2556 44.6476 24.0733 45.8861 24.8525C44.327 24.8665 42.7883 25.2186 41.371 25.8856C39.9536 26.5526 38.6894 27.5196 37.6613 28.7231C37.9576 27.7637 38.1867 26.7838 38.3467 25.7908C38.6052 24.1831 38.5202 22.9034 38.2325 22.3894C37.3829 20.872 35.1208 20.223 32.4066 20.63Z" fill="url(#paint0_linear)"/>
<defs>
<linearGradient id="paint0_linear" x1="-0.0568726" y1="26.7878" x2="48.3059" y2="25.071" gradientUnits="userSpaceOnUse">
<stop stop-color="#8FAAE5"/>
<stop offset="0.234375" stop-color="#93AEEB"/>
<stop offset="0.270833" stop-color="#93AFEC"/>
<stop offset="1" stop-color="#9FBDFF"/>
</linearGradient>
</defs>
</svg>
