<svg width="107" height="36" viewBox="0 0 107 36" fill="none" xmlns="http://www.w3.org/2000/svg">
<path d="M7.936 7.61733C7.232 8.492 6.624 9.47333 6.112 10.5613C5.6 11.628 5.16267 12.7373 4.8 13.8893C4.45867 15.0413 4.20267 16.204 4.032 17.3773C3.86133 18.5507 3.776 19.692 3.776 20.8013C3.776 23.2973 4.13867 25.612 4.864 27.7453C5.58933 29.8787 6.61333 31.98 7.936 34.0493L6.432 35.0093C5.68533 33.9853 5.024 32.8867 4.448 31.7133C3.89333 30.5613 3.424 29.3773 3.04 28.1613C2.656 26.9453 2.35733 25.7187 2.144 24.4813C1.952 23.244 1.856 22.0173 1.856 20.8013C1.856 18.2627 2.24 15.756 3.008 13.2813C3.79733 10.8067 4.896 8.57733 6.304 6.59333L7.936 7.61733ZM91.8215 33.9853C92.5255 33.1107 93.1335 32.14 93.6455 31.0733C94.1575 30.0067 94.5842 28.8973 94.9255 27.7453C95.2882 26.5933 95.5548 25.4307 95.7255 24.2573C95.8962 23.0627 95.9815 21.9107 95.9815 20.8013C95.9815 19.564 95.8855 18.3693 95.6935 17.2173C95.5015 16.0653 95.2242 14.9453 94.8615 13.8573C94.5202 12.7693 94.0935 11.7133 93.5815 10.6893C93.0695 9.644 92.4828 8.59867 91.8215 7.55333L93.3255 6.59333C94.0722 7.61733 94.7228 8.716 95.2775 9.88933C95.8535 11.0413 96.3335 12.2253 96.7175 13.4413C97.1015 14.6573 97.3895 15.884 97.5815 17.1213C97.7948 18.3587 97.9015 19.5853 97.9015 20.8013C97.9015 23.34 97.5068 25.8467 96.7175 28.3213C95.9495 30.796 94.8615 33.0253 93.4535 35.0093L91.8215 33.9853Z" fill="#646f79"/>
<path d="M7.936 7.61733L8.32551 7.93084L8.67814 7.49272L8.20175 7.1938L7.936 7.61733ZM6.112 10.5613L6.56278 10.7777L6.56441 10.7742L6.112 10.5613ZM4.8 13.8893L4.32301 13.7392L4.3206 13.7473L4.8 13.8893ZM4.032 17.3773L3.53721 17.3054L4.032 17.3773ZM4.864 27.7453L5.33739 27.5844L4.864 27.7453ZM7.936 34.0493L8.20502 34.4708L8.62674 34.2016L8.35729 33.7801L7.936 34.0493ZM6.432 35.0093L6.028 35.3039L6.30488 35.6836L6.70102 35.4308L6.432 35.0093ZM4.448 31.7133L3.99749 31.9302L3.99917 31.9337L4.448 31.7133ZM3.04 28.1613L3.51679 28.0108L3.04 28.1613ZM2.144 24.4813L1.64984 24.558L1.65127 24.5663L2.144 24.4813ZM3.008 13.2813L2.53163 13.1294L2.53047 13.1331L3.008 13.2813ZM6.304 6.59333L6.56975 6.1698L6.16962 5.91874L5.89625 6.30396L6.304 6.59333ZM7.54649 7.30383C6.81591 8.21152 6.1873 9.22705 5.65959 10.3484L6.56441 10.7742C7.0607 9.71961 7.64809 8.77248 8.32551 7.93084L7.54649 7.30383ZM5.66124 10.345C5.13874 11.4335 4.69273 12.565 4.32308 13.7392L5.27692 14.0395C5.6326 12.9097 6.06126 11.8225 6.56276 10.7777L5.66124 10.345ZM4.3206 13.7473C3.97256 14.9219 3.71137 16.108 3.53721 17.3054L4.52679 17.4493C4.69397 16.3 4.94478 15.1607 5.2794 14.0314L4.3206 13.7473ZM3.53721 17.3054C3.36331 18.5009 3.276 19.6663 3.276 20.8013H4.276C4.276 19.7177 4.35936 18.6004 4.52679 17.4493L3.53721 17.3054ZM3.276 20.8013C3.276 23.3462 3.64587 25.7159 4.39061 27.9063L5.33739 27.5844C4.63147 25.5081 4.276 23.2484 4.276 20.8013H3.276ZM4.39061 27.9063C5.12999 30.0809 6.17231 32.2184 7.51471 34.3186L8.35729 33.7801C7.05436 31.7416 6.04867 29.6764 5.33739 27.5844L4.39061 27.9063ZM7.66698 33.6279L6.16298 34.5879L6.70102 35.4308L8.20502 34.4708L7.66698 33.6279ZM6.836 34.7147C6.10693 33.7149 5.46047 32.6411 4.89683 31.493L3.99917 31.9337C4.58753 33.1322 5.26374 34.2558 6.028 35.3039L6.836 34.7147ZM4.8985 31.4964C4.35414 30.3658 3.8936 29.204 3.51679 28.0108L2.56321 28.3119C2.9544 29.5507 3.43253 30.7568 3.9975 31.9302L4.8985 31.4964ZM3.51679 28.0108C3.13947 26.8159 2.84618 25.6112 2.63673 24.3964L1.65127 24.5663C1.86849 25.8262 2.17253 27.0747 2.56321 28.3119L3.51679 28.0108ZM2.63809 24.4047C2.44991 23.1919 2.356 21.9909 2.356 20.8013H1.356C1.356 22.0438 1.45409 23.2961 1.64991 24.558L2.63809 24.4047ZM2.356 20.8013C2.356 18.314 2.73211 15.8572 3.48553 13.4295L2.53047 13.1331C1.74789 15.6548 1.356 18.2114 1.356 20.8013H2.356ZM3.48435 13.4333C4.2591 11.0044 5.33552 8.82195 6.71175 6.88271L5.89625 6.30396C4.45648 8.33272 3.33557 10.609 2.53165 13.1294L3.48435 13.4333ZM6.03825 7.01686L7.67025 8.04086L8.20175 7.1938L6.56975 6.1698L6.03825 7.01686ZM91.8215 33.9853L91.432 33.6718L91.0794 34.11L91.5558 34.4089L91.8215 33.9853ZM93.6455 31.0733L94.0963 31.2897L93.6455 31.0733ZM94.9255 27.7453L94.4485 27.5952L94.4461 27.6033L94.9255 27.7453ZM95.7255 24.2573L96.2203 24.3293L96.2205 24.328L95.7255 24.2573ZM95.6935 17.2173L95.2003 17.2995L95.6935 17.2173ZM94.8615 13.8573L94.3844 14.007L94.3872 14.0154L94.8615 13.8573ZM93.5815 10.6893L93.1325 10.9093L93.1343 10.9129L93.5815 10.6893ZM91.8215 7.55333L91.5525 7.13187L91.1327 7.39981L91.399 7.82065L91.8215 7.55333ZM93.3255 6.59333L93.7295 6.29875L93.4526 5.91902L93.0565 6.17187L93.3255 6.59333ZM95.2775 9.88933L94.8254 10.1031L94.8303 10.1129L95.2775 9.88933ZM96.7175 13.4413L96.2407 13.5919L96.7175 13.4413ZM97.5815 17.1213L97.0873 17.198L97.0888 17.2063L97.5815 17.1213ZM96.7175 28.3213L96.2411 28.1694L96.24 28.1731L96.7175 28.3213ZM93.4535 35.0093L93.1878 35.4329L93.5879 35.6839L93.8613 35.2987L93.4535 35.0093ZM92.211 34.2988C92.9403 33.3927 93.5685 32.3891 94.0963 31.2897L93.1947 30.857C92.6985 31.8909 92.1107 32.8286 91.432 33.6718L92.211 34.2988ZM94.0963 31.2897C94.6199 30.1987 95.0561 29.0645 95.4049 27.8874L94.4461 27.6033C94.1122 28.7302 93.6951 29.8146 93.1947 30.857L94.0963 31.2897ZM95.4024 27.8955C95.773 26.7184 96.0457 25.5296 96.2203 24.3293L95.2307 24.1854C95.064 25.3317 94.8034 26.4683 94.4486 27.5952L95.4024 27.8955ZM96.2205 24.328C96.3942 23.112 96.4815 21.9363 96.4815 20.8013H95.4815C95.4815 21.885 95.3981 23.0134 95.2305 24.1866L96.2205 24.328ZM96.4815 20.8013C96.4815 19.5381 96.3835 18.3159 96.1867 17.1351L95.2003 17.2995C95.3875 18.4228 95.4815 19.5899 95.4815 20.8013H96.4815ZM96.1867 17.1351C95.9905 15.9578 95.7069 14.8124 95.3358 13.6992L94.3872 14.0154C94.7414 15.0782 95.0125 16.1728 95.2003 17.2995L96.1867 17.1351ZM95.3386 13.7077C94.9892 12.5942 94.5526 11.5134 94.0287 10.4657L93.1343 10.9129C93.6344 11.9132 94.0511 12.9445 94.3844 14.007L95.3386 13.7077ZM94.0305 10.4694C93.5101 9.40683 92.9145 8.3457 92.244 7.28601L91.399 7.82065C92.0512 8.85163 92.6289 9.88117 93.1325 10.9093L94.0305 10.4694ZM92.0905 7.97479L93.5945 7.01479L93.0565 6.17187L91.5525 7.13187L92.0905 7.97479ZM92.9215 6.88792C93.6492 7.88592 94.2839 8.95742 94.8255 10.103L95.7295 9.67564C95.1618 8.47458 94.4951 7.34875 93.7295 6.29875L92.9215 6.88792ZM94.8303 10.1129C95.3946 11.2416 95.8647 12.4012 96.2407 13.5919L97.1943 13.2908C96.8023 12.0494 96.3124 10.841 95.7247 9.66573L94.8303 10.1129ZM96.2407 13.5919C96.6172 14.7842 96.8994 15.9862 97.0874 17.198L98.0756 17.0447C97.8796 15.7818 97.5858 14.5305 97.1943 13.2908L96.2407 13.5919ZM97.0888 17.2063C97.2974 18.4165 97.4015 19.6147 97.4015 20.8013H98.4015C98.4015 19.556 98.2922 18.3009 98.0742 17.0364L97.0888 17.2063ZM97.4015 20.8013C97.4015 23.2872 97.0152 25.7427 96.2411 28.1694L97.1939 28.4733C97.9985 25.9506 98.4015 23.3928 98.4015 20.8013H97.4015ZM96.24 28.1731C95.4866 30.6006 94.4212 32.7818 93.0457 34.72L93.8613 35.2987C95.3018 33.2689 96.4124 30.9914 97.195 28.4695L96.24 28.1731ZM93.7192 34.5858L92.0872 33.5618L91.5558 34.4089L93.1878 35.4329L93.7192 34.5858Z" fill="#F7F7F7"/>
<path d="M24.9622 6.27686C24.717 6.27686 24.4997 6.42147 24.4221 6.6376L15.9735 29.9242L13.051 20.835C12.9478 20.6766 12.7624 20.5797 12.5628 20.5797H8V21.6392H12.2417L15.6342 31.4488C15.738 31.6082 15.9233 31.7041 16.1218 31.7041C16.1424 31.7041 16.1629 31.703 16.184 31.7009C16.4047 31.6781 16.5912 31.5388 16.6619 31.3434L25.3723 7.33632H88V6.27686H24.9622Z" fill="#646f79"/>
<path d="M28.4559 28.7269C28.5673 29.0585 28.7143 29.3054 28.897 29.4677C29.0861 29.63 29.3628 29.7107 29.7272 29.7098C29.9094 29.7094 30.0785 29.6798 30.2345 29.6209C30.397 29.5554 30.5399 29.4705 30.6633 29.3661C30.7867 29.2552 30.8839 29.1249 30.9551 28.9751C31.0263 28.8187 31.0617 28.6462 31.0612 28.4575C31.0604 28.1712 30.9981 27.9436 30.874 27.7747C30.7564 27.5993 30.6032 27.4695 30.4143 27.3853C30.2253 27.2947 30.017 27.2366 29.7892 27.2111C29.5614 27.1856 29.3368 27.173 29.1156 27.1735L29.1135 26.3537C29.4714 26.3529 29.7642 26.3294 29.9918 26.2834C30.2194 26.2308 30.3981 26.1588 30.528 26.0675C30.658 25.9761 30.7488 25.862 30.8005 25.7252C30.8522 25.5885 30.8778 25.4355 30.8774 25.2663C30.8764 24.8954 30.7651 24.6159 30.5434 24.4277C30.3217 24.2395 30.0449 24.1458 29.7131 24.1465C29.4593 24.1471 29.2285 24.2224 29.0207 24.3726C28.8193 24.5162 28.6669 24.7085 28.5634 24.9494L27.6061 24.6295C27.7871 24.1866 28.0629 23.8607 28.4332 23.6516C28.8101 23.436 29.2295 23.3277 29.6915 23.3267C29.9713 23.3261 30.2381 23.3645 30.4921 23.442C30.7526 23.513 30.9806 23.6264 31.1762 23.7821C31.3718 23.9378 31.5252 24.1359 31.6364 24.3764C31.7541 24.6104 31.8134 24.8868 31.8142 25.2056C31.8151 25.57 31.7054 25.8956 31.4849 26.1824C31.2709 26.4692 30.9883 26.665 30.6372 26.7699L30.6372 26.7895C30.8521 26.828 31.0442 26.8992 31.2136 27.0029C31.3831 27.1066 31.5266 27.2364 31.6441 27.3923C31.7616 27.5482 31.8499 27.7237 31.909 27.9188C31.968 28.1074 31.9978 28.309 31.9983 28.5237C31.9992 28.8556 31.9348 29.1485 31.8054 29.4026C31.6824 29.6501 31.5137 29.8587 31.2994 30.0284C31.0916 30.1915 30.8479 30.3157 30.5683 30.4009C30.2953 30.4861 30.0058 30.5291 29.7 30.5298C29.1729 30.531 28.7074 30.4116 28.3034 30.1718C27.9058 29.9319 27.6283 29.5519 27.4708 29.0317L28.4559 28.7269Z" fill="#646f79"/>
<path d="M29.6458 13.2751L28.38 14.4492L27.8317 13.7965L29.7505 12.2012L30.5801 12.1994L30.5976 19.1096L29.6607 19.1117L29.6458 13.2751Z" fill="#646f79"/>
<path d="M100.472 9.6455L103.237 6.88687C103.334 6.79556 103.428 6.69774 103.519 6.59343C103.61 6.48261 103.691 6.36855 103.762 6.25127C103.833 6.13399 103.888 6.01023 103.927 5.88001C103.972 5.74977 103.995 5.61307 103.994 5.46992C103.994 5.30075 103.961 5.14791 103.896 5.01141C103.837 4.8749 103.752 4.76122 103.641 4.67038C103.537 4.57301 103.41 4.49846 103.26 4.44675C103.117 4.39502 102.964 4.36933 102.801 4.3697C102.463 4.37046 102.183 4.46544 101.962 4.65464C101.741 4.84383 101.602 5.10442 101.545 5.4364L100.529 5.35084C100.574 5.04492 100.661 4.7812 100.791 4.55967C100.927 4.33162 101.092 4.14255 101.287 3.99246C101.488 3.84234 101.716 3.73122 101.969 3.65907C102.23 3.58691 102.509 3.55049 102.809 3.54982C103.108 3.54914 103.388 3.59081 103.648 3.67481C103.915 3.75229 104.147 3.87215 104.342 4.03438C104.544 4.19009 104.701 4.38819 104.812 4.6287C104.93 4.86268 104.989 5.13909 104.99 5.45792C104.991 5.68566 104.955 5.90047 104.884 6.10234C104.82 6.29769 104.732 6.48333 104.622 6.65927C104.512 6.8352 104.386 7.00141 104.243 7.1579C104.1 7.31438 103.951 7.46763 103.795 7.61764L101.526 9.81881L105.001 9.81099L105.003 10.6308L100.474 10.641L100.472 9.6455Z" fill="#646f79"/>
<path d="M37.2753 20.8921L40.9713 20.8838L40.9619 17.1878L41.7299 17.1861L41.7393 20.8821L45.4353 20.8737L45.4373 21.6417L41.7413 21.6501L41.7507 25.346L40.9827 25.3478L40.9733 21.6518L37.2773 21.6601L37.2753 20.8921ZM52.1443 24.2026C52.348 24.5968 52.6474 24.9002 53.0426 25.1126C53.4378 25.3144 53.854 25.4148 54.2914 25.4138C54.494 25.4133 54.6966 25.3809 54.8991 25.3164C55.1016 25.252 55.2827 25.1609 55.4424 25.0432C55.6021 24.9255 55.7298 24.7866 55.8254 24.6263C55.9316 24.4554 55.9845 24.2633 55.9839 24.05C55.983 23.7087 55.8704 23.4529 55.646 23.2827C55.4322 23.1126 55.1652 22.9798 54.8449 22.8845C54.5247 22.7893 54.1725 22.7101 53.7883 22.6469C53.4042 22.5731 53.0519 22.4673 52.7315 22.3293C52.4112 22.1807 52.1386 21.9786 51.914 21.7231C51.7 21.4676 51.5924 21.1052 51.5912 20.6359C51.5903 20.2732 51.6642 19.9584 51.8128 19.6914C51.9615 19.4244 52.1529 19.2053 52.3872 19.0341C52.632 18.8522 52.9037 18.7182 53.2021 18.6322C53.5006 18.5462 53.8045 18.5029 54.1138 18.5022C54.7218 18.5008 55.2448 18.6116 55.6827 18.8347C56.1312 19.0576 56.4788 19.4089 56.7253 19.8883L55.8626 20.4023C55.6805 20.0613 55.4505 19.8058 55.1727 19.6358C54.9056 19.4551 54.5533 19.3652 54.116 19.3662C53.9453 19.3666 53.7641 19.3936 53.5722 19.4474C53.391 19.5011 53.2259 19.5762 53.0768 19.6725C52.9277 19.7689 52.8 19.8918 52.6937 20.0414C52.5981 20.1909 52.5505 20.3617 52.551 20.5537C52.5519 20.8844 52.6592 21.1295 52.8729 21.289C53.0973 21.4485 53.3696 21.5759 53.6899 21.6711C54.0101 21.7558 54.3623 21.8296 54.7464 21.8928C55.1306 21.9559 55.4829 22.0618 55.8032 22.2104C56.1236 22.3483 56.3908 22.5557 56.6048 22.8326C56.8295 23.0987 56.9425 23.4825 56.9437 23.9838C56.9447 24.3678 56.8709 24.704 56.7223 24.9923C56.5843 25.27 56.3876 25.5051 56.1321 25.6977C55.8872 25.8902 55.6049 26.0348 55.2852 26.1316C54.9654 26.2283 54.6296 26.277 54.2776 26.2778C53.6376 26.2793 53.0506 26.1579 52.5166 25.9138C51.9933 25.6696 51.5871 25.2919 51.2978 24.7805L52.1443 24.2026ZM59.0868 18.683L60.0468 18.6808L60.0656 26.0728L59.1056 26.075L59.0868 18.683ZM58.8394 15.7555C58.8388 15.5529 58.9077 15.382 59.0461 15.2431C59.1844 15.1041 59.3549 15.0344 59.5575 15.0339C59.7602 15.0335 59.931 15.1024 60.0701 15.2408C60.2091 15.3791 60.2788 15.5496 60.2794 15.7523C60.2799 15.955 60.211 16.1258 60.0727 16.2648C59.9343 16.4037 59.7639 16.4735 59.5612 16.4739C59.3585 16.4744 59.1877 16.4054 59.0487 16.2671C58.9096 16.1287 58.8399 15.9582 58.8394 15.7555ZM62.7758 20.7547C62.7755 20.616 62.7697 20.4507 62.7586 20.2587C62.7474 20.0561 62.7362 19.8534 62.725 19.6508C62.7245 19.4481 62.7187 19.2615 62.7076 19.0908C62.6965 18.9095 62.6908 18.7709 62.6905 18.6749L63.6505 18.6727C63.6619 18.95 63.6679 19.2167 63.6686 19.4727C63.6799 19.7286 63.6963 19.8939 63.7178 19.9686L63.7658 19.9685C63.9568 19.5627 64.2759 19.2153 64.7232 18.9263C65.1704 18.6266 65.6927 18.4761 66.29 18.4748C66.866 18.4735 67.3356 18.5631 67.6987 18.7436C68.0619 18.9241 68.3451 19.1635 68.5486 19.4617C68.7626 19.7492 68.9075 20.0849 68.9831 20.4687C69.0694 20.8525 69.1131 21.2471 69.1141 21.6524L69.1253 26.0524L68.1653 26.0546L68.1542 21.7026C68.1535 21.4039 68.1261 21.116 68.072 20.8388C68.018 20.5509 67.9213 20.2951 67.7821 20.0714C67.6535 19.8477 67.4664 19.6721 67.2208 19.5447C66.9857 19.4065 66.6762 19.3379 66.2922 19.3388C65.9402 19.3396 65.6044 19.4043 65.2847 19.533C64.9757 19.6511 64.7042 19.8383 64.4701 20.0949C64.2468 20.3407 64.0662 20.6558 63.9285 21.0401C63.8015 21.4137 63.7386 21.8565 63.7399 22.3685L63.7493 26.0645L62.7893 26.0667L62.7758 20.7547ZM72.0899 23.6777C72.3046 24.2212 72.5937 24.6419 72.9571 24.9398C73.3312 25.2269 73.8382 25.3698 74.4782 25.3683C74.8942 25.3674 75.262 25.3026 75.5817 25.1739C75.9014 25.0451 76.1623 24.8686 76.3644 24.6441C76.5771 24.4196 76.7365 24.1579 76.8424 23.859C76.9483 23.5601 77.0008 23.24 76.9999 22.8987C76.9989 22.4827 76.9073 22.1255 76.7252 21.8273C76.5538 21.529 76.3238 21.2895 76.0354 21.1088C75.7576 20.9175 75.4372 20.7795 75.0743 20.695C74.7221 20.6105 74.3647 20.5686 74.002 20.5694L73.586 20.5703L73.5836 19.6103L74.0636 19.6093C74.3622 19.6086 74.6608 19.5706 74.9593 19.4952C75.2684 19.4092 75.5401 19.2806 75.7743 19.1094C76.0192 18.9382 76.216 18.7191 76.3646 18.4521C76.5133 18.1744 76.5871 17.8436 76.5861 17.4596C76.5846 16.8516 76.3913 16.356 76.0063 15.9729C75.632 15.5791 75.1248 15.3829 74.4848 15.3843C74.0155 15.3854 73.5945 15.509 73.2218 15.7552C72.849 15.9907 72.5565 16.3113 72.3442 16.7171L71.4309 16.2072C71.7388 15.6198 72.159 15.1922 72.6917 14.9243C73.235 14.6565 73.832 14.5218 74.4826 14.5203C74.9093 14.5193 75.3148 14.5824 75.6991 14.7096C76.0834 14.826 76.4199 15.0066 76.7085 15.2513C76.9971 15.4853 77.2219 15.7835 77.3828 16.1458C77.5544 16.5081 77.6408 16.9345 77.642 17.4252C77.6436 18.0439 77.4743 18.5936 77.1342 19.0743C76.7941 19.5444 76.2936 19.8709 75.6327 20.0537L75.6328 20.0857C75.9956 20.1489 76.3213 20.2708 76.6097 20.4515C76.9088 20.6215 77.1654 20.8343 77.3793 21.0898C77.5933 21.3453 77.7594 21.6329 77.8775 21.9527C77.9957 22.2724 78.0552 22.6136 78.0561 22.9763C78.0573 23.4243 77.9837 23.8458 77.8353 24.2408C77.6977 24.6358 77.4799 24.9829 77.182 25.2823C76.8947 25.5709 76.5326 25.8011 76.0957 25.9727C75.6588 26.1444 75.147 26.2308 74.5604 26.2322C73.7071 26.2341 72.9813 26.0597 72.383 25.7091C71.7955 25.3477 71.3514 24.7834 71.0507 24.0161L72.0899 23.6777ZM79.114 20.3659C79.113 19.9606 79.1279 19.5339 79.1588 19.0858C79.2003 18.627 79.2685 18.1842 79.3634 17.7573C79.4689 17.3198 79.6066 16.9088 79.7763 16.5244C79.9566 16.1293 80.185 15.7821 80.4616 15.4828C80.7382 15.1836 81.0683 14.9481 81.4518 14.7766C81.846 14.5944 82.3098 14.5027 82.8431 14.5015C83.3765 14.5003 83.8354 14.5899 84.2198 14.7704C84.6149 14.9402 84.9515 15.1741 85.2296 15.4721C85.5077 15.7702 85.7326 16.1163 85.9042 16.5106C86.0865 16.8942 86.2263 17.3045 86.3234 17.7417C86.4311 18.1681 86.5016 18.6106 86.5347 19.0692C86.5785 19.5171 86.601 19.9437 86.602 20.349C86.603 20.765 86.5828 21.1971 86.5413 21.6452C86.5104 22.0932 86.4422 22.5361 86.3366 22.9736C86.2417 23.4005 86.1041 23.8115 85.9238 24.2066C85.7541 24.591 85.531 24.9328 85.2544 25.2321C84.9778 25.5314 84.6424 25.7721 84.2482 25.9543C83.8646 26.1259 83.4062 26.2122 82.8729 26.2134C82.3395 26.2146 81.8753 26.1304 81.4802 25.9606C81.0958 25.7801 80.7645 25.5409 80.4864 25.2428C80.2083 24.9448 79.9781 24.604 79.7958 24.2204C79.6241 23.8261 79.4844 23.4157 79.3767 22.9893C79.2796 22.5522 79.2091 22.1097 79.1653 21.6618C79.1322 21.2139 79.1151 20.7819 79.114 20.3659ZM80.17 20.3635C80.1708 20.6622 80.1823 20.9928 80.2045 21.3554C80.2267 21.7074 80.2703 22.07 80.3353 22.4431C80.4002 22.8057 80.4918 23.1628 80.61 23.5145C80.7389 23.8662 80.8997 24.1805 81.0924 24.4574C81.2957 24.7237 81.5416 24.9418 81.8301 25.1118C82.1185 25.2711 82.4653 25.3504 82.8707 25.3494C83.2653 25.3486 83.6065 25.2678 83.8941 25.1071C84.1923 24.9358 84.4371 24.7166 84.6284 24.4495C84.8304 24.1717 84.9896 23.8567 85.106 23.5044C85.2331 23.1521 85.3282 22.7946 85.3913 22.4318C85.4543 22.0583 85.4961 21.6955 85.5165 21.3435C85.5369 20.9808 85.5467 20.6501 85.546 20.3514C85.5453 20.0634 85.5338 19.7381 85.5115 19.3755C85.4893 19.0129 85.4457 18.6503 85.3807 18.2878C85.3158 17.9146 85.2189 17.5521 85.09 17.2004C84.9718 16.8487 84.811 16.5397 84.6076 16.2735C84.4149 15.9966 84.169 15.7785 83.87 15.6192C83.5815 15.4492 83.24 15.3646 82.8453 15.3655C82.4507 15.3664 82.1042 15.4525 81.806 15.6238C81.5184 15.7845 81.2736 16.0037 81.0716 16.2815C80.8803 16.5486 80.7211 16.8583 80.594 17.2106C80.4776 17.5628 80.3878 17.9257 80.3248 18.2992C80.2617 18.662 80.2199 19.0247 80.1995 19.3874C80.1791 19.7502 80.1693 20.0755 80.17 20.3635Z" fill="#646f79"/>
<line x1="27.002" y1="21.6673" x2="33.1787" y2="21.7027" stroke="#646f79" stroke-width="0.7"/>
</svg>
