<svg width="691" height="418" viewBox="0 0 691 418" fill="none" xmlns="http://www.w3.org/2000/svg">
<g filter="url(#filter0_d)">
<path d="M646.081 83.6105L650.11 372.635H40.8846V36.8844H540.303H586.443C602.76 41.4443 613.992 46.4419 622.981 53.6304C631.958 60.8104 638.729 70.2017 646.081 83.6105Z" stroke="#DBDBDB" stroke-width="0.84148"/>
<path d="M247.586 64.5668H253.022V66.3508H247.586V71.5006H245.667V59.2318H253.493V61.0158H247.586V64.5668ZM254.439 67.31C254.439 66.5022 254.641 65.7617 255.045 65.0885C255.471 64.3929 256.01 63.8712 256.661 63.5234C257.334 63.1531 258.074 62.968 258.882 62.968C259.667 62.968 260.397 63.1531 261.07 63.5234C261.743 63.8936 262.282 64.4097 262.686 65.0717C263.078 65.7561 263.275 66.491 263.275 67.2764C263.297 68.4769 262.865 69.5147 261.979 70.3899C261.104 71.2538 260.066 71.6745 258.865 71.6521C258.091 71.6521 257.356 71.4613 256.661 71.0799C256.01 70.7321 255.471 70.2103 255.045 69.5147C254.641 68.8415 254.439 68.1066 254.439 67.31ZM256.358 67.2764C256.358 68.0057 256.593 68.634 257.065 69.1613C257.536 69.6886 258.142 69.9523 258.882 69.9523C259.611 69.9523 260.212 69.6942 260.683 69.1781C261.143 68.662 261.373 68.0393 261.373 67.31C261.373 66.5583 261.137 65.93 260.666 65.4251C260.217 64.909 259.617 64.651 258.865 64.651C258.125 64.651 257.519 64.9034 257.048 65.4083C256.588 65.902 256.358 66.5247 256.358 67.2764ZM269.779 63.1026V65.0212C269.633 64.9876 269.459 64.9707 269.257 64.9707C268.55 64.9707 268.006 65.1671 267.625 65.5598C267.254 65.9525 267.069 66.5134 267.069 67.2427V71.5006H265.201V63.1363H267.036V64.4322C267.271 63.9946 267.591 63.658 267.995 63.4224C268.41 63.1868 268.853 63.069 269.324 63.069C269.448 63.069 269.599 63.0802 269.779 63.1026ZM274.757 71.6521C273.545 71.6745 272.507 71.2594 271.643 70.4067C270.791 69.5428 270.376 68.5049 270.398 67.2932C270.398 66.5078 270.589 65.7842 270.97 65.1222C271.34 64.4602 271.868 63.9329 272.552 63.5402C273.214 63.1587 273.955 62.968 274.774 62.968C275.772 62.968 276.619 63.2317 277.315 63.759C278.011 64.2751 278.454 64.909 278.645 65.6607L276.962 66.2161C276.861 65.8571 276.647 65.5149 276.322 65.1895C275.941 64.8305 275.424 64.651 274.774 64.651C274.089 64.651 273.506 64.8922 273.023 65.3746C272.552 65.8683 272.317 66.5022 272.317 67.2764C272.317 68.0393 272.547 68.6788 273.007 69.195C273.478 69.6998 274.072 69.9523 274.791 69.9523C275.856 69.9523 276.591 69.4194 276.995 68.3535L278.695 68.9089C278.504 69.5933 278.089 70.2047 277.45 70.7433C276.754 71.3491 275.856 71.6521 274.757 71.6521ZM288.21 67.8654H281.849C281.86 68.4713 282.118 68.993 282.623 69.4306C283.128 69.8569 283.689 70.0645 284.306 70.0533C285.473 70.0533 286.213 69.582 286.527 68.6396L288.092 69.1276C287.947 69.6325 287.677 70.0813 287.285 70.474C286.903 70.8667 286.454 71.164 285.938 71.366C285.4 71.5567 284.861 71.6521 284.323 71.6521C283.111 71.6745 282.073 71.2594 281.209 70.4067C280.345 69.554 279.924 68.5218 279.947 67.31C279.947 66.5247 280.126 65.801 280.485 65.139C280.856 64.4546 281.361 63.9273 282 63.557C282.651 63.1644 283.369 62.968 284.154 62.968C285.433 62.968 286.432 63.3663 287.15 64.1629C287.879 64.9595 288.244 66.0029 288.244 67.2932C288.244 67.4503 288.233 67.641 288.21 67.8654ZM284.171 64.5668C283.576 64.5668 283.083 64.7407 282.69 65.0885C282.275 65.4251 282.028 65.8795 281.95 66.4517H286.342C286.308 65.8907 286.09 65.4307 285.686 65.0717C285.259 64.7351 284.754 64.5668 284.171 64.5668ZM292.876 71.6521C291.631 71.6409 290.716 71.2482 290.133 70.474C289.796 70.0364 289.611 69.6157 289.577 69.2118L291.176 68.791C291.266 69.195 291.457 69.5203 291.748 69.7672C292.04 70.0028 292.41 70.1206 292.859 70.1206C293.229 70.1206 293.516 70.0364 293.718 69.8681C293.931 69.6886 294.037 69.4474 294.037 69.1445C294.037 68.6845 293.706 68.3759 293.044 68.2188L291.984 67.9664C291.266 67.7981 290.716 67.5064 290.335 67.0913C289.953 66.6649 289.763 66.16 289.763 65.5766C289.763 64.8585 290.049 64.2414 290.621 63.7253C291.193 63.2092 291.894 62.9512 292.725 62.9512C293.903 62.9624 294.761 63.3326 295.3 64.0619C295.58 64.4322 295.748 64.808 295.804 65.1895L294.239 65.6271C294.161 65.2793 293.992 64.9988 293.734 64.7856C293.488 64.5724 293.151 64.4658 292.725 64.4658C292.41 64.4658 292.141 64.5556 291.917 64.7351C291.692 64.8922 291.58 65.1166 291.58 65.4083C291.58 65.8795 291.861 66.1712 292.422 66.2834L293.566 66.5191C294.318 66.6873 294.901 66.9959 295.316 67.4447C295.731 67.9159 295.939 68.4488 295.939 69.0435C295.939 69.7503 295.67 70.3618 295.131 70.8779C294.604 71.394 293.852 71.6521 292.876 71.6521ZM313.072 71.7531L311.574 70.4403C310.464 71.2482 309.213 71.6521 307.821 71.6521C306.98 71.6521 306.166 71.4894 305.381 71.164C304.618 70.8611 303.95 70.4347 303.378 69.885C302.828 69.3352 302.385 68.6676 302.049 67.8822C301.723 67.1081 301.561 66.2778 301.561 65.3915C301.561 64.5051 301.729 63.6748 302.066 62.9007C302.38 62.1153 302.828 61.4421 303.412 60.8811C303.962 60.3202 304.635 59.877 305.431 59.5516C306.183 59.215 306.997 59.0467 307.872 59.0467C308.724 59.0467 309.538 59.2094 310.312 59.5348C311.097 59.8601 311.765 60.2977 312.315 60.8475C312.876 61.4085 313.325 62.076 313.661 62.8502C313.986 63.658 314.149 64.4883 314.149 65.341C314.149 66.7771 313.728 68.0505 312.887 69.1613L314.284 70.3562L313.072 71.7531ZM303.58 65.3578C303.58 66.1768 303.765 66.9286 304.136 67.613C304.495 68.2862 305.011 68.8303 305.684 69.2454C306.335 69.6494 307.058 69.8513 307.855 69.8513C308.674 69.8513 309.431 69.6325 310.127 69.195L307.855 67.2427L309.083 65.829L311.406 67.8822C311.888 67.1305 312.13 66.289 312.13 65.3578C312.13 64.5388 311.945 63.7814 311.574 63.0858C311.193 62.4014 310.671 61.8573 310.009 61.4533C309.347 61.0494 308.629 60.8475 307.855 60.8475C306.677 60.825 305.661 61.2626 304.809 62.1602C303.967 63.0578 303.558 64.1236 303.58 65.3578ZM317.967 63.1363V67.8149C317.967 68.4657 318.124 68.9762 318.438 69.3464C318.752 69.7167 319.207 69.9018 319.801 69.9018C320.396 69.9018 320.867 69.7111 321.215 69.3296C321.563 68.9481 321.737 68.4376 321.737 67.7981V63.1363H323.605V71.5006H321.787V70.373C321.529 70.7208 321.237 70.9901 320.912 71.1808C320.62 71.3716 320.317 71.5062 320.003 71.5848C319.79 71.6409 319.532 71.6689 319.229 71.6689C318.567 71.6689 317.995 71.523 317.512 71.2313C317.03 70.9284 316.671 70.5189 316.435 70.0028C316.211 69.5203 316.099 68.9481 316.099 68.2862V63.1363H317.967ZM327.019 61.6553C326.694 61.6553 326.407 61.5319 326.161 61.285C325.914 61.0382 325.79 60.7521 325.79 60.4267C325.79 60.0901 325.914 59.7984 326.161 59.5516C326.396 59.3048 326.682 59.1813 327.019 59.1813C327.367 59.1813 327.658 59.3048 327.894 59.5516C328.13 59.7872 328.248 60.0789 328.248 60.4267C328.248 60.7633 328.13 61.0494 327.894 61.285C327.647 61.5319 327.356 61.6553 327.019 61.6553ZM326.093 71.5006V63.1363H327.961V71.5006H326.093ZM334.42 64.7688H329.994V63.1363H336.76V64.6173L332.148 69.885H336.777V71.5006H329.876V69.9523L334.42 64.7688ZM343.821 68.6228L342.677 71.5006H340.708L345.706 59.2318H347.978L352.943 71.5006H350.94L349.813 68.6228H343.821ZM344.495 66.9061H349.156L346.817 61.0831L344.495 66.9061ZM359.869 71.5006V66.822C359.869 66.1712 359.712 65.6607 359.397 65.2905C359.083 64.9202 358.623 64.7351 358.017 64.7351C357.423 64.7351 356.951 64.9258 356.604 65.3073C356.256 65.6888 356.082 66.1993 356.082 66.8388V71.5006H354.214V63.1363H356.031V64.2639C356.278 63.9385 356.576 63.6692 356.923 63.4561C357.271 63.2541 357.569 63.1195 357.815 63.0522C358.096 62.9961 358.354 62.968 358.59 62.968C359.622 62.968 360.402 63.2822 360.929 63.9105C361.456 64.5163 361.72 65.3298 361.72 66.3508V71.5006H359.869ZM366.851 71.6521C365.605 71.6409 364.691 71.2482 364.107 70.474C363.771 70.0364 363.586 69.6157 363.552 69.2118L365.151 68.791C365.241 69.195 365.431 69.5203 365.723 69.7672C366.015 70.0028 366.385 70.1206 366.834 70.1206C367.204 70.1206 367.49 70.0364 367.692 69.8681C367.905 69.6886 368.012 69.4474 368.012 69.1445C368.012 68.6845 367.681 68.3759 367.019 68.2188L365.959 67.9664C365.241 67.7981 364.691 67.5064 364.309 67.0913C363.928 66.6649 363.737 66.16 363.737 65.5766C363.737 64.8585 364.023 64.2414 364.595 63.7253C365.168 63.2092 365.869 62.9512 366.699 62.9512C367.877 62.9624 368.736 63.3326 369.274 64.0619C369.555 64.4322 369.723 64.808 369.779 65.1895L368.214 65.6271C368.135 65.2793 367.967 64.9988 367.709 64.7856C367.462 64.5724 367.126 64.4658 366.699 64.4658C366.385 64.4658 366.116 64.5556 365.891 64.7351C365.667 64.8922 365.555 65.1166 365.555 65.4083C365.555 65.8795 365.835 66.1712 366.396 66.2834L367.541 66.5191C368.292 66.6873 368.876 66.9959 369.291 67.4447C369.706 67.9159 369.914 68.4488 369.914 69.0435C369.914 69.7503 369.644 70.3618 369.106 70.8779C368.578 71.394 367.827 71.6521 366.851 71.6521ZM379.838 69.0603H379.855L381.622 63.1363H383.541L380.848 71.5006H378.929L376.994 65.6271H376.96L375.008 71.5006H373.106L370.43 63.1363H372.366L374.133 69.0435H374.15L376.052 63.1363H377.92L379.838 69.0603ZM392.409 67.8654H386.047C386.059 68.4713 386.317 68.993 386.822 69.4306C387.326 69.8569 387.887 70.0645 388.505 70.0533C389.671 70.0533 390.412 69.582 390.726 68.6396L392.291 69.1276C392.145 69.6325 391.876 70.0813 391.483 70.474C391.102 70.8667 390.653 71.164 390.137 71.366C389.598 71.5567 389.06 71.6521 388.521 71.6521C387.31 71.6745 386.272 71.2594 385.408 70.4067C384.544 69.554 384.123 68.5218 384.146 67.31C384.146 66.5247 384.325 65.801 384.684 65.139C385.054 64.4546 385.559 63.9273 386.199 63.557C386.85 63.1644 387.568 62.968 388.353 62.968C389.632 62.968 390.631 63.3663 391.349 64.1629C392.078 64.9595 392.443 66.0029 392.443 67.2932C392.443 67.4503 392.431 67.641 392.409 67.8654ZM388.37 64.5668C387.775 64.5668 387.282 64.7407 386.889 65.0885C386.474 65.4251 386.227 65.8795 386.148 66.4517H390.541C390.507 65.8907 390.288 65.4307 389.885 65.0717C389.458 64.7351 388.953 64.5668 388.37 64.5668ZM398.926 63.1026V65.0212C398.78 64.9876 398.606 64.9707 398.404 64.9707C397.698 64.9707 397.153 65.1671 396.772 65.5598C396.402 65.9525 396.217 66.5134 396.217 67.2427V71.5006H394.348V63.1363H396.183V64.4322C396.419 63.9946 396.738 63.658 397.142 63.4224C397.557 63.1868 398.001 63.069 398.472 63.069C398.595 63.069 398.747 63.0802 398.926 63.1026ZM407.655 71.6352C406.264 71.6352 405.17 71.2538 404.373 70.4908C403.622 69.784 403.201 68.9706 403.111 68.0505L404.979 67.5457C405.114 68.2749 405.417 68.8471 405.888 69.2623C406.37 69.6886 406.971 69.9018 407.689 69.9018C408.295 69.9018 408.822 69.7391 409.271 69.4137C409.697 69.0884 409.91 68.6788 409.91 68.1852C409.91 67.714 409.748 67.3269 409.422 67.0239C409.097 66.721 408.654 66.5078 408.093 66.3844L406.578 66.0815C405.602 65.8795 404.845 65.4756 404.306 64.8698C403.756 64.2751 403.481 63.5683 403.481 62.7492C403.459 61.7619 403.857 60.8924 404.676 60.1406C405.495 59.3889 406.443 59.0243 407.52 59.0467C409.069 59.0579 410.202 59.5236 410.92 60.4436C411.324 60.9148 411.588 61.459 411.711 62.076L409.91 62.6314C409.787 62.149 409.518 61.7226 409.102 61.3524C408.687 60.9821 408.177 60.797 407.571 60.797C406.965 60.797 406.466 60.9709 406.073 61.3187C405.658 61.6665 405.45 62.0816 405.45 62.5641C405.45 62.9343 405.591 63.2765 405.871 63.5907C406.163 63.8936 406.539 64.0956 406.999 64.1966L408.547 64.4995C409.624 64.7127 410.449 65.1278 411.021 65.7449C411.604 66.362 411.896 67.1305 411.896 68.0505C411.896 68.9818 411.531 69.8008 410.802 70.5077C410.017 71.2594 408.968 71.6352 407.655 71.6352ZM419.561 71.5006V66.822C419.561 66.1712 419.404 65.6607 419.09 65.2905C418.776 64.9202 418.316 64.7351 417.71 64.7351C417.115 64.7351 416.644 64.9258 416.296 65.3073C415.948 65.6888 415.774 66.1993 415.774 66.8388V71.5006H413.906V58.7438H415.774V64.1966C416.021 63.8824 416.307 63.6244 416.633 63.4224C417.003 63.2205 417.3 63.097 417.525 63.0522C417.805 62.9961 418.058 62.968 418.282 62.968C419.314 62.968 420.094 63.2822 420.621 63.9105C421.149 64.5163 421.412 65.3298 421.412 66.3508V71.5006H419.561ZM431.525 67.8654H425.163C425.174 68.4713 425.432 68.993 425.937 69.4306C426.442 69.8569 427.003 70.0645 427.62 70.0533C428.787 70.0533 429.528 69.582 429.842 68.6396L431.407 69.1276C431.261 69.6325 430.992 70.0813 430.599 70.474C430.218 70.8667 429.769 71.164 429.253 71.366C428.714 71.5567 428.176 71.6521 427.637 71.6521C426.425 71.6745 425.387 71.2594 424.524 70.4067C423.66 69.554 423.239 68.5218 423.261 67.31C423.261 66.5247 423.441 65.801 423.8 65.139C424.17 64.4546 424.675 63.9273 425.315 63.557C425.965 63.1644 426.683 62.968 427.469 62.968C428.748 62.968 429.746 63.3663 430.464 64.1629C431.194 64.9595 431.558 66.0029 431.558 67.2932C431.558 67.4503 431.547 67.641 431.525 67.8654ZM427.486 64.5668C426.891 64.5668 426.397 64.7407 426.005 65.0885C425.589 65.4251 425.343 65.8795 425.264 66.4517H429.657C429.623 65.8907 429.404 65.4307 429 65.0717C428.574 64.7351 428.069 64.5668 427.486 64.5668ZM441.172 67.8654H434.811C434.822 68.4713 435.08 68.993 435.585 69.4306C436.09 69.8569 436.651 70.0645 437.268 70.0533C438.434 70.0533 439.175 69.582 439.489 68.6396L441.054 69.1276C440.908 69.6325 440.639 70.0813 440.246 70.474C439.865 70.8667 439.416 71.164 438.9 71.366C438.362 71.5567 437.823 71.6521 437.284 71.6521C436.073 71.6745 435.035 71.2594 434.171 70.4067C433.307 69.554 432.886 68.5218 432.909 67.31C432.909 66.5247 433.088 65.801 433.447 65.139C433.818 64.4546 434.322 63.9273 434.962 63.557C435.613 63.1644 436.331 62.968 437.116 62.968C438.395 62.968 439.394 63.3663 440.112 64.1629C440.841 64.9595 441.206 66.0029 441.206 67.2932C441.206 67.4503 441.195 67.641 441.172 67.8654ZM437.133 64.5668C436.538 64.5668 436.045 64.7407 435.652 65.0885C435.237 65.4251 434.99 65.8795 434.912 66.4517H439.304C439.27 65.8907 439.052 65.4307 438.648 65.0717C438.221 64.7351 437.716 64.5668 437.133 64.5668ZM447.446 63.1363V64.8193H445.326V68.8079C445.326 69.1781 445.427 69.453 445.629 69.6325C445.831 69.8008 446.156 69.885 446.605 69.885C446.829 69.885 447.082 69.8625 447.362 69.8177V71.4165C446.947 71.5287 446.504 71.5848 446.033 71.5848C445.169 71.5848 444.524 71.3828 444.097 70.9789C443.671 70.575 443.458 69.885 443.458 68.9089V64.8193H441.842V63.1363H443.458V60.5445H445.326V63.1363H447.446Z" fill="#231F20"/>
<path d="M67.7983 86.8312C67.7983 87.593 67.5313 88.2331 66.9972 88.7515C66.4396 89.2934 65.6503 89.5643 64.6293 89.5643H63.0978V92.7451H61.7548V84.157H64.7942C66.0037 84.157 66.8598 84.5418 67.3624 85.3115C67.653 85.7592 67.7983 86.2657 67.7983 86.8312ZM66.4317 86.8548C66.4317 86.4621 66.2982 86.1244 66.0312 85.8416C65.7642 85.551 65.3126 85.4057 64.6764 85.4057H63.0978V88.3273H64.6764C65.3047 88.3273 65.7602 88.1663 66.043 87.8443C66.3021 87.5459 66.4317 87.216 66.4317 86.8548ZM72.9673 92.7451V89.4701C72.9673 89.0146 72.8573 88.6572 72.6374 88.398C72.4175 88.1389 72.0955 88.0093 71.6714 88.0093C71.2551 88.0093 70.9253 88.1428 70.6818 88.4098C70.4383 88.6768 70.3166 89.0342 70.3166 89.4819V92.7451H69.0089V83.8153H70.3166V87.6323C70.4894 87.4124 70.6897 87.2317 70.9174 87.0904C71.1766 86.949 71.3847 86.8626 71.5418 86.8312C71.7381 86.7919 71.9149 86.7723 72.0719 86.7723C72.7945 86.7723 73.3403 86.9922 73.7094 87.432C74.0786 87.8561 74.2631 88.4255 74.2631 89.1402V92.7451H72.9673ZM77.383 92.0854L74.7795 86.8901H76.2638L78.0898 90.7306L79.7745 86.8901H81.1882L77.171 95.6314H75.7808L77.383 92.0854ZM83.6645 92.8511C82.7927 92.8433 82.1527 92.5684 81.7443 92.0265C81.5086 91.7202 81.3791 91.4257 81.3555 91.1429L82.4747 90.8484C82.5375 91.1312 82.671 91.3589 82.8752 91.5317C83.0794 91.6966 83.3386 91.7791 83.6527 91.7791C83.9119 91.7791 84.1122 91.7202 84.2536 91.6024C84.4028 91.4767 84.4774 91.3079 84.4774 91.0958C84.4774 90.7738 84.2457 90.5578 83.7823 90.4479L83.0401 90.2712C82.5375 90.1534 82.1527 89.9492 81.8856 89.6586C81.6186 89.3601 81.4851 89.0067 81.4851 88.5983C81.4851 88.0957 81.6854 87.6637 82.0859 87.3024C82.4864 86.9412 82.9773 86.7605 83.5585 86.7605C84.3831 86.7684 84.984 87.0275 85.3609 87.538C85.5573 87.7972 85.6751 88.0603 85.7144 88.3273L84.6188 88.6336C84.5638 88.3902 84.446 88.1938 84.2653 88.0446C84.0926 87.8954 83.8569 87.8208 83.5585 87.8208C83.3386 87.8208 83.1501 87.8836 82.993 88.0093C82.8359 88.1192 82.7574 88.2763 82.7574 88.4805C82.7574 88.8104 82.9538 89.0146 83.3464 89.0931L84.1475 89.258C84.6737 89.3758 85.0821 89.5918 85.3727 89.906C85.6633 90.2358 85.8086 90.6089 85.8086 91.0251C85.8086 91.5199 85.6201 91.948 85.2431 92.3092C84.874 92.6705 84.3478 92.8511 83.6645 92.8511ZM87.8342 85.8534C87.6064 85.8534 87.4061 85.767 87.2333 85.5942C87.0606 85.4214 86.9742 85.2212 86.9742 84.9934C86.9742 84.7578 87.0606 84.5536 87.2333 84.3808C87.3983 84.208 87.5985 84.1216 87.8342 84.1216C88.0776 84.1216 88.2818 84.208 88.4468 84.3808C88.6117 84.5457 88.6941 84.7499 88.6941 84.9934C88.6941 85.229 88.6117 85.4293 88.4468 85.5942C88.274 85.767 88.0698 85.8534 87.8342 85.8534ZM87.1862 92.7451V86.8901H88.4939V92.7451H87.1862ZM92.8974 92.8511C92.0492 92.8669 91.3227 92.5763 90.7179 91.9794C90.1211 91.3746 89.8305 90.6482 89.8462 89.7999C89.8462 89.2502 89.9797 88.7436 90.2467 88.2802C90.5059 87.8169 90.875 87.4477 91.3541 87.1728C91.8175 86.9058 92.3358 86.7723 92.9092 86.7723C93.6081 86.7723 94.2011 86.9569 94.688 87.326C95.175 87.6873 95.4852 88.131 95.6187 88.6572L94.4407 89.046C94.37 88.7947 94.2207 88.5551 93.993 88.3273C93.726 88.076 93.3647 87.9504 92.9092 87.9504C92.4301 87.9504 92.0217 88.1192 91.684 88.4569C91.3541 88.8025 91.1892 89.2462 91.1892 89.7882C91.1892 90.3222 91.3502 90.7699 91.6722 91.1312C92.002 91.4846 92.4183 91.6613 92.9209 91.6613C93.6671 91.6613 94.1815 91.2882 94.4642 90.5421L95.6541 90.9309C95.5205 91.41 95.23 91.838 94.7823 92.215C94.2954 92.6391 93.6671 92.8511 92.8974 92.8511ZM98.8276 92.8511C97.9558 92.8433 97.3157 92.5684 96.9073 92.0265C96.6717 91.7202 96.5421 91.4257 96.5186 91.1429L97.6377 90.8484C97.7006 91.1312 97.8341 91.3589 98.0383 91.5317C98.2425 91.6966 98.5017 91.7791 98.8158 91.7791C99.075 91.7791 99.2753 91.7202 99.4166 91.6024C99.5658 91.4767 99.6405 91.3079 99.6405 91.0958C99.6405 90.7738 99.4088 90.5578 98.9454 90.4479L98.2032 90.2712C97.7006 90.1534 97.3157 89.9492 97.0487 89.6586C96.7817 89.3601 96.6482 89.0067 96.6482 88.5983C96.6482 88.0957 96.8484 87.6637 97.249 87.3024C97.6495 86.9412 98.1404 86.7605 98.7216 86.7605C99.5462 86.7684 100.147 87.0275 100.524 87.538C100.72 87.7972 100.838 88.0603 100.877 88.3273L99.7818 88.6336C99.7268 88.3902 99.609 88.1938 99.4284 88.0446C99.2556 87.8954 99.02 87.8208 98.7216 87.8208C98.5017 87.8208 98.3132 87.8836 98.1561 88.0093C97.999 88.1192 97.9205 88.2763 97.9205 88.4805C97.9205 88.8104 98.1168 89.0146 98.5095 89.0931L99.3106 89.258C99.8368 89.3758 100.245 89.5918 100.536 89.906C100.826 90.2358 100.972 90.6089 100.972 91.0251C100.972 91.5199 100.783 91.948 100.406 92.3092C100.037 92.6705 99.5109 92.8511 98.8276 92.8511ZM107.004 85.606L105.084 86.7605L104.459 85.7356L107.074 84.157H108.359V92.7451H107.004V85.606ZM112.066 85.606L110.146 86.7605L109.521 85.7356L112.136 84.157H113.421V92.7451H112.066V85.606Z" fill="#231F20"/>
<path d="M506.15 93.5864V84.9983H508.707C509.374 84.9983 509.987 85.1082 510.545 85.3281C511.102 85.5402 511.581 85.8386 511.982 86.2235C512.822 87.0403 513.242 88.0573 513.242 89.2747C513.242 89.903 513.124 90.4881 512.889 91.03C512.661 91.5484 512.339 92.0039 511.923 92.3966C511.051 93.1898 509.979 93.5864 508.707 93.5864H506.15ZM507.057 85.8465V92.7382H508.671C509.386 92.7382 510.018 92.589 510.568 92.2905C511.134 91.9921 511.562 91.5876 511.852 91.0771C512.158 90.5588 512.312 89.9658 512.312 89.2982C512.312 88.3087 511.982 87.484 511.322 86.8243C510.67 86.1724 509.787 85.8465 508.671 85.8465H507.057ZM516.705 90.2054H518.331V89.8166C518.331 88.8663 517.832 88.3911 516.835 88.3911C516.355 88.3911 515.986 88.5207 515.727 88.7799C515.492 89.0155 515.35 89.2825 515.303 89.581L514.478 89.4043C514.486 89.2393 514.565 89.0312 514.714 88.7799C514.863 88.5286 515.06 88.3047 515.303 88.1084C515.719 87.7864 516.238 87.6254 516.858 87.6254C517.926 87.6254 518.637 88.0299 518.99 88.8388C519.108 89.1137 519.167 89.4357 519.167 89.8048V91.4541C519.167 92.4123 519.199 93.1231 519.261 93.5864H518.413C518.358 93.288 518.331 92.9463 518.331 92.5615C517.836 93.3155 517.176 93.6925 516.352 93.6925C515.763 93.6925 515.291 93.5275 514.938 93.1977C514.569 92.8757 514.384 92.4633 514.384 91.9607V91.9018C514.384 91.3206 514.616 90.8926 515.079 90.6177C515.55 90.3428 516.092 90.2054 516.705 90.2054ZM518.331 91.1125V90.9122H516.693C516.332 90.9122 516.014 90.979 515.739 91.1125C515.409 91.2538 515.244 91.513 515.244 91.89C515.244 92.212 515.366 92.4673 515.609 92.6557C515.845 92.8442 516.143 92.9385 516.505 92.9385C517.015 92.9385 517.451 92.7657 517.812 92.4201C518.158 92.0903 518.331 91.6544 518.331 91.1125ZM522.955 93.6335C521.848 93.6335 521.294 93.1113 521.294 92.0667V88.4854H520.21V87.7314H521.294V86.0468H522.142V87.7314H523.627V88.4854H522.142V92.0549C522.142 92.6047 522.461 92.8796 523.097 92.8796C523.246 92.8796 523.423 92.8639 523.627 92.8325V93.5393C523.423 93.6021 523.199 93.6335 522.955 93.6335ZM529.977 90.924H525.241C525.273 91.4973 525.489 91.9725 525.889 92.3495C526.282 92.7343 526.765 92.9267 527.338 92.9267C527.786 92.9267 528.167 92.8207 528.481 92.6086C528.795 92.3887 529.019 92.0785 529.153 91.678L529.907 91.9136C529.742 92.4633 529.424 92.8992 528.952 93.2212C528.465 93.5354 527.931 93.6925 527.35 93.6925C526.8 93.6925 526.294 93.555 525.83 93.2801C525.367 93.0052 525.014 92.6361 524.77 92.1727C524.511 91.7172 524.381 91.2106 524.381 90.653C524.381 90.119 524.503 89.6242 524.747 89.1687C524.974 88.7053 525.316 88.3322 525.772 88.0495C526.211 87.7668 526.698 87.6254 527.232 87.6254C527.821 87.6254 528.324 87.7589 528.74 88.0259C529.164 88.2851 529.479 88.6425 529.683 89.098C529.887 89.5299 529.989 90.0444 529.989 90.6412C529.989 90.7433 529.985 90.8376 529.977 90.924ZM525.253 90.1936H529.129C529.074 89.6595 528.878 89.2197 528.54 88.8741C528.21 88.5443 527.774 88.3794 527.232 88.3794C526.738 88.3794 526.302 88.5561 525.925 88.9095C525.548 89.2786 525.324 89.7066 525.253 90.1936ZM531.561 88.9919C531.404 88.8349 531.325 88.6464 531.325 88.4265C531.325 88.2066 531.404 88.022 531.561 87.8728C531.718 87.7157 531.903 87.6372 532.115 87.6372C532.327 87.6372 532.511 87.7157 532.668 87.8728C532.825 88.0299 532.904 88.2144 532.904 88.4265C532.904 88.6307 532.825 88.8192 532.668 88.9919C532.519 89.1412 532.335 89.2158 532.115 89.2158C531.895 89.2158 531.71 89.1412 531.561 88.9919ZM531.561 93.4568C531.404 93.2998 531.325 93.1113 531.325 92.8914C531.325 92.6715 531.404 92.4869 531.561 92.3377C531.71 92.1884 531.895 92.1138 532.115 92.1138C532.335 92.1138 532.519 92.1884 532.668 92.3377C532.825 92.4947 532.904 92.6793 532.904 92.8914C532.904 93.0956 532.825 93.2841 532.668 93.4568C532.519 93.6061 532.335 93.6807 532.115 93.6807C531.895 93.6807 531.71 93.6061 531.561 93.4568Z" fill="#231F20"/>
<path d="M57.4384 218.967H56.5431V211.333L54.4696 212.558L54.0691 211.875L56.5666 210.379H57.4384V218.967ZM59.6109 218.837C59.4538 218.665 59.3753 218.476 59.3753 218.272C59.3753 218.06 59.4538 217.875 59.6109 217.718C59.7601 217.569 59.9447 217.494 60.1646 217.494C60.3845 217.494 60.5691 217.569 60.7183 217.718C60.8754 217.875 60.9539 218.06 60.9539 218.272C60.9539 218.476 60.8754 218.665 60.7183 218.837C60.5691 218.987 60.3845 219.061 60.1646 219.061C59.9447 219.061 59.7601 218.987 59.6109 218.837Z" fill="#231F20"/>
<path d="M60.3129 273.663H54.5168V273.392C54.5168 272.206 55.1804 271.201 56.5077 270.376L57.8036 269.575C58.0235 269.45 58.2238 269.316 58.4044 269.175C58.5065 269.096 58.6597 268.955 58.8639 268.751C59.1623 268.413 59.3115 268.008 59.3115 267.537C59.3115 267.089 59.1309 266.689 58.7696 266.335C58.4083 265.99 57.9607 265.817 57.4266 265.817C56.9946 265.817 56.6255 265.923 56.3192 266.135C56.0286 266.347 55.8087 266.606 55.6595 266.913C55.5653 267.164 55.5063 267.447 55.4828 267.761L54.5875 267.631C54.5875 267.254 54.6778 266.885 54.8584 266.524C55.0469 266.155 55.31 265.837 55.6477 265.57C56.1268 265.177 56.7276 264.981 57.4502 264.981C58.2355 264.981 58.9031 265.236 59.4529 265.746C59.9791 266.257 60.2422 266.846 60.2422 267.514C60.2422 268.079 60.093 268.566 59.7945 268.974C59.4882 269.391 59.0366 269.783 58.4397 270.152L57.085 271.001C56.1347 271.59 55.6438 272.202 55.6124 272.838H60.3129V273.663ZM61.9233 273.533C61.7663 273.361 61.6877 273.172 61.6877 272.968C61.6877 272.756 61.7663 272.571 61.9233 272.414C62.0726 272.265 62.2571 272.19 62.477 272.19C62.6969 272.19 62.8815 272.265 63.0307 272.414C63.1878 272.571 63.2663 272.756 63.2663 272.968C63.2663 273.172 63.1878 273.361 63.0307 273.533C62.8815 273.683 62.6969 273.757 62.477 273.757C62.2571 273.757 62.0726 273.683 61.9233 273.533Z" fill="#231F20"/>
<path d="M367.126 221.574C366.262 221.574 365.559 221.315 365.017 220.796C364.491 220.294 364.193 219.72 364.122 219.076L364.994 218.911C365.041 219.398 365.257 219.826 365.642 220.196C366.034 220.565 366.529 220.749 367.126 220.749C367.338 220.749 367.554 220.714 367.774 220.643C368.002 220.573 368.222 220.47 368.434 220.337C368.654 220.203 368.83 220.011 368.964 219.76C369.105 219.508 369.176 219.222 369.176 218.9C369.176 218.405 368.987 218.004 368.61 217.698C368.241 217.4 367.75 217.25 367.138 217.25C366.839 217.25 366.572 217.294 366.337 217.38L365.913 216.661L368.728 213.728H364.322V212.903H369.883V213.693L367.22 216.426C367.927 216.402 368.544 216.579 369.07 216.956C369.745 217.419 370.083 218.055 370.083 218.864C370.083 219.406 369.949 219.881 369.682 220.29C369.423 220.698 369.066 221.016 368.61 221.244C368.171 221.464 367.676 221.574 367.126 221.574ZM371.714 221.362C371.557 221.189 371.478 221.001 371.478 220.796C371.478 220.584 371.557 220.4 371.714 220.243C371.863 220.093 372.048 220.019 372.268 220.019C372.488 220.019 372.672 220.093 372.821 220.243C372.978 220.4 373.057 220.584 373.057 220.796C373.057 221.001 372.978 221.189 372.821 221.362C372.672 221.511 372.488 221.586 372.268 221.586C372.048 221.586 371.863 221.511 371.714 221.362Z" fill="#231F20"/>
<path d="M370.1 273.285V275.346H369.228V273.285H364.763V272.295L368.969 266.758H370.1V272.507H371.549V273.285H370.1ZM369.228 267.689L365.565 272.507H369.228V267.689ZM372.878 275.217C372.721 275.044 372.642 274.855 372.642 274.651C372.642 274.439 372.721 274.255 372.878 274.097C373.027 273.948 373.212 273.874 373.432 273.874C373.651 273.874 373.836 273.948 373.985 274.097C374.142 274.255 374.221 274.439 374.221 274.651C374.221 274.855 374.142 275.044 373.985 275.217C373.836 275.366 373.651 275.44 373.432 275.44C373.212 275.44 373.027 275.366 372.878 275.217Z" fill="#231F20"/>
<path d="M68.8989 120.043L66.9299 127.404H66.5058L63.3654 120.497L61.5175 127.404H61.1439L63.1028 120.043H63.5673L66.6875 126.899L68.5152 120.043H68.8989ZM73.4722 126.314L73.4924 126.223C73.2635 126.573 72.9539 126.866 72.5634 127.101C72.1528 127.357 71.7085 127.485 71.2305 127.485C70.6448 127.485 70.1635 127.286 69.7865 126.889C69.4028 126.499 69.211 125.997 69.211 125.385C69.2042 124.57 69.4701 123.853 70.0087 123.234C70.554 122.608 71.217 122.295 71.9979 122.295C72.6038 122.295 73.0885 122.466 73.452 122.81C73.7819 123.119 73.9939 123.49 74.0882 123.92L74.5022 122.386H74.8657L73.8559 126.233C73.7213 126.771 73.6573 127.162 73.6641 127.404H73.2904C73.2904 127.121 73.351 126.758 73.4722 126.314ZM72.0282 122.638C71.3281 122.638 70.7391 122.921 70.2611 123.486C69.8168 124.038 69.5947 124.654 69.5947 125.334C69.5947 125.852 69.7529 126.287 70.0693 126.637C70.3924 126.973 70.7997 127.142 71.2911 127.142C71.6344 127.142 71.9744 127.061 72.311 126.899C72.6408 126.738 72.9168 126.529 73.139 126.273C73.3679 126.031 73.553 125.748 73.6944 125.425C73.829 125.136 73.8963 124.836 73.8963 124.526C73.8963 123.968 73.728 123.517 73.3914 123.173C73.0414 122.816 72.587 122.638 72.0282 122.638ZM80.0031 124.597L79.2559 127.404H78.8923L79.6194 124.647C79.7069 124.297 79.7506 124.035 79.7506 123.86C79.7506 123.476 79.6429 123.177 79.4275 122.961C79.2121 122.746 78.9193 122.638 78.549 122.638C78.0912 122.638 77.6705 122.83 77.2868 123.214C76.9031 123.611 76.6405 124.069 76.4992 124.587L75.7519 127.404H75.3884L76.7011 122.386H77.0747L76.7718 123.557C76.994 123.2 77.2329 122.914 77.4887 122.699C77.8119 122.429 78.1956 122.295 78.6399 122.295C79.0707 122.295 79.4174 122.426 79.68 122.689C79.9425 122.971 80.0771 123.315 80.0839 123.718C80.2926 123.335 80.5551 123.008 80.8715 122.739C81.235 122.443 81.6558 122.295 82.1337 122.295C82.5713 122.295 82.9314 122.436 83.2142 122.719C83.4834 123.008 83.6181 123.379 83.6181 123.83C83.6181 124.052 83.5743 124.324 83.4868 124.647L82.7598 127.404H82.3963L83.1334 124.617C83.2007 124.355 83.2344 124.102 83.2344 123.86C83.2344 123.442 83.1199 123.136 82.891 122.941C82.6622 122.739 82.3828 122.638 82.0529 122.638C81.5952 122.638 81.1744 122.833 80.7907 123.224C80.407 123.621 80.1445 124.079 80.0031 124.597ZM89.4879 124.961H85.166C85.1526 125.068 85.1458 125.152 85.1458 125.213C85.1458 125.772 85.3175 126.233 85.6608 126.596C86.0042 126.96 86.4518 127.142 87.0038 127.142C87.8857 127.142 88.5555 126.721 89.0133 125.879L89.3162 126.051C88.7911 127.007 88.0102 127.485 86.9735 127.485C86.3205 127.485 85.7921 127.273 85.3882 126.849C84.9775 126.418 84.7722 125.876 84.7722 125.223C84.7722 124.846 84.8463 124.486 84.9944 124.143C85.129 123.806 85.3242 123.493 85.58 123.204C85.8157 122.934 86.1051 122.715 86.4485 122.547C86.785 122.379 87.1351 122.295 87.4986 122.295C88.1516 122.295 88.6565 122.483 89.0133 122.86C89.3633 123.251 89.5384 123.772 89.5384 124.425C89.5384 124.526 89.5215 124.705 89.4879 124.961ZM85.2064 124.627H89.1446C89.1513 124.56 89.1547 124.493 89.1547 124.425C89.1547 123.873 89.0133 123.436 88.7305 123.113C88.4343 122.796 88.0136 122.638 87.4683 122.638C87.1452 122.638 86.8187 122.729 86.4888 122.911C86.1724 123.092 85.8931 123.342 85.6507 123.658C85.4151 123.961 85.267 124.284 85.2064 124.627Z" fill="#231F20"/>
<path d="M119.644 230.277L120.926 237.638H120.543L120.179 235.538H115.928L114.433 237.638H113.999L119.23 230.277H119.644ZM120.129 235.184L119.361 230.691L116.18 235.184H120.129ZM125.31 232.528C125.821 232.528 126.222 232.673 126.511 232.963C126.794 233.252 126.935 233.632 126.935 234.104C126.935 234.319 126.895 234.578 126.814 234.881L126.087 237.638H125.724L126.461 234.851C126.521 234.629 126.552 234.386 126.552 234.124C126.552 233.727 126.437 233.42 126.208 233.205C125.986 232.983 125.656 232.872 125.219 232.872C124.579 232.872 124.017 233.175 123.532 233.781C123.29 234.084 123.118 234.427 123.017 234.811L122.27 237.638H121.907L123.219 232.619H123.593L123.28 233.791C123.509 233.42 123.792 233.121 124.128 232.892C124.472 232.65 124.865 232.528 125.31 232.528ZM130.196 232.528C130.735 232.528 131.145 232.673 131.428 232.963C131.711 233.245 131.872 233.555 131.913 233.892L131.569 233.983C131.529 233.713 131.398 233.464 131.176 233.235C130.96 233 130.63 232.882 130.186 232.882C129.688 232.882 129.311 233.037 129.055 233.346C128.914 233.508 128.843 233.703 128.843 233.932C128.843 234.154 128.931 234.333 129.106 234.467C129.233 234.575 129.412 234.679 129.641 234.78L130.327 235.063C131.028 235.366 131.378 235.77 131.378 236.275C131.378 236.746 131.196 237.109 130.832 237.365C130.476 237.608 130.072 237.729 129.621 237.729C128.988 237.729 128.517 237.54 128.207 237.163C127.931 236.84 127.793 236.483 127.793 236.093L128.156 236.012C128.143 236.329 128.247 236.628 128.469 236.911C128.718 237.221 129.106 237.375 129.631 237.375C130.149 237.375 130.536 237.217 130.792 236.901C130.933 236.733 131.004 236.531 131.004 236.295C131.004 236.059 130.91 235.864 130.721 235.709C130.553 235.575 130.354 235.46 130.125 235.366L129.479 235.093C129.183 234.952 128.954 234.807 128.793 234.659C128.577 234.477 128.469 234.245 128.469 233.962C128.469 233.666 128.557 233.404 128.732 233.175C128.907 232.953 129.122 232.791 129.378 232.69C129.621 232.582 129.893 232.528 130.196 232.528ZM137.2 237.184L139.967 232.619H140.371L137.291 237.638H136.907L136.483 233.134L133.696 237.638H133.323L132.858 232.619H133.232L133.626 237.184L136.423 232.619H136.796L137.2 237.184ZM145.059 235.194H140.737C140.723 235.302 140.717 235.386 140.717 235.447C140.717 236.005 140.888 236.467 141.232 236.83C141.575 237.194 142.023 237.375 142.575 237.375C143.457 237.375 144.126 236.955 144.584 236.113L144.887 236.285C144.362 237.241 143.581 237.719 142.544 237.719C141.891 237.719 141.363 237.507 140.959 237.083C140.548 236.652 140.343 236.11 140.343 235.457C140.343 235.08 140.417 234.72 140.565 234.376C140.7 234.04 140.895 233.727 141.151 233.437C141.386 233.168 141.676 232.949 142.019 232.781C142.356 232.613 142.706 232.528 143.069 232.528C143.722 232.528 144.227 232.717 144.584 233.094C144.934 233.484 145.109 234.006 145.109 234.659C145.109 234.76 145.092 234.938 145.059 235.194ZM140.777 234.861H144.715C144.722 234.794 144.725 234.726 144.725 234.659C144.725 234.107 144.584 233.67 144.301 233.346C144.005 233.03 143.584 232.872 143.039 232.872C142.716 232.872 142.39 232.963 142.06 233.144C141.743 233.326 141.464 233.575 141.222 233.892C140.986 234.195 140.838 234.518 140.777 234.861ZM149.465 232.549L149.374 232.932H149.344C148.744 232.932 148.216 233.155 147.758 233.599C147.334 234.016 147.048 234.491 146.9 235.023L146.203 237.638H145.84L147.152 232.619H147.526L147.183 233.902H147.193C147.415 233.511 147.741 233.185 148.172 232.922C148.603 232.66 149.034 232.535 149.465 232.549Z" fill="#231F20"/>
<path d="M240.914 234.78L242.116 230.277H242.51L241.288 234.841C241.046 235.75 240.692 236.436 240.228 236.901C239.683 237.446 239.016 237.719 238.228 237.719C237.515 237.719 236.946 237.537 236.522 237.173C236.105 236.81 235.896 236.295 235.896 235.628C235.896 235.285 235.95 234.922 236.057 234.538L237.178 230.277H237.572L236.401 234.659C236.313 234.969 236.269 235.282 236.269 235.598C236.269 236.15 236.448 236.584 236.805 236.901C237.168 237.21 237.65 237.365 238.249 237.365C238.915 237.365 239.481 237.13 239.945 236.658C240.369 236.234 240.692 235.608 240.914 234.78ZM245.888 232.528C246.399 232.528 246.8 232.673 247.089 232.963C247.372 233.252 247.513 233.632 247.513 234.104C247.513 234.319 247.473 234.578 247.392 234.881L246.665 237.638H246.302L247.039 234.851C247.099 234.629 247.13 234.386 247.13 234.124C247.13 233.727 247.015 233.42 246.786 233.205C246.564 232.983 246.234 232.872 245.797 232.872C245.157 232.872 244.595 233.175 244.111 233.781C243.868 234.084 243.697 234.427 243.596 234.811L242.848 237.638H242.485L243.798 232.619H244.171L243.858 233.791C244.087 233.42 244.37 233.121 244.706 232.892C245.05 232.65 245.443 232.528 245.888 232.528ZM249.724 232.619H250.098L248.785 237.638H248.411L249.724 232.619ZM250.33 231.256C250.236 231.256 250.155 231.226 250.088 231.165C250.027 231.105 249.997 231.024 249.997 230.923C249.997 230.808 250.034 230.711 250.108 230.63C250.189 230.549 250.286 230.509 250.401 230.509C250.502 230.509 250.586 230.539 250.653 230.6C250.72 230.66 250.754 230.741 250.754 230.842C250.754 230.957 250.71 231.054 250.623 231.135C250.542 231.216 250.444 231.256 250.33 231.256ZM253.821 232.619L253.731 232.953H252.448L251.57 236.285C251.523 236.453 251.499 236.615 251.499 236.77C251.499 236.978 251.56 237.126 251.681 237.214C251.802 237.295 251.987 237.335 252.236 237.335C252.371 237.335 252.505 237.318 252.64 237.285L252.549 237.638C252.367 237.672 252.236 237.688 252.155 237.688C251.469 237.688 251.125 237.392 251.125 236.8C251.125 236.645 251.156 236.453 251.216 236.224L252.075 232.953H251.115L251.206 232.619H252.155L252.539 231.185H252.913L252.529 232.619H253.821ZM256.158 232.528C256.697 232.528 257.108 232.673 257.39 232.963C257.673 233.245 257.835 233.555 257.875 233.892L257.532 233.983C257.491 233.713 257.36 233.464 257.138 233.235C256.922 233 256.593 232.882 256.148 232.882C255.65 232.882 255.273 233.037 255.017 233.346C254.876 233.508 254.805 233.703 254.805 233.932C254.805 234.154 254.893 234.333 255.068 234.467C255.196 234.575 255.374 234.679 255.603 234.78L256.29 235.063C256.99 235.366 257.34 235.77 257.34 236.275C257.34 236.746 257.158 237.109 256.795 237.365C256.438 237.608 256.034 237.729 255.583 237.729C254.95 237.729 254.479 237.54 254.169 237.163C253.893 236.84 253.755 236.483 253.755 236.093L254.119 236.012C254.105 236.329 254.209 236.628 254.432 236.911C254.681 237.221 255.068 237.375 255.593 237.375C256.111 237.375 256.498 237.217 256.754 236.901C256.895 236.733 256.966 236.531 256.966 236.295C256.966 236.059 256.872 235.864 256.683 235.709C256.515 235.575 256.317 235.46 256.088 235.366L255.441 235.093C255.145 234.952 254.916 234.807 254.755 234.659C254.539 234.477 254.432 234.245 254.432 233.962C254.432 233.666 254.519 233.404 254.694 233.175C254.869 232.953 255.085 232.791 255.34 232.69C255.583 232.582 255.855 232.528 256.158 232.528Z" fill="#231F20"/>
<rect x="53.9277" y="49.9272" width="13.4637" height="13.4637" fill="#231F20"/>
<rect x="53.9277" y="346.128" width="13.4637" height="13.4637" fill="#231F20"/>
<rect x="623.609" y="346.128" width="13.4637" height="13.4637" fill="#231F20"/>
<path d="M61.0799 134.075C61.0799 133.378 61.645 132.813 62.3421 132.813H336.664C337.362 132.813 337.927 133.378 337.927 134.075V155.954C337.927 156.651 337.362 157.216 336.664 157.216H62.3421C61.645 157.216 61.0799 156.651 61.0799 155.954V134.075Z" fill="white" stroke="#DCDADA" stroke-width="0.84148"/>
<path d="M69.495 203.077C69.495 202.38 70.0601 201.814 70.7572 201.814H191.93C192.627 201.814 193.192 202.38 193.192 203.077V224.955C193.192 225.652 192.627 226.217 191.93 226.217H70.7572C70.0601 226.217 69.495 225.652 69.495 224.955V203.077Z" fill="white" stroke="#DCDADA" stroke-width="0.84148"/>
<path d="M69.495 260.297C69.495 259.6 70.0601 259.035 70.7572 259.035H191.93C192.627 259.035 193.192 259.6 193.192 260.297V282.176C193.192 282.873 192.627 283.438 191.93 283.438H70.7572C70.0601 283.438 69.495 282.873 69.495 282.176V260.297Z" fill="white" stroke="#DCDADA" stroke-width="0.84148"/>
<path d="M380.842 203.918C380.842 203.221 381.407 202.656 382.104 202.656H530.205C530.902 202.656 531.467 203.221 531.467 203.918V225.797C531.467 226.494 530.902 227.059 530.205 227.059H382.104C381.407 227.059 380.842 226.494 380.842 225.797V203.918Z" fill="white" stroke="#DCDADA" stroke-width="0.84148"/>
<path d="M218.437 203.077C218.437 202.38 219.002 201.814 219.699 201.814H272.712C273.409 201.814 273.975 202.38 273.975 203.077V224.955C273.975 225.652 273.409 226.217 272.712 226.217H219.699C219.002 226.217 218.437 225.652 218.437 224.955V203.077Z" fill="white" stroke="#DCDADA" stroke-width="0.84148"/>
<path d="M85.4829 157.216V132.813H111.569V157.216H135.972V132.813H162.058V157.216H186.46V132.937H212.546V157.216H236.949V132.813H263.035V157.216H287.438V132.813H313.524V157.216" stroke="#DCDADA" stroke-width="0.8" stroke-dasharray="2 2"/>
<path d="M405.245 227.059V202.656H431.331V227.059H455.734V202.656H481.82V227.059H506.223V202.78" stroke="#DCDADA" stroke-width="0.8" stroke-dasharray="2 2"/>
<line x1="537.358" y1="94.9464" x2="594.578" y2="94.9464" stroke="#8F8F95" stroke-width="0.84148" stroke-linecap="round" stroke-linejoin="round"/>
<rect x="381.684" y="261.559" width="19.354" height="19.354" rx="9.67701" fill="white" stroke="#DCDADA" stroke-width="0.84148"/>
<path d="M394.709 275.98L393.955 274.176H389.593L388.839 275.98H387.735L391.586 266.946H391.976L395.827 275.98H394.709ZM393.551 273.234L391.774 268.858L389.997 273.234H393.551Z" fill="#231F20"/>
<rect x="408.611" y="261.559" width="19.354" height="19.354" rx="9.67701" fill="white" stroke="#DCDADA" stroke-width="0.84148"/>
<path d="M421.841 273.422C421.841 274.176 421.585 274.791 421.074 275.267C420.562 275.742 419.88 275.98 419.027 275.98H415.365V267.094H418.421C419.184 267.094 419.799 267.305 420.266 267.727C420.723 268.149 420.952 268.687 420.952 269.343C420.952 270.07 420.67 270.653 420.104 271.093C420.652 271.254 421.078 271.542 421.383 271.955C421.688 272.358 421.841 272.848 421.841 273.422ZM418.313 268.037H416.415V270.797H418.313C418.816 270.797 419.202 270.676 419.471 270.433C419.741 270.182 419.875 269.841 419.875 269.41C419.875 268.979 419.741 268.643 419.471 268.4C419.202 268.158 418.816 268.037 418.313 268.037ZM420.266 274.593C420.598 274.297 420.764 273.898 420.764 273.395C420.764 272.893 420.598 272.493 420.266 272.197C419.943 271.901 419.494 271.753 418.919 271.753H416.415V275.038H418.919C419.494 275.038 419.943 274.89 420.266 274.593Z" fill="#231F20"/>
<rect x="435.538" y="261.559" width="19.354" height="19.354" rx="9.67701" fill="white" stroke="#DCDADA" stroke-width="0.84148"/>
<path d="M441.049 271.537C441.022 270.272 441.467 269.186 442.382 268.279C443.307 267.372 444.402 266.928 445.667 266.946C446.448 266.946 447.162 267.117 447.808 267.458C448.463 267.799 448.98 268.266 449.357 268.858L448.576 269.477C447.849 268.436 446.884 267.915 445.681 267.915C444.676 267.915 443.832 268.261 443.15 268.952C442.477 269.643 442.14 270.505 442.14 271.537C442.14 272.569 442.477 273.431 443.15 274.122C443.832 274.813 444.676 275.159 445.681 275.159C446.884 275.159 447.849 274.638 448.576 273.597L449.357 274.216C448.98 274.809 448.463 275.276 447.808 275.617C447.162 275.958 446.448 276.128 445.667 276.128C444.402 276.146 443.307 275.702 442.382 274.795C441.467 273.889 441.022 272.803 441.049 271.537Z" fill="#231F20"/>
<rect x="462.466" y="261.559" width="19.354" height="19.354" rx="9.67701" fill="white" stroke="#DCDADA" stroke-width="0.84148"/>
<path d="M468.694 275.98V267.094H471.333C472.805 267.094 473.976 267.507 474.847 268.333C475.727 269.15 476.166 270.213 476.166 271.524C476.166 272.825 475.727 273.893 474.847 274.728C473.967 275.563 472.796 275.98 471.333 275.98H468.694ZM469.744 275.038H471.32C472.468 275.038 473.38 274.71 474.053 274.055C474.735 273.4 475.076 272.556 475.076 271.524C475.076 270.483 474.739 269.643 474.066 269.006C473.393 268.36 472.477 268.037 471.32 268.037H469.744V275.038Z" fill="#231F20"/>
<rect x="489.393" y="261.559" width="19.354" height="19.354" rx="9.67701" fill="white" stroke="#DCDADA" stroke-width="0.84148"/>
<path d="M496.482 275.98V267.094H502.178V268.037H497.533V270.756H501.087V271.699H497.533V275.038H502.339V275.98H496.482Z" fill="#231F20"/>
<line x1="59.3973" y1="178.253" x2="636.652" y2="178.253" stroke="#DCDADA" stroke-width="0.84148" stroke-linecap="round" stroke-dasharray="3.37 3.37"/>
<path d="M303.056 352.672C301.867 352.672 300.868 352.313 300.06 351.595C299.275 350.911 298.826 350.114 298.714 349.206L299.926 348.869C300.06 349.587 300.43 350.199 301.036 350.703C301.631 351.208 302.304 351.461 303.056 351.461C303.808 351.461 304.436 351.281 304.941 350.922C305.513 350.53 305.799 349.963 305.799 349.222C305.799 348.459 305.457 347.876 304.773 347.472C304.458 347.281 304.071 347.141 303.611 347.051L301.996 346.732C301.67 346.664 301.311 346.547 300.919 346.378C300.515 346.187 300.178 345.957 299.909 345.688C299.337 345.127 299.05 344.42 299.05 343.568C299.05 342.895 299.236 342.294 299.606 341.767C299.965 341.251 300.442 340.847 301.036 340.555C301.62 340.286 302.254 340.151 302.938 340.151C304.139 340.151 305.075 340.449 305.749 341.043C306.433 341.638 306.848 342.322 306.994 343.096L305.816 343.467C305.693 342.917 305.39 342.429 304.907 342.003C304.436 341.565 303.774 341.346 302.921 341.346C302.248 341.324 301.648 341.526 301.121 341.952C300.593 342.378 300.335 342.9 300.346 343.517C300.346 344 300.498 344.415 300.801 344.763C301.104 345.11 301.547 345.34 302.13 345.453L303.679 345.756C304.744 345.957 305.541 346.317 306.068 346.833C306.427 347.158 306.697 347.534 306.876 347.96C307.045 348.375 307.129 348.751 307.129 349.088C307.14 350.154 306.753 351.023 305.967 351.696C305.182 352.37 304.212 352.695 303.056 352.672ZM315.605 345.756L313.384 352.555H312.038L309.244 344.19H310.523L312.728 351.124L315 344.19H316.245L318.517 351.141H318.534L320.755 344.19H322.017L319.19 352.555H317.844L315.622 345.756H315.605ZM324.587 341.851C324.407 341.649 324.317 341.43 324.317 341.195C324.317 340.959 324.407 340.74 324.587 340.538C324.766 340.359 324.985 340.269 325.243 340.269C325.49 340.269 325.703 340.359 325.883 340.538C326.062 340.718 326.152 340.937 326.152 341.195C326.152 341.453 326.062 341.672 325.883 341.851C325.703 342.031 325.49 342.12 325.243 342.12C324.985 342.12 324.766 342.031 324.587 341.851ZM324.62 352.555V344.19H325.849V352.555H324.62ZM332.687 340.841C332.339 340.841 332.031 340.953 331.761 341.178C331.447 341.458 331.29 341.935 331.29 342.608V344.19H333.478V345.251H331.29V352.555H330.078V345.251H328.463V344.19H330.078V342.642C330.078 341.722 330.308 341.004 330.768 340.488C331.24 340.005 331.862 339.764 332.636 339.764C332.962 339.764 333.265 339.815 333.545 339.916V340.942C333.343 340.875 333.057 340.841 332.687 340.841ZM338.896 352.622C337.314 352.622 336.523 351.876 336.523 350.384V345.267H334.974V344.19H336.523V341.784H337.734V344.19H339.855V345.267H337.734V350.367C337.734 351.152 338.189 351.545 339.098 351.545C339.311 351.545 339.563 351.522 339.855 351.478V352.487C339.563 352.577 339.243 352.622 338.896 352.622ZM353.815 343.803L352.587 344.241C352.396 343.702 352.115 343.22 351.745 342.794C351.465 342.502 351.195 342.266 350.937 342.087C350.242 341.604 349.383 341.363 348.362 341.363C347.42 341.363 346.59 341.593 345.872 342.053C345.12 342.524 344.548 343.141 344.155 343.904C343.751 344.667 343.549 345.497 343.549 346.395C343.549 347.809 343.976 349.004 344.828 349.98C345.715 350.978 346.898 351.478 348.379 351.478C349.501 351.478 350.477 351.158 351.308 350.518C352.172 349.856 352.637 348.953 352.705 347.809H347.588V346.614H354.085V347.085C354.085 348.656 353.58 349.974 352.57 351.04C351.515 352.128 350.113 352.672 348.362 352.672C346.5 352.672 345.008 352.078 343.886 350.889C342.775 349.71 342.22 348.235 342.22 346.462C342.22 345.296 342.489 344.23 343.028 343.265C343.566 342.3 344.307 341.543 345.249 340.993C346.18 340.443 347.229 340.168 348.396 340.168C349.877 340.168 351.078 340.538 351.998 341.279C352.862 341.952 353.467 342.794 353.815 343.803ZM357.027 344.19H358.222V345.84C358.615 345.043 359.187 344.505 359.939 344.224C360.242 344.112 360.573 344.056 360.932 344.056C361.145 344.056 361.28 344.067 361.336 344.089V345.385C361.246 345.363 361.089 345.352 360.864 345.352C359.956 345.352 359.294 345.655 358.878 346.26C358.463 346.866 358.256 347.601 358.256 348.465V352.555H357.027V344.19ZM366.101 347.725H368.423V347.169C368.423 345.812 367.711 345.133 366.286 345.133C365.602 345.133 365.074 345.318 364.704 345.688C364.367 346.025 364.165 346.406 364.098 346.833L362.92 346.58C362.931 346.345 363.043 346.047 363.257 345.688C363.47 345.329 363.75 345.009 364.098 344.729C364.693 344.269 365.433 344.039 366.32 344.039C367.846 344.039 368.861 344.617 369.366 345.772C369.534 346.165 369.618 346.625 369.618 347.152V349.509C369.618 350.877 369.663 351.893 369.753 352.555H368.541C368.463 352.128 368.423 351.64 368.423 351.091C367.717 352.168 366.774 352.706 365.596 352.706C364.755 352.706 364.081 352.471 363.576 351.999C363.049 351.539 362.785 350.95 362.785 350.232V350.148C362.785 349.318 363.116 348.706 363.778 348.314C364.452 347.921 365.226 347.725 366.101 347.725ZM368.423 349.02V348.734H366.084C365.568 348.734 365.114 348.83 364.721 349.02C364.25 349.222 364.014 349.593 364.014 350.131C364.014 350.591 364.188 350.956 364.536 351.225C364.872 351.494 365.299 351.629 365.815 351.629C366.544 351.629 367.167 351.382 367.683 350.889C368.177 350.417 368.423 349.795 368.423 349.02ZM372.518 348.364C372.518 347.242 372.877 346.249 373.595 345.385C374.324 344.488 375.272 344.039 376.439 344.039C377.213 344.039 377.875 344.235 378.425 344.628C378.896 344.965 379.317 345.402 379.687 345.941V339.798H380.899V352.555H379.704V350.771C378.941 352.039 377.853 352.672 376.439 352.672C375.272 352.672 374.319 352.241 373.578 351.377C372.871 350.524 372.518 349.52 372.518 348.364ZM376.692 351.612C377.533 351.623 378.251 351.298 378.846 350.636C379.441 349.974 379.727 349.211 379.704 348.347C379.704 347.798 379.575 347.281 379.317 346.799C379.059 346.305 378.7 345.901 378.24 345.587C377.769 345.284 377.253 345.133 376.692 345.133C375.794 345.133 375.087 345.441 374.571 346.058C374.033 346.687 373.763 347.467 373.763 348.398C373.763 349.621 374.218 350.541 375.127 351.158C375.587 351.461 376.108 351.612 376.692 351.612ZM391.888 348.751H385.123C385.168 349.57 385.476 350.249 386.049 350.788C386.61 351.337 387.3 351.612 388.119 351.612C388.758 351.612 389.302 351.461 389.751 351.158C390.2 350.844 390.52 350.4 390.71 349.828L391.787 350.165C391.552 350.95 391.097 351.573 390.424 352.033C389.729 352.482 388.966 352.706 388.135 352.706C387.35 352.706 386.626 352.51 385.964 352.117C385.302 351.724 384.798 351.197 384.45 350.535C384.079 349.884 383.894 349.161 383.894 348.364C383.894 347.601 384.068 346.894 384.416 346.244C384.741 345.582 385.23 345.049 385.88 344.645C386.509 344.241 387.204 344.039 387.967 344.039C388.809 344.039 389.527 344.23 390.121 344.611C390.727 344.981 391.176 345.492 391.468 346.143C391.759 346.76 391.905 347.495 391.905 348.347C391.905 348.493 391.9 348.628 391.888 348.751ZM385.14 347.708H390.677C390.598 346.945 390.318 346.317 389.835 345.823C389.364 345.352 388.741 345.116 387.967 345.116C387.26 345.116 386.638 345.368 386.099 345.873C385.56 346.401 385.241 347.012 385.14 347.708Z" fill="#231F20"/>
<path d="M182.491 307.42H179.308V318.359H182.491V307.42Z" fill="#231F20"/>
<path d="M262.432 307.42H259.249V318.359H262.432V307.42Z" fill="#231F20"/>
<path d="M342.372 307.42H339.189V318.359H342.372V307.42Z" fill="#231F20"/>
<path d="M434.935 307.42H431.752V318.359H434.935V307.42Z" fill="#231F20"/>
<path d="M195.223 307.42H188.857V318.359H195.223V307.42Z" fill="#231F20"/>
<path d="M275.163 307.42H268.797V318.359H275.163V307.42Z" fill="#231F20"/>
<path d="M355.104 307.42H348.738V318.359H355.104V307.42Z" fill="#231F20"/>
<path d="M447.667 307.42H441.301V318.359H447.667V307.42Z" fill="#231F20"/>
<path d="M201.589 307.42H198.406V318.359H201.589V307.42Z" fill="#231F20"/>
<path d="M281.529 307.42H278.346V318.359H281.529V307.42Z" fill="#231F20"/>
<path d="M361.47 307.42H358.287V318.359H361.47V307.42Z" fill="#231F20"/>
<path d="M454.033 307.42H450.85V318.359H454.033V307.42Z" fill="#231F20"/>
<path d="M214.321 307.42H207.955V318.359H214.321V307.42Z" fill="#231F20"/>
<path d="M294.261 307.42H287.896V318.359H294.261V307.42Z" fill="#231F20"/>
<path d="M374.202 307.42H367.836V318.359H374.202V307.42Z" fill="#231F20"/>
<path d="M466.765 307.42H460.399V318.359H466.765V307.42Z" fill="#231F20"/>
<path d="M223.869 307.42H217.503V318.359H223.869V307.42Z" fill="#231F20"/>
<path d="M306.847 307.42H300.481V318.359H306.847V307.42Z" fill="#231F20"/>
<path d="M383.751 307.42H377.385V318.359H383.751V307.42Z" fill="#231F20"/>
<path d="M476.314 307.42H469.948V318.359H476.314V307.42Z" fill="#231F20"/>
<path d="M255.517 307.42H249.151V318.359H255.517V307.42Z" fill="#231F20"/>
<path d="M332.457 307.42H326.091V318.359H332.457V307.42Z" fill="#231F20"/>
<path d="M420.447 307.42H414.081V318.359H420.447V307.42Z" fill="#231F20"/>
<path d="M504.961 307.42H498.595V318.359H504.961V307.42Z" fill="#231F20"/>
<path d="M242.968 307.42H239.785V318.359H242.968V307.42Z" fill="#231F20"/>
<path d="M322.908 307.42H319.725V318.359H322.908V307.42Z" fill="#231F20"/>
<path d="M402.849 307.42H399.666V318.359H402.849V307.42Z" fill="#231F20"/>
<path d="M495.411 307.42H492.229V318.359H495.411V307.42Z" fill="#231F20"/>
<path d="M233.418 307.42H230.235V318.359H233.418V307.42Z" fill="#231F20"/>
<path d="M313.359 307.42H310.176V318.359H313.359V307.42Z" fill="#231F20"/>
<path d="M393.3 307.42H390.117V318.359H393.3V307.42Z" fill="#231F20"/>
<path d="M485.862 307.42H482.679V318.359H485.862V307.42Z" fill="#231F20"/>
<rect x="175.521" y="306.999" width="340.799" height="10.9392" rx="1.26222" stroke="#231F20" stroke-width="0.84148"/>
<path d="M606 71.5C605.5 57 601 49.5 588.5 38C618.277 46.4733 630.331 56.7504 644.5 82C629.5 72.5 620.5 68.5 606 71.5Z" fill="#E8ECF4"/>
</g>
<defs>
<filter id="filter0_d" x="-13.0097" y="-12.5641" width="717.019" height="444.38" filterUnits="userSpaceOnUse" color-interpolation-filters="sRGB">
<feFlood flood-opacity="0" result="BackgroundImageFix"/>
<feColorMatrix in="SourceAlpha" type="matrix" values="0 0 0 0 0 0 0 0 0 0 0 0 0 0 0 0 0 0 127 0"/>
<feOffset dy="4.44552"/>
<feGaussianBlur stdDeviation="20.0048"/>
<feColorMatrix type="matrix" values="0 0 0 0 0.219608 0 0 0 0 0.215686 0 0 0 0 0.262745 0 0 0 0.08 0"/>
<feBlend mode="normal" in2="BackgroundImageFix" result="effect1_dropShadow"/>
<feBlend mode="normal" in="SourceGraphic" in2="effect1_dropShadow" result="shape"/>
</filter>
</defs>
</svg>
