<svg width="657" height="386" viewBox="0 0 657 386" fill="none" xmlns="http://www.w3.org/2000/svg">
<g filter="url(#filter0_d)">
<rect x="26.2153" y="54.4993" width="199.015" height="194.834" fill="#EF7850" fill-opacity="0.54"/>
<rect x="12" y="6" width="633" height="361.236" fill="white"/>
<rect x="25.3789" y="55.3355" width="199.851" height="194.834" fill="#FFBCA6"/>
<rect x="225.229" y="55.3355" width="406.391" height="299.358" rx="2.50859" fill="#F8F8F8"/>
<path d="M264.949 108.016H270.384" stroke="black" stroke-width="0.836195"/>
<rect x="25.3789" y="250.169" width="199.851" height="51.8441" fill="#407BFF" fill-opacity="0.3"/>
<rect x="25.3789" y="302.849" width="199.851" height="51.8441" fill="#9AE091"/>
<rect x="81.8219" y="92.5463" width="134.627" height="28.4306" rx="1.25429" fill="white" stroke="#F0F0F0" stroke-width="0.836195"/>
<rect x="240.699" y="92.5463" width="142.153" height="28.4306" rx="1.25429" fill="white" stroke="#F0F0F0" stroke-width="0.836195"/>
<rect x="240.699" y="191.217" width="142.153" height="28.4306" rx="1.25429" fill="white" stroke="#F0F0F0" stroke-width="0.836195"/>
<rect x="240.699" y="262.294" width="142.153" height="28.4306" rx="1.25429" fill="white" stroke="#F0F0F0" stroke-width="0.836195"/>
<rect x="240.699" y="319.991" width="19.2325" height="19.2325" rx="1.25429" fill="white" stroke="#F0F0F0" stroke-width="0.836195"/>
<rect x="270.802" y="319.991" width="19.2325" height="19.2325" rx="1.25429" fill="white" stroke="#F0F0F0" stroke-width="0.836195"/>
<rect x="300.905" y="319.991" width="19.2325" height="19.2325" rx="1.25429" fill="white" stroke="#F0F0F0" stroke-width="0.836195"/>
<rect x="331.008" y="319.991" width="19.2325" height="19.2325" rx="1.25429" fill="#24AE5F" stroke="#F0F0F0" stroke-width="0.836195"/>
<rect x="361.111" y="319.991" width="19.2325" height="19.2325" rx="1.25429" fill="white" stroke="#F0F0F0" stroke-width="0.836195"/>
<rect x="401.249" y="92.5463" width="46.827" height="28.4306" rx="1.25429" fill="white" stroke="#F0F0F0" stroke-width="0.836195"/>
<rect x="401.249" y="191.217" width="46.827" height="28.4306" rx="1.25429" fill="white" stroke="#F0F0F0" stroke-width="0.836195"/>
<rect x="483.196" y="78.3309" width="46.827" height="28.4306" rx="1.25429" fill="white" stroke="#F0F0F0" stroke-width="0.836195"/>
<rect x="535.876" y="92.5463" width="46.827" height="28.4306" rx="1.25429" fill="white" stroke="#F0F0F0" stroke-width="0.836195"/>
<rect x="81.8219" y="191.217" width="134.627" height="28.4306" rx="1.25429" fill="white" stroke="#F0F0F0" stroke-width="0.836195"/>
<rect x="81.8219" y="314.974" width="134.627" height="28.4306" rx="1.25429" fill="white" stroke="#F0F0F0" stroke-width="0.836195"/>
<rect x="81.8219" y="262.294" width="134.627" height="28.4306" rx="1.25429" fill="white" stroke="#F0F0F0" stroke-width="0.836195"/>
<rect x="25.797" y="19.7972" width="605.406" height="334.478" rx="2.09049" stroke="#F0F0F0" stroke-width="0.836195"/>
<path d="M52.6407 34.1586L51.9032 37.4549H53.9051V38.3731H51.7075L51.0453 41.4135H50.0218L50.684 38.3731H47.3577L46.6954 41.4135H45.6568L46.3341 38.3731H44.3323V37.4549H46.5298L47.2523 34.1586H45.2655V33.2405H47.463L48.0651 30.4409H49.1036L48.4865 33.2405H51.828L52.43 30.4409H53.4535L52.8364 33.2405H54.8383V34.1586H52.6407ZM48.2758 34.1586L47.5533 37.4549H50.8948L51.6172 34.1586H48.2758Z" fill="#231F20"/>
<path d="M136.693 31.5246V41.4135H135.549V31.5246H131.877V30.4409H140.366V31.5246H136.693ZM140.508 45.1011H139.319L141.261 40.9017L137.859 33.9329H139.108L141.848 39.7127L144.452 33.9329H145.626L140.508 45.1011ZM154.607 37.6657C154.607 38.348 154.462 38.9802 154.171 39.5621C153.88 40.1441 153.469 40.6158 152.937 40.977C152.395 41.3382 151.778 41.5188 151.085 41.5188C149.861 41.5188 148.903 40.972 148.211 39.8782V45.1011H147.112V33.9329H148.18V35.5584C148.953 34.3844 149.921 33.7974 151.085 33.7974C152.149 33.7974 153.007 34.1988 153.659 35.0015C154.291 35.7842 154.607 36.6723 154.607 37.6657ZM150.875 40.5706C151.657 40.5706 152.295 40.2947 152.786 39.7428C153.258 39.1808 153.494 38.4985 153.494 37.6958C153.494 36.5619 153.087 35.724 152.274 35.1822C151.883 34.9112 151.417 34.7758 150.875 34.7758C150.132 34.7657 149.495 35.0517 148.963 35.6337C148.431 36.2157 148.175 36.888 148.196 37.6506C148.196 38.4534 148.446 39.1357 148.948 39.6976C149.46 40.2796 150.102 40.5706 150.875 40.5706ZM163.141 38.0118H157.091C157.131 38.7443 157.407 39.3514 157.918 39.8331C158.42 40.3248 159.037 40.5706 159.77 40.5706C160.342 40.5706 160.828 40.4351 161.23 40.1642C161.631 39.8832 161.917 39.4869 162.088 38.9751L163.051 39.2762C162.84 39.9786 162.434 40.5355 161.832 40.9469C161.21 41.3483 160.527 41.5489 159.785 41.5489C159.082 41.5489 158.435 41.3733 157.843 41.0221C157.251 40.6709 156.8 40.1993 156.489 39.6073C156.157 39.0253 155.992 38.3781 155.992 37.6657C155.992 36.9833 156.147 36.3512 156.458 35.7692C156.749 35.1771 157.186 34.7005 157.768 34.3393C158.33 33.978 158.952 33.7974 159.634 33.7974C160.387 33.7974 161.029 33.968 161.561 34.3092C162.103 34.6403 162.504 35.0969 162.765 35.6789C163.026 36.2307 163.156 36.888 163.156 37.6506C163.156 37.781 163.151 37.9015 163.141 38.0118ZM157.106 37.0786H162.058C161.987 36.3963 161.736 35.8344 161.305 35.3929C160.884 34.9714 160.327 34.7607 159.634 34.7607C159.002 34.7607 158.445 34.9865 157.964 35.438C157.482 35.9096 157.196 36.4565 157.106 37.0786Z" fill="#231F20"/>
<path d="M412.106 41.4135L410.902 38.6139H404.926L403.722 41.4135H402.548L407.274 30.4409H408.584L413.325 41.4135H412.106ZM410.465 37.5603L407.906 31.63L405.363 37.5603H410.465ZM421.087 41.4135H419.988V37.0636C419.988 36.3712 419.812 35.8193 419.461 35.4079C419.11 34.9965 418.598 34.7908 417.926 34.7908C417.274 34.7908 416.737 35.0166 416.315 35.4681C415.904 35.9297 415.698 36.4916 415.698 37.1539V41.4135H414.6V33.9329H415.668V35.3026C416.27 34.2991 417.133 33.7974 418.257 33.7974C419.14 33.7974 419.837 34.0683 420.349 34.6102C420.841 35.1822 421.087 35.9096 421.087 36.7927V41.4135ZM428.4 39.2912C428.4 39.9635 428.144 40.5004 427.632 40.9017C427.12 41.3232 426.493 41.5339 425.751 41.5339C424.657 41.5339 423.859 41.1727 423.358 40.4502C423.107 40.109 422.956 39.7277 422.906 39.3063L423.899 39.0504C423.97 39.4618 424.155 39.823 424.456 40.1341C424.767 40.4351 425.194 40.5856 425.736 40.5856C426.147 40.5856 426.513 40.4703 426.834 40.2395C427.135 40.0287 427.286 39.7327 427.286 39.3514C427.286 39.0504 427.166 38.8096 426.925 38.629C426.704 38.4483 426.418 38.3179 426.067 38.2376L424.923 37.9817C423.679 37.7108 423.056 37.0586 423.056 36.025C423.056 35.2524 423.368 34.6754 423.99 34.2941C424.522 33.963 425.058 33.7974 425.6 33.7974C426.624 33.8074 427.371 34.1386 427.843 34.7908C428.074 35.1219 428.224 35.4581 428.294 35.7993L427.301 36.0852C427.231 35.7942 427.085 35.5133 426.865 35.2424C426.594 34.9213 426.172 34.7607 425.6 34.7607C425.189 34.7607 424.848 34.8761 424.577 35.1069C424.296 35.3277 424.155 35.6086 424.155 35.9498C424.155 36.4515 424.516 36.7927 425.239 36.9733L426.443 37.2442C426.995 37.3747 427.457 37.6105 427.828 37.9516C428.209 38.2928 428.4 38.7393 428.4 39.2912ZM434.673 35.3327L432.687 41.4135H431.482L428.984 33.9329H430.128L432.1 40.1341L434.131 33.9329H435.245L437.277 40.1492H437.292L439.279 33.9329H440.408L437.879 41.4135H436.675L434.688 35.3327H434.673ZM448.238 38.0118H442.187C442.228 38.7443 442.504 39.3514 443.015 39.8331C443.517 40.3248 444.134 40.5706 444.867 40.5706C445.439 40.5706 445.925 40.4351 446.327 40.1642C446.728 39.8832 447.014 39.4869 447.185 38.9751L448.148 39.2762C447.937 39.9786 447.531 40.5355 446.929 40.9469C446.307 41.3483 445.624 41.5489 444.882 41.5489C444.179 41.5489 443.532 41.3733 442.94 41.0221C442.348 40.6709 441.896 40.1993 441.585 39.6073C441.254 39.0253 441.089 38.3781 441.089 37.6657C441.089 36.9833 441.244 36.3512 441.555 35.7692C441.846 35.1771 442.283 34.7005 442.865 34.3393C443.427 33.978 444.049 33.7974 444.731 33.7974C445.484 33.7974 446.126 33.968 446.658 34.3092C447.2 34.6403 447.601 35.0969 447.862 35.6789C448.123 36.2307 448.253 36.888 448.253 37.6506C448.253 37.781 448.248 37.9015 448.238 38.0118ZM442.202 37.0786H447.154C447.084 36.3963 446.833 35.8344 446.402 35.3929C445.98 34.9714 445.424 34.7607 444.731 34.7607C444.099 34.7607 443.542 34.9865 443.06 35.438C442.579 35.9096 442.293 36.4565 442.202 37.0786ZM450.141 33.9329H451.21V35.4079C451.561 34.6955 452.073 34.2138 452.745 33.963C453.016 33.8626 453.312 33.8125 453.633 33.8125C453.824 33.8125 453.944 33.8225 453.994 33.8426V35.0015C453.914 34.9815 453.774 34.9714 453.573 34.9714C452.76 34.9714 452.168 35.2424 451.797 35.7842C451.426 36.3261 451.24 36.9833 451.24 37.756V41.4135H450.141V33.9329Z" fill="#383743"/>
<path d="M25.7969 55.3356H631.202V164.459H25.7969V249.751H631.202V302.431H25.7969V354.275H72.6238V19.7972H225.648V354.275" stroke="#F0F0F0" stroke-width="0.836195"/>
<path d="M48.2607 109.145H47.1168V99.3919L44.4678 100.957L43.956 100.084L47.1469 98.1727H48.2607V109.145Z" fill="#231F20"/>
<path d="M98.6967 101.12H99.5747V109.654H98.603L93.5106 102.396V109.654H92.6209V101.12H93.6628L98.6967 108.296V101.12ZM101.657 103.836H102.5V107.219C102.5 107.765 102.64 108.194 102.921 108.507C103.187 108.827 103.585 108.987 104.115 108.987C104.615 108.987 105.029 108.811 105.356 108.46C105.684 108.109 105.848 107.672 105.848 107.149V103.836H106.691V109.654H105.86V108.589C105.391 109.377 104.724 109.771 103.858 109.771C103.179 109.771 102.636 109.556 102.231 109.127C101.848 108.698 101.657 108.132 101.657 107.43V103.836ZM113.409 109.654H112.578V106.236C112.578 105.736 112.453 105.318 112.203 104.983C111.946 104.663 111.571 104.503 111.08 104.503C110.58 104.503 110.186 104.682 109.897 105.041C109.608 105.4 109.464 105.834 109.464 106.341V109.654H108.61V103.836H109.441V104.842C109.698 104.46 109.975 104.179 110.272 104C110.568 103.82 110.92 103.73 111.325 103.73C112.207 103.73 112.828 104.12 113.187 104.901C113.679 104.12 114.361 103.73 115.236 103.73C115.915 103.73 116.445 103.945 116.828 104.374C117.194 104.803 117.378 105.365 117.378 106.06V109.654H116.535V106.271C116.535 105.74 116.41 105.315 116.16 104.995C115.903 104.667 115.524 104.503 115.025 104.503C114.541 104.503 114.151 104.679 113.854 105.03C113.558 105.373 113.409 105.798 113.409 106.306V109.654ZM124.369 107.008H119.663C119.695 107.578 119.909 108.05 120.307 108.425C120.697 108.807 121.177 108.998 121.747 108.998C122.192 108.998 122.571 108.893 122.883 108.682C123.195 108.464 123.417 108.155 123.55 107.757L124.299 107.992C124.135 108.538 123.819 108.971 123.351 109.291C122.867 109.603 122.336 109.759 121.759 109.759C121.213 109.759 120.709 109.623 120.249 109.349C119.788 109.076 119.437 108.71 119.195 108.249C118.938 107.796 118.809 107.293 118.809 106.739C118.809 106.208 118.93 105.717 119.172 105.264C119.398 104.803 119.737 104.433 120.19 104.152C120.627 103.871 121.111 103.73 121.642 103.73C122.227 103.73 122.727 103.863 123.14 104.128C123.562 104.386 123.874 104.741 124.077 105.194C124.28 105.623 124.381 106.134 124.381 106.727C124.381 106.829 124.377 106.922 124.369 107.008ZM119.675 106.282H123.527C123.472 105.752 123.277 105.315 122.941 104.971C122.613 104.643 122.18 104.479 121.642 104.479C121.15 104.479 120.717 104.655 120.342 105.006C119.968 105.373 119.745 105.798 119.675 106.282ZM125.85 103.836H126.681V104.983C126.954 104.429 127.352 104.054 127.875 103.859C128.086 103.781 128.316 103.742 128.565 103.742C128.714 103.742 128.807 103.75 128.846 103.765V104.667C128.784 104.651 128.675 104.643 128.519 104.643C127.886 104.643 127.426 104.854 127.137 105.276C126.848 105.697 126.704 106.208 126.704 106.809V109.654H125.85V103.836ZM129.965 102.208C129.84 102.068 129.777 101.916 129.777 101.752C129.777 101.588 129.84 101.436 129.965 101.295C130.089 101.17 130.242 101.108 130.421 101.108C130.593 101.108 130.741 101.17 130.866 101.295C130.991 101.42 131.053 101.572 131.053 101.752C131.053 101.931 130.991 102.084 130.866 102.208C130.741 102.333 130.593 102.396 130.421 102.396C130.242 102.396 130.089 102.333 129.965 102.208ZM129.988 109.654V103.836H130.843V109.654H129.988ZM133.211 106.715C133.211 107.59 133.539 108.241 134.194 108.671C134.514 108.889 134.889 108.998 135.318 108.998C135.786 108.998 136.184 108.877 136.512 108.635C136.629 108.55 136.75 108.432 136.875 108.284C137.047 108.058 137.176 107.832 137.261 107.605L138.046 107.863C137.913 108.331 137.617 108.752 137.156 109.127C136.657 109.549 136.04 109.759 135.306 109.759C134.471 109.775 133.765 109.494 133.188 108.916C132.618 108.339 132.337 107.621 132.345 106.762C132.345 106.2 132.481 105.681 132.754 105.205C133.028 104.737 133.39 104.374 133.843 104.117C134.296 103.859 134.795 103.73 135.342 103.73C135.997 103.73 136.575 103.91 137.074 104.269C137.581 104.651 137.894 105.092 138.011 105.592L137.238 105.849C137.152 105.537 136.941 105.233 136.606 104.936C136.278 104.639 135.849 104.491 135.318 104.491C134.709 104.491 134.206 104.706 133.808 105.135C133.41 105.572 133.211 106.099 133.211 106.715Z" fill="#231F20"/>
<path d="M98.6967 199.791H99.5747V208.325H98.603L93.5106 201.067V208.325H92.6209V199.791H93.6628L98.6967 206.967V199.791ZM101.657 202.507H102.5V205.89C102.5 206.436 102.64 206.866 102.921 207.178C103.187 207.498 103.585 207.658 104.115 207.658C104.615 207.658 105.029 207.482 105.356 207.131C105.684 206.78 105.848 206.343 105.848 205.82V202.507H106.691V208.325H105.86V207.26C105.391 208.048 104.724 208.442 103.858 208.442C103.179 208.442 102.636 208.227 102.231 207.798C101.848 207.369 101.657 206.803 101.657 206.101V202.507ZM113.409 208.325H112.578V204.907C112.578 204.407 112.453 203.99 112.203 203.654C111.946 203.334 111.571 203.174 111.08 203.174C110.58 203.174 110.186 203.353 109.897 203.712C109.608 204.072 109.464 204.505 109.464 205.012V208.325H108.61V202.507H109.441V203.513C109.698 203.131 109.975 202.85 110.272 202.671C110.568 202.491 110.92 202.401 111.325 202.401C112.207 202.401 112.828 202.792 113.187 203.572C113.679 202.792 114.361 202.401 115.236 202.401C115.915 202.401 116.445 202.616 116.828 203.045C117.194 203.474 117.378 204.036 117.378 204.731V208.325H116.535V204.942C116.535 204.411 116.41 203.986 116.16 203.666C115.903 203.338 115.524 203.174 115.025 203.174C114.541 203.174 114.151 203.35 113.854 203.701C113.558 204.044 113.409 204.47 113.409 204.977V208.325ZM124.369 205.679H119.663C119.695 206.249 119.909 206.721 120.307 207.096C120.697 207.478 121.177 207.669 121.747 207.669C122.192 207.669 122.571 207.564 122.883 207.353C123.195 207.135 123.417 206.826 123.55 206.428L124.299 206.663C124.135 207.209 123.819 207.642 123.351 207.962C122.867 208.274 122.336 208.43 121.759 208.43C121.213 208.43 120.709 208.294 120.249 208.021C119.788 207.747 119.437 207.381 119.195 206.92C118.938 206.467 118.809 205.964 118.809 205.41C118.809 204.879 118.93 204.388 119.172 203.935C119.398 203.474 119.737 203.104 120.19 202.823C120.627 202.542 121.111 202.401 121.642 202.401C122.227 202.401 122.727 202.534 123.14 202.799C123.562 203.057 123.874 203.412 124.077 203.865C124.28 204.294 124.381 204.805 124.381 205.398C124.381 205.5 124.377 205.593 124.369 205.679ZM119.675 204.953H123.527C123.472 204.423 123.277 203.986 122.941 203.642C122.613 203.314 122.18 203.151 121.642 203.151C121.15 203.151 120.717 203.326 120.342 203.677C119.968 204.044 119.745 204.47 119.675 204.953ZM125.85 202.507H126.681V203.654C126.954 203.1 127.352 202.725 127.875 202.53C128.086 202.452 128.316 202.413 128.565 202.413C128.714 202.413 128.807 202.421 128.846 202.436V203.338C128.784 203.322 128.675 203.314 128.519 203.314C127.886 203.314 127.426 203.525 127.137 203.947C126.848 204.368 126.704 204.879 126.704 205.48V208.325H125.85V202.507ZM129.965 200.879C129.84 200.739 129.777 200.587 129.777 200.423C129.777 200.259 129.84 200.107 129.965 199.966C130.089 199.841 130.242 199.779 130.421 199.779C130.593 199.779 130.741 199.841 130.866 199.966C130.991 200.091 131.053 200.243 131.053 200.423C131.053 200.602 130.991 200.755 130.866 200.879C130.741 201.004 130.593 201.067 130.421 201.067C130.242 201.067 130.089 201.004 129.965 200.879ZM129.988 208.325V202.507H130.843V208.325H129.988ZM133.211 205.387C133.211 206.261 133.539 206.912 134.194 207.342C134.514 207.56 134.889 207.669 135.318 207.669C135.786 207.669 136.184 207.548 136.512 207.306C136.629 207.221 136.75 207.104 136.875 206.955C137.047 206.729 137.176 206.503 137.261 206.276L138.046 206.534C137.913 207.002 137.617 207.424 137.156 207.798C136.657 208.22 136.04 208.43 135.306 208.43C134.471 208.446 133.765 208.165 133.188 207.587C132.618 207.01 132.337 206.292 132.345 205.433C132.345 204.871 132.481 204.352 132.754 203.876C133.028 203.408 133.39 203.045 133.843 202.788C134.296 202.53 134.795 202.401 135.342 202.401C135.997 202.401 136.575 202.581 137.074 202.94C137.581 203.322 137.894 203.763 138.011 204.263L137.238 204.52C137.152 204.208 136.941 203.904 136.606 203.607C136.278 203.311 135.849 203.162 135.318 203.162C134.709 203.162 134.206 203.377 133.808 203.806C133.41 204.243 133.211 204.77 133.211 205.387Z" fill="#231F20"/>
<path d="M100.242 323.548H101.53V332.082H100.64V324.765L97.4674 332.082H96.6597L93.5106 324.824V332.082H92.6209V323.548H93.8969L97.0811 330.864L100.242 323.548ZM103.612 326.264H104.455V329.647C104.455 330.193 104.595 330.622 104.876 330.935C105.142 331.255 105.54 331.415 106.07 331.415C106.57 331.415 106.983 331.239 107.311 330.888C107.639 330.537 107.803 330.1 107.803 329.577V326.264H108.646V332.082H107.815V331.017C107.346 331.805 106.679 332.199 105.813 332.199C105.134 332.199 104.591 331.984 104.186 331.555C103.803 331.126 103.612 330.56 103.612 329.858V326.264ZM110.564 332.082V323.196H111.419V332.082H110.564ZM115.379 332.129C114.279 332.129 113.729 331.61 113.729 330.572V327.013H112.652V326.264H113.729V324.59H114.572V326.264H116.047V327.013H114.572V330.56C114.572 331.106 114.888 331.38 115.52 331.38C115.668 331.38 115.844 331.364 116.047 331.333V332.035C115.844 332.098 115.621 332.129 115.379 332.129ZM117.458 324.636C117.333 324.496 117.27 324.344 117.27 324.18C117.27 324.016 117.333 323.864 117.458 323.723C117.582 323.598 117.735 323.536 117.914 323.536C118.086 323.536 118.234 323.598 118.359 323.723C118.484 323.848 118.546 324 118.546 324.18C118.546 324.359 118.484 324.512 118.359 324.636C118.234 324.761 118.086 324.824 117.914 324.824C117.735 324.824 117.582 324.761 117.458 324.636ZM117.481 332.082V326.264H118.336V332.082H117.481ZM126.089 329.167C126.089 329.698 125.976 330.189 125.75 330.642C125.523 331.095 125.203 331.461 124.79 331.742C124.368 332.023 123.888 332.164 123.35 332.164C122.398 332.164 121.652 331.739 121.114 330.888V334.95H120.259V326.264H121.09V327.528C121.691 326.615 122.444 326.158 123.35 326.158C124.177 326.158 124.844 326.47 125.352 327.095C125.843 327.704 126.089 328.394 126.089 329.167ZM123.186 331.426C123.795 331.426 124.29 331.212 124.673 330.782C125.039 330.345 125.223 329.815 125.223 329.19C125.223 328.308 124.907 327.657 124.275 327.235C123.97 327.025 123.607 326.919 123.186 326.919C122.608 326.911 122.113 327.134 121.699 327.587C121.285 328.039 121.086 328.562 121.102 329.155C121.102 329.78 121.297 330.31 121.687 330.747C122.085 331.2 122.585 331.426 123.186 331.426ZM127.587 332.082V323.196H128.442V332.082H127.587ZM135.505 329.436H130.798C130.83 330.006 131.044 330.478 131.442 330.853C131.833 331.235 132.313 331.426 132.882 331.426C133.327 331.426 133.706 331.321 134.018 331.11C134.33 330.892 134.552 330.583 134.685 330.185L135.434 330.42C135.27 330.966 134.954 331.399 134.486 331.719C134.002 332.031 133.471 332.187 132.894 332.187C132.348 332.187 131.844 332.051 131.384 331.778C130.923 331.504 130.572 331.138 130.33 330.677C130.073 330.224 129.944 329.721 129.944 329.167C129.944 328.636 130.065 328.145 130.307 327.692C130.533 327.231 130.873 326.861 131.325 326.58C131.762 326.299 132.246 326.158 132.777 326.158C133.362 326.158 133.862 326.291 134.275 326.556C134.697 326.814 135.009 327.169 135.212 327.622C135.415 328.051 135.516 328.562 135.516 329.155C135.516 329.257 135.512 329.35 135.505 329.436ZM130.81 328.71H134.662C134.607 328.18 134.412 327.743 134.076 327.399C133.749 327.071 133.315 326.908 132.777 326.908C132.285 326.908 131.852 327.083 131.477 327.434C131.103 327.801 130.88 328.226 130.81 328.71ZM140.47 329.144C140.47 330.018 140.798 330.669 141.454 331.099C141.774 331.317 142.148 331.426 142.578 331.426C143.046 331.426 143.444 331.305 143.772 331.063C143.889 330.978 144.01 330.861 144.135 330.712C144.306 330.486 144.435 330.26 144.521 330.033L145.305 330.291C145.173 330.759 144.876 331.18 144.416 331.555C143.916 331.977 143.3 332.187 142.566 332.187C141.731 332.203 141.025 331.922 140.447 331.344C139.877 330.767 139.596 330.049 139.604 329.19C139.604 328.628 139.741 328.109 140.014 327.633C140.287 327.165 140.65 326.802 141.103 326.545C141.555 326.287 142.055 326.158 142.601 326.158C143.257 326.158 143.834 326.338 144.334 326.697C144.841 327.079 145.153 327.52 145.27 328.02L144.498 328.277C144.412 327.965 144.201 327.661 143.865 327.364C143.538 327.068 143.108 326.919 142.578 326.919C141.969 326.919 141.466 327.134 141.068 327.563C140.67 328 140.47 328.527 140.47 329.144ZM151.771 332.082H150.916V328.699C150.916 328.16 150.779 327.731 150.506 327.411C150.233 327.091 149.835 326.931 149.312 326.931C148.805 326.931 148.387 327.107 148.06 327.458C147.74 327.817 147.58 328.254 147.58 328.769V332.082H146.725V323.208H147.58V327.306C148.032 326.541 148.696 326.158 149.57 326.158C150.257 326.158 150.799 326.369 151.197 326.79C151.579 327.235 151.771 327.801 151.771 328.488V332.082ZM156.182 332.187C155.644 332.187 155.141 332.055 154.672 331.789C154.212 331.516 153.853 331.153 153.595 330.701C153.33 330.248 153.197 329.744 153.197 329.19C153.197 328.324 153.486 327.606 154.064 327.036C154.641 326.451 155.355 326.158 156.206 326.158C157.033 326.143 157.743 326.435 158.337 327.036C158.937 327.629 159.23 328.336 159.215 329.155C159.23 329.998 158.937 330.72 158.337 331.321C157.736 331.914 157.018 332.203 156.182 332.187ZM156.206 331.426C156.815 331.426 157.326 331.208 157.739 330.771C158.138 330.334 158.337 329.807 158.337 329.19C158.337 328.566 158.134 328.027 157.728 327.575C157.314 327.13 156.799 326.908 156.182 326.908C155.566 326.908 155.059 327.126 154.661 327.563C154.263 328 154.064 328.531 154.064 329.155C154.048 329.772 154.247 330.306 154.661 330.759C155.082 331.212 155.597 331.434 156.206 331.426ZM160.683 324.636C160.558 324.496 160.496 324.344 160.496 324.18C160.496 324.016 160.558 323.864 160.683 323.723C160.808 323.598 160.96 323.536 161.14 323.536C161.312 323.536 161.46 323.598 161.585 323.723C161.71 323.848 161.772 324 161.772 324.18C161.772 324.359 161.71 324.512 161.585 324.636C161.46 324.761 161.312 324.824 161.14 324.824C160.96 324.824 160.808 324.761 160.683 324.636ZM160.707 332.082V326.264H161.561V332.082H160.707ZM163.93 329.144C163.93 330.018 164.257 330.669 164.913 331.099C165.233 331.317 165.608 331.426 166.037 331.426C166.505 331.426 166.903 331.305 167.231 331.063C167.348 330.978 167.469 330.861 167.594 330.712C167.766 330.486 167.894 330.26 167.98 330.033L168.765 330.291C168.632 330.759 168.335 331.18 167.875 331.555C167.375 331.977 166.759 332.187 166.025 332.187C165.19 332.203 164.484 331.922 163.906 331.344C163.337 330.767 163.056 330.049 163.063 329.19C163.063 328.628 163.2 328.109 163.473 327.633C163.746 327.165 164.109 326.802 164.562 326.545C165.015 326.287 165.514 326.158 166.06 326.158C166.716 326.158 167.293 326.338 167.793 326.697C168.3 327.079 168.612 327.52 168.729 328.02L167.957 328.277C167.871 327.965 167.66 327.661 167.325 327.364C166.997 327.068 166.568 326.919 166.037 326.919C165.428 326.919 164.925 327.134 164.527 327.563C164.129 328 163.93 328.527 163.93 329.144ZM175.323 329.436H170.617C170.649 330.006 170.863 330.478 171.261 330.853C171.651 331.235 172.131 331.426 172.701 331.426C173.146 331.426 173.525 331.321 173.837 331.11C174.149 330.892 174.371 330.583 174.504 330.185L175.253 330.42C175.089 330.966 174.773 331.399 174.305 331.719C173.821 332.031 173.29 332.187 172.713 332.187C172.167 332.187 171.663 332.051 171.203 331.778C170.742 331.504 170.391 331.138 170.149 330.677C169.892 330.224 169.763 329.721 169.763 329.167C169.763 328.636 169.884 328.145 170.126 327.692C170.352 327.231 170.691 326.861 171.144 326.58C171.581 326.299 172.065 326.158 172.596 326.158C173.181 326.158 173.681 326.291 174.094 326.556C174.516 326.814 174.828 327.169 175.031 327.622C175.234 328.051 175.335 328.562 175.335 329.155C175.335 329.257 175.331 329.35 175.323 329.436ZM170.629 328.71H174.481C174.426 328.18 174.231 327.743 173.895 327.399C173.567 327.071 173.134 326.908 172.596 326.908C172.104 326.908 171.671 327.083 171.296 327.434C170.922 327.801 170.699 328.226 170.629 328.71Z" fill="#231F20"/>
<path d="M93.5223 271.71V274.777H97.5377V275.597H93.5223V279.402H92.6209V270.867H97.9123V271.71H93.5223ZM99.2916 271.956C99.1667 271.816 99.1043 271.663 99.1043 271.5C99.1043 271.336 99.1667 271.183 99.2916 271.043C99.4165 270.918 99.5687 270.856 99.7482 270.856C99.9199 270.856 100.068 270.918 100.193 271.043C100.318 271.168 100.38 271.32 100.38 271.5C100.38 271.679 100.318 271.831 100.193 271.956C100.068 272.081 99.9199 272.143 99.7482 272.143C99.5687 272.143 99.4165 272.081 99.2916 271.956ZM99.315 279.402V273.583H100.17V279.402H99.315ZM102.093 279.402V270.516H102.948V279.402H102.093ZM104.871 279.402V270.516H105.726V279.402H104.871ZM110.667 271.956C110.542 271.816 110.479 271.663 110.479 271.5C110.479 271.336 110.542 271.183 110.667 271.043C110.792 270.918 110.944 270.856 111.123 270.856C111.295 270.856 111.443 270.918 111.568 271.043C111.693 271.168 111.756 271.32 111.756 271.5C111.756 271.679 111.693 271.831 111.568 271.956C111.443 272.081 111.295 272.143 111.123 272.143C110.944 272.143 110.792 272.081 110.667 271.956ZM110.69 279.402V273.583H111.545V279.402H110.69ZM118.514 279.402H117.659V276.018C117.659 275.48 117.523 275.051 117.25 274.731C116.976 274.411 116.578 274.251 116.055 274.251C115.548 274.251 115.131 274.426 114.803 274.777C114.483 275.136 114.323 275.574 114.323 276.089V279.402H113.468V273.583H114.299V274.649C114.768 273.868 115.439 273.478 116.313 273.478C117 273.478 117.542 273.689 117.94 274.11C118.323 274.555 118.514 275.121 118.514 275.808V279.402ZM125.44 279.448C124.34 279.448 123.789 278.929 123.789 277.891V274.333H122.712V273.583H123.789V271.909H124.632V273.583H126.107V274.333H124.632V277.88C124.632 278.426 124.948 278.699 125.58 278.699C125.729 278.699 125.904 278.684 126.107 278.652V279.355C125.904 279.417 125.682 279.448 125.44 279.448ZM132.587 279.402H131.733V276.018C131.733 275.48 131.596 275.051 131.323 274.731C131.05 274.411 130.652 274.251 130.129 274.251C129.621 274.251 129.204 274.426 128.876 274.777C128.556 275.136 128.396 275.574 128.396 276.089V279.402H127.542V270.528H128.396V274.625C128.849 273.86 129.512 273.478 130.386 273.478C131.073 273.478 131.615 273.689 132.013 274.11C132.396 274.555 132.587 275.121 132.587 275.808V279.402ZM139.574 276.756H134.868C134.9 277.326 135.114 277.798 135.512 278.172C135.902 278.555 136.382 278.746 136.952 278.746C137.397 278.746 137.776 278.641 138.088 278.43C138.4 278.211 138.622 277.903 138.755 277.505L139.504 277.739C139.34 278.286 139.024 278.719 138.556 279.039C138.072 279.351 137.541 279.507 136.964 279.507C136.418 279.507 135.914 279.37 135.454 279.097C134.993 278.824 134.642 278.457 134.4 277.997C134.143 277.544 134.014 277.041 134.014 276.487C134.014 275.956 134.135 275.464 134.377 275.012C134.603 274.551 134.943 274.18 135.395 273.899C135.832 273.618 136.316 273.478 136.847 273.478C137.432 273.478 137.932 273.611 138.345 273.876C138.767 274.134 139.079 274.489 139.282 274.941C139.485 275.371 139.586 275.882 139.586 276.475C139.586 276.576 139.582 276.67 139.574 276.756ZM134.88 276.03H138.732C138.677 275.499 138.482 275.062 138.146 274.719C137.818 274.391 137.385 274.227 136.847 274.227C136.355 274.227 135.922 274.403 135.547 274.754C135.173 275.121 134.95 275.546 134.88 276.03ZM149.926 276.487C149.926 277.017 149.812 277.509 149.586 277.962C149.36 278.414 149.04 278.781 148.626 279.062C148.205 279.343 147.725 279.484 147.186 279.484C146.226 279.484 145.473 279.047 144.927 278.172V279.402H144.096V270.528H144.95V274.836C145.535 273.931 146.281 273.478 147.186 273.478C148.013 273.478 148.681 273.79 149.188 274.415C149.68 275.023 149.926 275.714 149.926 276.487ZM147.022 278.746C147.631 278.746 148.127 278.531 148.509 278.102C148.876 277.665 149.059 277.134 149.059 276.51C149.059 275.628 148.743 274.976 148.111 274.555C147.807 274.344 147.444 274.239 147.022 274.239C146.445 274.231 145.949 274.454 145.535 274.906C145.122 275.359 144.923 275.882 144.938 276.475C144.938 277.099 145.134 277.63 145.524 278.067C145.922 278.52 146.421 278.746 147.022 278.746ZM151.424 279.402V270.516H152.278V279.402H151.424ZM156.098 276.042H157.714V275.655C157.714 274.711 157.218 274.239 156.227 274.239C155.751 274.239 155.384 274.368 155.127 274.625C154.892 274.859 154.752 275.125 154.705 275.421L153.886 275.246C153.893 275.082 153.972 274.875 154.12 274.625C154.268 274.376 154.463 274.153 154.705 273.958C155.119 273.638 155.634 273.478 156.25 273.478C157.312 273.478 158.018 273.88 158.369 274.684C158.486 274.957 158.545 275.277 158.545 275.644V277.283C158.545 278.235 158.576 278.941 158.639 279.402H157.796C157.741 279.105 157.714 278.766 157.714 278.383C157.222 279.132 156.567 279.507 155.747 279.507C155.162 279.507 154.693 279.343 154.342 279.015C153.975 278.695 153.792 278.286 153.792 277.786V277.728C153.792 277.15 154.022 276.725 154.483 276.452C154.951 276.178 155.49 276.042 156.098 276.042ZM157.714 276.943V276.744H156.087C155.728 276.744 155.411 276.811 155.138 276.943C154.811 277.084 154.647 277.341 154.647 277.716C154.647 278.036 154.768 278.289 155.01 278.477C155.244 278.664 155.54 278.758 155.899 278.758C156.407 278.758 156.84 278.586 157.199 278.243C157.542 277.915 157.714 277.482 157.714 276.943ZM165.444 279.402H164.589V276.018C164.589 275.48 164.453 275.051 164.179 274.731C163.906 274.411 163.508 274.251 162.985 274.251C162.478 274.251 162.06 274.426 161.733 274.777C161.413 275.136 161.253 275.574 161.253 276.089V279.402H160.398V273.583H161.229V274.649C161.698 273.868 162.369 273.478 163.243 273.478C163.93 273.478 164.472 273.689 164.87 274.11C165.253 274.555 165.444 275.121 165.444 275.808V279.402ZM168.182 276.487H168.146V279.402H167.292V270.516H168.146V275.948L170.909 273.583H172.115L169.048 276.194L172.255 279.402H171.073L168.182 276.487Z" fill="#231F20"/>
<path d="M51.9333 207.816H44.528V207.47C44.528 205.955 45.3759 204.671 47.0717 203.617L48.7273 202.594C49.0083 202.433 49.2642 202.262 49.495 202.082C49.6254 201.981 49.8211 201.801 50.082 201.54C50.4633 201.108 50.6539 200.592 50.6539 199.99C50.6539 199.418 50.4231 198.906 49.9616 198.454C49.5 198.013 48.928 197.792 48.2457 197.792C47.6938 197.792 47.2222 197.928 46.8308 198.198C46.4596 198.469 46.1786 198.801 45.988 199.192C45.8676 199.513 45.7923 199.874 45.7622 200.276L44.6183 200.11C44.6183 199.628 44.7337 199.157 44.9645 198.695C45.2053 198.224 45.5414 197.817 45.9729 197.476C46.585 196.974 47.3526 196.723 48.2758 196.723C49.2792 196.723 50.1321 197.05 50.8346 197.702C51.5069 198.354 51.843 199.107 51.843 199.96C51.843 200.682 51.6524 201.304 51.271 201.826C50.8797 202.358 50.3027 202.859 49.5401 203.331L47.8092 204.415C46.595 205.167 45.9679 205.95 45.9278 206.763H51.9333V207.816Z" fill="#231F20"/>
<path d="M48.2908 279.835C47.1871 279.835 46.289 279.503 45.5966 278.841C44.9243 278.199 44.543 277.466 44.4527 276.644L45.5665 276.433C45.6267 277.055 45.9027 277.602 46.3944 278.074C46.8961 278.545 47.5282 278.781 48.2908 278.781C48.5618 278.781 48.8377 278.736 49.1187 278.645C49.4097 278.555 49.6906 278.425 49.9616 278.254C50.2425 278.084 50.4683 277.838 50.6389 277.517C50.8195 277.196 50.9098 276.829 50.9098 276.418C50.9098 275.786 50.669 275.274 50.1873 274.883C49.7157 274.501 49.0886 274.311 48.3059 274.311C47.9246 274.311 47.5834 274.366 47.2824 274.476L46.7405 273.558L50.3379 269.81H44.7086V268.757H51.8129V269.765L48.4113 273.257C49.3144 273.227 50.102 273.453 50.7743 273.934C51.6373 274.526 52.0688 275.339 52.0688 276.373C52.0688 277.065 51.8982 277.672 51.557 278.194C51.2259 278.716 50.7693 279.122 50.1873 279.413C49.6254 279.694 48.9933 279.835 48.2908 279.835Z" fill="#231F20"/>
<path d="M51.0152 328.939V331.573H49.9014V328.939H44.1968V327.675L49.5702 320.601H51.0152V327.946H52.8665V328.939H51.0152ZM49.9014 321.79L45.2203 327.946H49.9014V321.79Z" fill="#231F20"/>
<path d="M265.203 95.7137C265.02 95.7137 264.858 95.8301 264.8 96.004L258.499 114.746L254.082 107.431C254.005 107.303 253.867 107.225 253.718 107.225H250.315V108.078H253.479L258.246 115.973C258.324 116.101 258.462 116.178 258.61 116.178C258.625 116.178 258.641 116.178 258.656 116.176C258.821 116.158 258.96 116.045 259.013 115.888L265.509 96.5664H277.91V95.7137H265.203Z" fill="#383743"/>
<path d="M273.697 105.182H269.172V104.97C269.172 104.044 269.69 103.259 270.726 102.615L271.738 101.99C271.91 101.892 272.066 101.788 272.207 101.677C272.287 101.616 272.407 101.505 272.566 101.346C272.799 101.082 272.915 100.767 272.915 100.399C272.915 100.049 272.774 99.7363 272.492 99.4604C272.21 99.1906 271.861 99.0557 271.444 99.0557C271.106 99.0557 270.818 99.1385 270.579 99.304C270.352 99.4696 270.181 99.6719 270.064 99.9111C269.99 100.107 269.944 100.328 269.926 100.573L269.227 100.472C269.227 100.178 269.298 99.8896 269.439 99.6076C269.586 99.3194 269.791 99.071 270.055 98.8625C270.429 98.5559 270.898 98.4026 271.462 98.4026C272.075 98.4026 272.597 98.6019 273.026 99.0005C273.437 99.3991 273.642 99.859 273.642 100.38C273.642 100.822 273.526 101.202 273.293 101.521C273.053 101.846 272.701 102.152 272.235 102.441L271.177 103.103C270.435 103.563 270.052 104.041 270.027 104.538H273.697V105.182Z" fill="#231F20"/>
<path d="M271.471 116.117C270.797 116.117 270.248 115.914 269.825 115.509C269.414 115.117 269.181 114.669 269.126 114.167L269.806 114.038C269.843 114.418 270.012 114.752 270.312 115.04C270.619 115.329 271.005 115.473 271.471 115.473C271.637 115.473 271.806 115.445 271.977 115.39C272.155 115.335 272.327 115.255 272.492 115.151C272.664 115.047 272.802 114.896 272.906 114.7C273.017 114.504 273.072 114.28 273.072 114.029C273.072 113.642 272.925 113.33 272.63 113.09C272.342 112.857 271.959 112.741 271.481 112.741C271.248 112.741 271.039 112.775 270.855 112.842L270.524 112.281L272.722 109.991H269.282V109.347H273.624V109.963L271.545 112.097C272.097 112.079 272.578 112.217 272.989 112.511C273.516 112.873 273.78 113.369 273.78 114.001C273.78 114.424 273.676 114.795 273.467 115.114C273.265 115.433 272.986 115.681 272.63 115.859C272.287 116.031 271.901 116.117 271.471 116.117Z" fill="#231F20"/>
<line x1="268.712" y1="106.923" x2="273.729" y2="106.923" stroke="#231F20" stroke-width="0.585337"/>
<path d="M391.161 105.061V102.814H392.111V105.061H394.801V105.971H392.111V108.259H391.161V105.971H388.459V105.061H391.161ZM388.486 109.128V110.025H394.787V109.128H388.486Z" fill="#231F20"/>
<path d="M391.161 203.732V201.485H392.111V203.732H394.801V204.642H392.111V206.93H391.161V204.642H388.459V203.732H391.161ZM388.486 207.8V208.696H394.787V207.8H388.486Z" fill="#231F20"/>
<path d="M458.5 110.145L456.44 107.443L454.379 110.145H453.242L455.878 106.76L453.349 103.496H454.486L456.453 106.078L458.42 103.496H459.544L457.028 106.747L459.651 110.145H458.5ZM467.336 110.145H466.32V101.476L463.965 102.867L463.51 102.091L466.346 100.392H467.336V110.145ZM473.456 110.252C472.43 110.252 471.57 109.904 470.874 109.209C470.553 108.852 470.285 108.477 470.071 108.085C469.634 107.246 469.416 106.319 469.416 105.302C469.407 104.571 469.532 103.853 469.79 103.148C470.058 102.434 470.428 101.837 470.901 101.355C471.588 100.651 472.453 100.298 473.496 100.298C474.54 100.298 475.401 100.646 476.078 101.342C476.382 101.654 476.649 102.024 476.881 102.452C477.309 103.282 477.523 104.214 477.523 105.249C477.541 105.989 477.416 106.711 477.149 107.416C476.89 108.121 476.524 108.709 476.052 109.182C475.365 109.896 474.5 110.252 473.456 110.252ZM474.58 101.489C474.25 101.319 473.88 101.235 473.47 101.235C473.059 101.235 472.689 101.319 472.359 101.489C472.011 101.65 471.726 101.868 471.503 102.145C471.03 102.698 470.722 103.371 470.58 104.165C470.348 105.315 470.464 106.404 470.927 107.429C471.266 108.205 471.744 108.745 472.359 109.048C472.698 109.218 473.073 109.302 473.483 109.302C473.884 109.302 474.254 109.222 474.593 109.062C474.95 108.874 475.236 108.656 475.45 108.406C475.905 107.862 476.212 107.193 476.373 106.399C476.605 105.24 476.489 104.147 476.025 103.121C475.686 102.345 475.204 101.801 474.58 101.489Z" fill="#231F20"/>
<path d="M418.036 101.355H413.916L413.166 104.593C413.434 104.343 413.764 104.165 414.156 104.058C414.54 103.951 414.888 103.897 415.2 103.897C416.137 103.897 416.904 104.183 417.501 104.753C418.099 105.324 418.398 106.087 418.398 107.041C418.398 108.076 418.041 108.874 417.327 109.436C416.641 109.971 415.86 110.239 414.986 110.239C413.818 110.239 412.903 109.82 412.243 108.981C411.913 108.562 411.717 108.094 411.655 107.576L412.645 107.349C412.743 107.938 413.006 108.402 413.434 108.74C413.862 109.106 414.393 109.289 415.026 109.289C415.383 109.289 415.731 109.222 416.07 109.088C416.409 108.946 416.712 108.7 416.979 108.352C417.247 107.996 417.381 107.568 417.381 107.068C417.381 106.283 417.131 105.703 416.632 105.329C416.168 104.972 415.633 104.794 415.026 104.794C414.678 104.794 414.304 104.883 413.902 105.061C413.528 105.249 413.215 105.494 412.966 105.797L412.016 105.422L413.166 100.392H418.036V101.355ZM423.292 100.94C423.72 101.369 423.934 101.886 423.934 102.492C423.934 103.099 423.72 103.616 423.292 104.044C422.864 104.473 422.342 104.687 421.727 104.687C421.12 104.687 420.603 104.473 420.175 104.044C419.747 103.616 419.532 103.099 419.532 102.492C419.532 101.886 419.747 101.369 420.175 100.94C420.603 100.512 421.12 100.298 421.727 100.298C422.342 100.298 422.864 100.512 423.292 100.94ZM421.74 110.145H420.75L427.118 100.392H428.095L421.74 110.145ZM422.717 103.469C422.984 103.201 423.118 102.876 423.118 102.492C423.118 102.109 422.984 101.783 422.717 101.516C422.44 101.248 422.11 101.114 421.727 101.114C421.352 101.114 421.031 101.248 420.763 101.516C420.487 101.783 420.349 102.109 420.349 102.492C420.349 102.876 420.487 103.201 420.763 103.469C421.031 103.737 421.352 103.87 421.727 103.87C422.11 103.87 422.44 103.737 422.717 103.469ZM428.684 106.466C429.121 106.894 429.339 107.411 429.339 108.018C429.339 108.625 429.121 109.142 428.684 109.57C428.265 109.998 427.747 110.212 427.132 110.212C426.516 110.212 425.999 109.998 425.58 109.57C425.152 109.151 424.938 108.633 424.938 108.018C424.938 107.403 425.152 106.885 425.58 106.466C426.008 106.038 426.525 105.824 427.132 105.824C427.738 105.824 428.256 106.038 428.684 106.466ZM427.132 109.396C427.515 109.396 427.841 109.262 428.108 108.995C428.376 108.727 428.51 108.402 428.51 108.018C428.51 107.652 428.376 107.327 428.108 107.041C427.841 106.774 427.515 106.64 427.132 106.64C426.748 106.64 426.423 106.774 426.155 107.041C425.888 107.318 425.754 107.643 425.754 108.018C425.754 108.402 425.888 108.727 426.155 108.995C426.423 109.262 426.748 109.396 427.132 109.396Z" fill="#231F20"/>
<path d="M415.079 208.923C414.053 208.923 413.193 208.576 412.497 207.88C412.176 207.523 411.908 207.148 411.694 206.756C411.257 205.918 411.039 204.99 411.039 203.973C411.03 203.242 411.155 202.524 411.413 201.819C411.681 201.106 412.051 200.508 412.524 200.026C413.211 199.322 414.076 198.969 415.119 198.969C416.163 198.969 417.024 199.317 417.702 200.013C418.005 200.325 418.272 200.695 418.504 201.123C418.932 201.953 419.146 202.885 419.146 203.92C419.164 204.66 419.039 205.382 418.772 206.087C418.513 206.792 418.148 207.38 417.675 207.853C416.988 208.567 416.123 208.923 415.079 208.923ZM416.203 200.16C415.873 199.991 415.503 199.906 415.093 199.906C414.682 199.906 414.312 199.991 413.982 200.16C413.634 200.321 413.349 200.539 413.126 200.816C412.653 201.369 412.345 202.042 412.203 202.836C411.971 203.987 412.087 205.075 412.551 206.1C412.89 206.876 413.367 207.416 413.982 207.719C414.321 207.889 414.696 207.974 415.106 207.974C415.507 207.974 415.878 207.893 416.216 207.733C416.573 207.545 416.859 207.327 417.073 207.077C417.528 206.533 417.835 205.864 417.996 205.07C418.228 203.911 418.112 202.818 417.648 201.792C417.309 201.016 416.827 200.472 416.203 200.16ZM424.121 199.612C424.55 200.04 424.764 200.557 424.764 201.164C424.764 201.77 424.55 202.287 424.121 202.716C423.693 203.144 423.172 203.358 422.556 203.358C421.95 203.358 421.432 203.144 421.004 202.716C420.576 202.287 420.362 201.77 420.362 201.164C420.362 200.557 420.576 200.04 421.004 199.612C421.432 199.183 421.95 198.969 422.556 198.969C423.172 198.969 423.693 199.183 424.121 199.612ZM422.569 208.816H421.579L427.948 199.063H428.925L422.569 208.816ZM423.546 202.14C423.814 201.873 423.947 201.547 423.947 201.164C423.947 200.78 423.814 200.454 423.546 200.187C423.27 199.919 422.94 199.785 422.556 199.785C422.181 199.785 421.86 199.919 421.593 200.187C421.316 200.454 421.178 200.78 421.178 201.164C421.178 201.547 421.316 201.873 421.593 202.14C421.86 202.408 422.181 202.542 422.556 202.542C422.94 202.542 423.27 202.408 423.546 202.14ZM429.513 205.137C429.95 205.565 430.169 206.083 430.169 206.689C430.169 207.296 429.95 207.813 429.513 208.241C429.094 208.669 428.577 208.883 427.961 208.883C427.346 208.883 426.828 208.669 426.409 208.241C425.981 207.822 425.767 207.305 425.767 206.689C425.767 206.074 425.981 205.556 426.409 205.137C426.837 204.709 427.355 204.495 427.961 204.495C428.568 204.495 429.085 204.709 429.513 205.137ZM427.961 208.067C428.345 208.067 428.67 207.933 428.938 207.666C429.205 207.398 429.339 207.073 429.339 206.689C429.339 206.323 429.205 205.998 428.938 205.712C428.67 205.445 428.345 205.311 427.961 205.311C427.578 205.311 427.252 205.445 426.985 205.712C426.717 205.989 426.583 206.315 426.583 206.689C426.583 207.073 426.717 207.398 426.985 207.666C427.252 207.933 427.578 208.067 427.961 208.067Z" fill="#231F20"/>
<path d="M255.037 206.93C255.037 207.528 254.809 208.005 254.354 208.362C253.9 208.736 253.342 208.923 252.682 208.923C251.71 208.923 251.001 208.602 250.555 207.96C250.332 207.657 250.198 207.318 250.153 206.943L251.036 206.716C251.099 207.082 251.264 207.403 251.531 207.679C251.808 207.947 252.187 208.081 252.669 208.081C253.034 208.081 253.36 207.978 253.645 207.773C253.913 207.586 254.047 207.322 254.047 206.983C254.047 206.716 253.94 206.502 253.726 206.341C253.529 206.181 253.275 206.065 252.963 205.993L251.946 205.766C250.84 205.525 250.287 204.945 250.287 204.027C250.287 203.34 250.564 202.827 251.117 202.488C251.589 202.194 252.067 202.047 252.548 202.047C253.458 202.055 254.123 202.35 254.542 202.93C254.747 203.224 254.881 203.523 254.943 203.826L254.06 204.08C253.998 203.822 253.868 203.572 253.672 203.331C253.431 203.046 253.057 202.903 252.548 202.903C252.183 202.903 251.879 203.005 251.638 203.211C251.389 203.407 251.264 203.657 251.264 203.96C251.264 204.406 251.585 204.709 252.227 204.87L253.298 205.11C253.788 205.226 254.198 205.436 254.528 205.739C254.867 206.042 255.037 206.439 255.037 206.93ZM256.736 200.307C256.594 200.147 256.522 199.973 256.522 199.785C256.522 199.598 256.594 199.424 256.736 199.264C256.879 199.121 257.053 199.05 257.258 199.05C257.454 199.05 257.624 199.121 257.767 199.264C257.909 199.406 257.981 199.58 257.981 199.785C257.981 199.991 257.909 200.165 257.767 200.307C257.624 200.45 257.454 200.521 257.258 200.521C257.053 200.521 256.879 200.45 256.736 200.307ZM256.763 208.816V202.167H257.74V208.816H256.763ZM265.704 208.816H264.728V204.95C264.728 204.334 264.572 203.844 264.26 203.478C263.947 203.112 263.492 202.93 262.895 202.93C262.315 202.93 261.838 203.13 261.463 203.532C261.098 203.942 260.915 204.441 260.915 205.03V208.816H259.938V202.167H260.888V203.384C261.423 202.493 262.19 202.047 263.189 202.047C263.974 202.047 264.594 202.287 265.049 202.769C265.486 203.277 265.704 203.924 265.704 204.709V208.816ZM274.209 208.91C273.228 208.91 272.429 208.616 271.814 208.027C271.216 207.456 270.877 206.805 270.797 206.074L271.787 205.886C271.841 206.439 272.086 206.925 272.523 207.345C272.969 207.764 273.531 207.974 274.209 207.974C274.449 207.974 274.695 207.933 274.945 207.853C275.203 207.773 275.453 207.657 275.694 207.505C275.943 207.354 276.144 207.135 276.296 206.85C276.456 206.564 276.537 206.239 276.537 205.873C276.537 205.311 276.323 204.856 275.894 204.508C275.475 204.169 274.918 204 274.222 204C273.883 204 273.58 204.049 273.312 204.147L272.831 203.331L276.028 200H271.024V199.063H277.339V199.959L274.316 203.063C275.118 203.037 275.819 203.237 276.416 203.665C277.183 204.192 277.567 204.914 277.567 205.833C277.567 206.448 277.415 206.988 277.112 207.452C276.818 207.916 276.412 208.277 275.894 208.535C275.395 208.785 274.833 208.91 274.209 208.91ZM283.072 208.923C282.046 208.923 281.185 208.576 280.489 207.88C280.168 207.523 279.901 207.148 279.687 206.756C279.25 205.918 279.031 204.99 279.031 203.973C279.022 203.242 279.147 202.524 279.406 201.819C279.673 201.106 280.043 200.508 280.516 200.026C281.203 199.322 282.068 198.969 283.112 198.969C284.155 198.969 285.016 199.317 285.694 200.013C285.997 200.325 286.265 200.695 286.497 201.123C286.925 201.953 287.139 202.885 287.139 203.92C287.157 204.66 287.032 205.382 286.764 206.087C286.506 206.792 286.14 207.38 285.667 207.853C284.98 208.567 284.115 208.923 283.072 208.923ZM284.195 200.16C283.865 199.991 283.495 199.906 283.085 199.906C282.675 199.906 282.305 199.991 281.975 200.16C281.627 200.321 281.341 200.539 281.118 200.816C280.646 201.369 280.338 202.042 280.195 202.836C279.963 203.987 280.079 205.075 280.543 206.1C280.882 206.876 281.359 207.416 281.975 207.719C282.313 207.889 282.688 207.974 283.098 207.974C283.5 207.974 283.87 207.893 284.209 207.733C284.566 207.545 284.851 207.327 285.065 207.077C285.52 206.533 285.828 205.864 285.988 205.07C286.22 203.911 286.104 202.818 285.64 201.792C285.301 201.016 284.82 200.472 284.195 200.16Z" fill="#231F20"/>
<path d="M260.835 270.14L256.915 279.893H255.778L251.858 270.14H252.982L256.353 278.742L259.738 270.14H260.835ZM266.36 276.869H260.982C261.017 277.52 261.263 278.06 261.718 278.488C262.164 278.925 262.712 279.144 263.363 279.144C263.872 279.144 264.304 279.023 264.661 278.782C265.018 278.533 265.272 278.18 265.424 277.726L266.28 277.993C266.093 278.617 265.731 279.112 265.196 279.478C264.643 279.835 264.037 280.013 263.377 280.013C262.752 280.013 262.177 279.857 261.651 279.545C261.125 279.233 260.723 278.814 260.447 278.287C260.152 277.77 260.005 277.195 260.005 276.562C260.005 275.955 260.143 275.393 260.42 274.876C260.679 274.35 261.067 273.926 261.584 273.605C262.083 273.284 262.636 273.123 263.243 273.123C263.912 273.123 264.483 273.275 264.955 273.578C265.437 273.872 265.794 274.278 266.026 274.795C266.258 275.286 266.374 275.87 266.374 276.548C266.374 276.664 266.369 276.771 266.36 276.869ZM260.995 276.04H265.397C265.334 275.433 265.111 274.934 264.728 274.541C264.353 274.167 263.858 273.979 263.243 273.979C262.681 273.979 262.186 274.18 261.758 274.581C261.33 275.001 261.075 275.487 260.995 276.04ZM268.56 276.535C268.56 277.534 268.935 278.279 269.684 278.769C270.05 279.019 270.478 279.144 270.968 279.144C271.504 279.144 271.958 279.005 272.333 278.729C272.467 278.631 272.605 278.497 272.748 278.328C272.944 278.069 273.091 277.81 273.189 277.552L274.086 277.846C273.934 278.381 273.595 278.863 273.069 279.291C272.498 279.773 271.793 280.013 270.955 280.013C270.001 280.031 269.193 279.71 268.533 279.05C267.882 278.39 267.561 277.569 267.57 276.588C267.57 275.946 267.726 275.353 268.038 274.809C268.351 274.274 268.765 273.859 269.283 273.565C269.8 273.27 270.371 273.123 270.995 273.123C271.744 273.123 272.404 273.328 272.975 273.739C273.555 274.176 273.912 274.68 274.046 275.25L273.163 275.545C273.064 275.188 272.824 274.84 272.44 274.501C272.065 274.162 271.575 273.993 270.968 273.993C270.273 273.993 269.697 274.238 269.242 274.729C268.788 275.228 268.56 275.83 268.56 276.535ZM277.879 279.946C276.622 279.946 275.993 279.353 275.993 278.167V274.1H274.762V273.244H275.993V271.33H276.956V273.244H278.642V274.1H276.956V278.154C276.956 278.778 277.317 279.09 278.04 279.09C278.209 279.09 278.41 279.072 278.642 279.037V279.839C278.41 279.911 278.156 279.946 277.879 279.946ZM282.911 280.013C282.295 280.013 281.72 279.862 281.185 279.558C280.658 279.246 280.248 278.832 279.954 278.314C279.651 277.797 279.499 277.222 279.499 276.588C279.499 275.598 279.829 274.778 280.489 274.127C281.149 273.458 281.965 273.123 282.937 273.123C283.883 273.105 284.694 273.44 285.372 274.127C286.059 274.804 286.394 275.612 286.376 276.548C286.394 277.511 286.059 278.337 285.372 279.023C284.686 279.701 283.865 280.031 282.911 280.013ZM282.937 279.144C283.633 279.144 284.217 278.894 284.69 278.394C285.145 277.895 285.372 277.293 285.372 276.588C285.372 275.875 285.14 275.259 284.677 274.742C284.204 274.234 283.615 273.979 282.911 273.979C282.206 273.979 281.626 274.229 281.171 274.729C280.716 275.228 280.489 275.835 280.489 276.548C280.471 277.253 280.699 277.864 281.171 278.381C281.653 278.898 282.242 279.153 282.937 279.144ZM288.081 273.244H289.031V274.555C289.343 273.921 289.798 273.493 290.396 273.27C290.637 273.181 290.9 273.136 291.185 273.136C291.355 273.136 291.462 273.145 291.506 273.163V274.193C291.435 274.176 291.31 274.167 291.132 274.167C290.409 274.167 289.883 274.408 289.553 274.889C289.223 275.371 289.058 275.955 289.058 276.642V279.893H288.081V273.244Z" fill="#231F20"/>
<path d="M254.024 333.409L252.953 330.921H247.642L246.571 333.409H245.528L249.729 323.656H250.893L255.107 333.409H254.024ZM252.565 329.984L250.291 324.713L248.03 329.984H252.565Z" fill="#231F20"/>
<path d="M281.267 333.409H277.628V323.656H281.134C282.043 323.638 282.793 323.852 283.381 324.298C283.979 324.735 284.278 325.337 284.278 326.104C284.278 326.363 284.233 326.631 284.144 326.907C284.09 327.077 284.01 327.246 283.903 327.416C283.653 327.808 283.283 328.116 282.793 328.339C283.479 328.517 283.983 328.87 284.304 329.396C284.572 329.842 284.706 330.288 284.706 330.734C284.706 331.643 284.362 332.326 283.676 332.781C283.025 333.2 282.222 333.409 281.267 333.409ZM281.053 324.593H278.645V327.991H280.973C281.74 327.991 282.307 327.826 282.672 327.496C283.047 327.166 283.234 326.742 283.234 326.225C283.234 325.672 283.025 325.262 282.605 324.994C282.186 324.726 281.669 324.593 281.053 324.593ZM281.093 328.901H278.645V332.473H281.294C281.927 332.473 282.48 332.33 282.953 332.045C283.426 331.75 283.662 331.291 283.662 330.667C283.662 329.918 283.27 329.405 282.485 329.128C282.092 328.977 281.629 328.901 281.093 328.901Z" fill="#231F20"/>
<path d="M311.252 333.517C309.888 333.517 308.737 333.057 307.801 332.138C307.364 331.701 307.02 331.18 306.77 330.573C306.512 329.931 306.382 329.262 306.382 328.566C306.382 327.835 306.516 327.157 306.784 326.533C307.06 325.89 307.413 325.36 307.841 324.94C308.795 324.013 309.946 323.549 311.293 323.549C312.309 323.549 313.175 323.799 313.888 324.298C314.191 324.495 314.477 324.744 314.744 325.048C315.19 325.565 315.494 326.136 315.654 326.76L314.677 327.108C314.579 326.733 314.388 326.341 314.102 325.931C313.897 325.654 313.687 325.427 313.473 325.248C313.224 325.034 312.911 324.865 312.537 324.74C312.162 324.597 311.739 324.526 311.266 324.526C310.213 324.526 309.321 324.891 308.59 325.623C307.832 326.381 307.453 327.34 307.453 328.499C307.453 329.275 307.618 329.967 307.948 330.573C308.269 331.189 308.728 331.67 309.326 332.018C309.897 332.366 310.548 332.54 311.279 332.54C312.135 332.54 312.849 332.312 313.42 331.858C313.678 331.661 313.893 331.438 314.062 331.189C314.231 330.966 314.37 330.743 314.477 330.52C314.566 330.306 314.642 330.109 314.704 329.931L315.681 330.279C315.52 330.859 315.222 331.412 314.784 331.938C314.553 332.214 314.272 332.477 313.942 332.727C313.201 333.253 312.305 333.517 311.252 333.517Z" fill="#231F20"/>
<path d="M337.357 333.573V323.82H340.26C341.019 323.82 341.714 323.945 342.348 324.195C342.981 324.435 343.525 324.774 343.98 325.211C344.934 326.139 345.411 327.294 345.411 328.677C345.411 329.39 345.278 330.055 345.01 330.67C344.751 331.259 344.386 331.776 343.913 332.222C342.923 333.123 341.705 333.573 340.26 333.573H337.357ZM338.387 324.783V332.61H340.22C341.032 332.61 341.75 332.441 342.374 332.102C343.017 331.763 343.503 331.303 343.833 330.724C344.181 330.135 344.354 329.461 344.354 328.703C344.354 327.579 343.98 326.643 343.231 325.894C342.49 325.153 341.487 324.783 340.22 324.783H338.387Z" fill="white"/>
<path d="M367.944 333.409V323.656H374.045V324.606H368.974V327.978H373.617V328.927H368.974V332.46H374.098V333.409H367.944Z" fill="#231F20"/>
<path d="M503.767 87.0463C502.643 87.0463 501.755 87.4342 501.104 88.2102C500.471 88.9505 500.101 89.8782 499.994 90.9931C500.297 90.5025 500.725 90.1368 501.278 89.896C501.751 89.6909 502.219 89.5883 502.683 89.5883C503.7 89.5883 504.507 89.9005 505.104 90.5248C505.675 91.1224 505.961 91.8494 505.961 92.7056C505.961 93.2319 505.863 93.7135 505.666 94.1506C505.47 94.5787 505.203 94.9266 504.864 95.1941C504.168 95.7471 503.383 96.0236 502.509 96.0236C501.938 96.0236 501.381 95.8765 500.837 95.5821C500.266 95.261 499.846 94.8641 499.579 94.3914C499.356 93.9633 499.195 93.5619 499.097 93.1873C499.008 92.7591 498.963 92.2641 498.963 91.7022C498.963 90.1324 499.369 88.8078 500.181 87.7286C500.582 87.2113 501.091 86.8099 501.706 86.5245C502.331 86.2301 503.013 86.083 503.753 86.083C504.574 86.083 505.243 86.2346 505.76 86.5378L505.372 87.461C504.926 87.1845 504.391 87.0463 503.767 87.0463ZM502.536 90.4847C501.929 90.4847 501.381 90.6809 500.89 91.0734C500.373 91.5015 500.114 92.0634 500.114 92.7591C500.114 93.2319 500.234 93.6466 500.475 94.0034C500.716 94.3691 501.015 94.6367 501.372 94.8061C501.72 94.9845 502.108 95.0737 502.536 95.0737C503.196 95.0737 503.762 94.8686 504.235 94.4583C504.716 94.048 504.957 93.4772 504.957 92.7458C504.957 92.1303 504.734 91.5996 504.288 91.1536C503.842 90.7077 503.258 90.4847 502.536 90.4847Z" fill="#231F20"/>
<path d="M551.376 110.982H550.426V107.075C550.426 106.504 550.283 106.027 549.998 105.643C549.704 105.278 549.275 105.095 548.714 105.095C548.143 105.095 547.692 105.3 547.362 105.71C547.032 106.12 546.867 106.615 546.867 107.195V110.982H545.891V104.332H546.84V105.483C547.135 105.046 547.451 104.725 547.79 104.519C548.129 104.314 548.531 104.212 548.994 104.212C550.002 104.212 550.711 104.658 551.122 105.55C551.684 104.658 552.464 104.212 553.463 104.212C554.239 104.212 554.846 104.457 555.283 104.948C555.702 105.438 555.911 106.08 555.911 106.874V110.982H554.948V107.115C554.948 106.508 554.805 106.022 554.52 105.657C554.226 105.282 553.793 105.095 553.222 105.095C552.669 105.095 552.223 105.295 551.884 105.697C551.545 106.089 551.376 106.575 551.376 107.155V110.982ZM558.39 111.048H557.359L561.614 100.84H562.644L558.39 111.048ZM567.303 109.095C567.303 109.693 567.076 110.17 566.621 110.527C566.166 110.901 565.609 111.089 564.949 111.089C563.976 111.089 563.267 110.767 562.821 110.125C562.598 109.822 562.465 109.483 562.42 109.108L563.303 108.881C563.365 109.247 563.53 109.568 563.798 109.844C564.074 110.112 564.454 110.246 564.935 110.246C565.301 110.246 565.626 110.143 565.912 109.938C566.179 109.751 566.313 109.488 566.313 109.149C566.313 108.881 566.206 108.667 565.992 108.506C565.796 108.346 565.542 108.23 565.23 108.159L564.213 107.931C563.107 107.69 562.554 107.11 562.554 106.192C562.554 105.505 562.83 104.992 563.383 104.653C563.856 104.359 564.333 104.212 564.815 104.212C565.725 104.221 566.389 104.515 566.808 105.095C567.013 105.389 567.147 105.688 567.21 105.991L566.327 106.245C566.264 105.987 566.135 105.737 565.939 105.496C565.698 105.211 565.323 105.068 564.815 105.068C564.449 105.068 564.146 105.171 563.905 105.376C563.655 105.572 563.53 105.822 563.53 106.125C563.53 106.571 563.851 106.874 564.494 107.035L565.564 107.275C566.055 107.391 566.465 107.601 566.795 107.904C567.134 108.208 567.303 108.604 567.303 109.095Z" fill="#231F20"/>
<path d="M569.637 104.345L569.629 104.086C569.623 103.194 570.108 102.458 571.084 101.879L572.029 101.327C572.347 101.137 572.578 100.948 572.723 100.758C572.873 100.563 572.949 100.335 572.949 100.072C572.949 99.7826 572.846 99.5373 572.639 99.3366C572.427 99.1415 572.154 99.044 571.82 99.044C571.329 99.044 570.984 99.2391 570.783 99.6293C570.705 99.7798 570.663 99.9972 570.657 100.282L569.688 100.156C569.676 99.883 569.735 99.607 569.863 99.3283C569.991 99.0496 570.178 98.8098 570.423 98.6092C570.791 98.3081 571.262 98.1576 571.837 98.1576C572.483 98.1576 573.002 98.3527 573.392 98.7429C573.754 99.1164 573.935 99.5541 573.935 100.056C573.935 100.429 573.835 100.772 573.634 101.084C573.439 101.402 573.161 101.667 572.798 101.879L571.686 102.531C571.653 102.548 571.611 102.573 571.561 102.606C571.516 102.64 571.485 102.662 571.469 102.673C571.368 102.746 571.287 102.807 571.226 102.857C571.02 103.03 570.886 103.236 570.825 103.476H573.994V104.345H569.637Z" fill="#231F20"/>
<path d="M204.325 109.688L202.152 105.925H206.497L204.325 109.688Z" fill="#383743"/>
<path d="M435.951 109.688L433.778 105.925H438.123L435.951 109.688Z" fill="#383743"/>
<path d="M435.951 208.359L433.778 204.596H438.123L435.951 208.359Z" fill="#383743"/>
<path d="M517.898 95.473L515.726 91.7101H520.071L517.898 95.473Z" fill="#383743"/>
<path d="M204.325 208.359L202.152 204.596H206.497L204.325 208.359Z" fill="#383743"/>
<path d="M204.325 279.436L202.152 275.673H206.497L204.325 279.436Z" fill="#383743"/>
<path d="M204.325 332.116L202.152 328.353H206.497L204.325 332.116Z" fill="#383743"/>
</g>
<defs>
<filter id="filter0_d" x="0" y="0" width="657" height="386.073" filterUnits="userSpaceOnUse" color-interpolation-filters="sRGB">
<feFlood flood-opacity="0" result="BackgroundImageFix"/>
<feColorMatrix in="SourceAlpha" type="matrix" values="0 0 0 0 0 0 0 0 0 0 0 0 0 0 0 0 0 0 127 0"/>
<feOffset dy="6"/>
<feGaussianBlur stdDeviation="6"/>
<feColorMatrix type="matrix" values="0 0 0 0 0.219608 0 0 0 0 0.215686 0 0 0 0 0.262745 0 0 0 0.06 0"/>
<feBlend mode="normal" in2="BackgroundImageFix" result="effect1_dropShadow"/>
<feBlend mode="normal" in="SourceGraphic" in2="effect1_dropShadow" result="shape"/>
</filter>
</defs>
</svg>
