<svg width="325" height="362" viewBox="0 0 325 362" fill="none" xmlns="http://www.w3.org/2000/svg">
<path d="M41.6626 161.154C41.6626 161.154 138.806 209.435 156.224 202.729C173.643 196.024 179.673 136.343 179.673 136.343L107.988 122.932L41.6626 161.154Z" fill="#EC1515"/>
<path opacity="0.1" d="M41.6626 161.154C41.6626 161.154 138.806 209.435 156.224 202.729C173.643 196.024 179.673 136.343 179.673 136.343L107.988 122.932L41.6626 161.154Z" fill="black"/>
<path d="M242.983 89.0684H179.338V144.725H242.983V89.0684Z" fill="#524547"/>
<path opacity="0.1" d="M242.983 89.0684H179.338V144.725H242.983V89.0684Z" fill="black"/>
<path d="M195.751 97.4502C195.751 97.4502 199.771 122.932 192.402 126.284C185.032 129.637 180.343 132.32 180.343 132.32L197.091 143.719L227.909 145.731L235.949 139.696L243.318 132.99C243.318 132.99 231.259 130.308 231.259 124.273C231.259 118.238 230.589 100.132 230.589 100.132L195.751 97.4502Z" fill="#EDCFB4"/>
<path opacity="0.1" d="M195.751 97.4502C195.751 97.4502 199.771 122.932 192.402 126.284C185.032 129.637 180.343 132.32 180.343 132.32L197.091 143.719L227.909 145.731L235.949 139.696L243.318 132.99C243.318 132.99 231.259 130.308 231.259 124.273C231.259 118.238 230.589 100.132 230.589 100.132L195.751 97.4502Z" fill="black"/>
<path d="M213.84 114.885C230.12 114.885 243.318 101.675 243.318 85.3804C243.318 69.0853 230.12 55.8755 213.84 55.8755C197.56 55.8755 184.362 69.0853 184.362 85.3804C184.362 101.675 197.56 114.885 213.84 114.885Z" fill="#EDCFB4"/>
<path d="M268.106 138.355C268.106 138.355 244.756 129.178 236.333 130.414C232.703 133.501 228.472 135.801 223.909 137.168C219.345 138.535 214.548 138.939 209.821 138.355C193.742 136.343 187.454 128.62 187.454 128.62C187.454 128.62 144.165 138.355 146.845 142.379C149.525 146.402 161.584 212.117 161.584 212.117C161.584 212.117 169.623 269.115 160.244 288.562C150.865 308.008 146.175 340.195 150.195 342.877C154.215 345.56 199.101 357.63 204.461 360.983C209.821 364.336 211.83 352.936 215.18 354.948C218.53 356.959 225.899 360.312 230.589 357.63C235.279 354.948 280.835 330.807 279.495 326.113C278.156 321.419 260.737 264.421 254.707 253.022C248.678 241.622 253.367 217.482 256.717 212.788C260.067 208.094 266.766 202.729 268.106 189.318C269.446 175.907 268.106 138.355 268.106 138.355Z" fill="#407BFF"/>
<path d="M148.321 140.306C148.321 140.306 142.825 144.39 140.815 153.107C138.805 161.824 136.126 231.563 136.126 231.563C136.126 231.563 111.337 327.454 116.697 329.466C122.057 331.478 137.466 335.501 139.475 333.489C141.485 331.477 164.264 250.339 162.254 241.622C160.244 232.904 164.934 207.423 164.934 207.423L148.321 140.306Z" fill="#407BFF"/>
<path d="M272.126 265.092C272.126 265.092 235.949 246.987 231.929 259.057C227.909 271.127 270.116 283.868 270.116 283.868C270.116 283.868 284.855 278.503 284.855 275.15C284.855 271.798 272.126 265.092 272.126 265.092Z" fill="#EDCFB4"/>
<path d="M260.737 141.037L268.106 138.355C268.106 138.355 272.126 135.673 276.816 145.731C281.505 155.789 332.422 214.799 323.042 233.575C313.663 252.351 282.845 290.573 281.505 287.891C280.165 285.209 264.757 265.092 267.436 263.08C270.116 261.068 300.934 233.575 296.914 229.552C292.894 225.528 276.146 191.329 266.766 189.988C257.387 188.647 260.737 141.037 260.737 141.037Z" fill="#407BFF"/>
<path d="M181.347 84.3744C181.347 84.3744 79.1877 43.26 -9.24591 3.69663C-9.24591 3.69663 -55.4726 -7.70298 -79.5909 13.7551C-79.5909 13.7551 -59.4923 11.0728 -59.4923 22.4724C-59.4923 22.4724 -42.0735 45.2717 -96.3396 49.2951C-134.132 52.0971 -149.179 74.7383 -154.832 88.2265C-159.245 99.0538 -167.003 108.184 -176.972 114.283C-190.034 122.097 -208.965 127.845 -231 117.693C-231 117.693 -229.747 119.62 -227.371 122.832C-184.826 180.339 -26.3935 230.387 29.5536 185.839C64.1292 158.308 118.941 123.51 158.234 141.037C219.87 168.53 231.259 156.46 231.259 156.46L233.939 149.084C233.939 149.084 174.313 132.99 172.973 112.203C171.633 91.4153 181.347 84.3744 181.347 84.3744Z" fill="#EC1515"/>
<path d="M240.973 89.7388C240.973 89.7388 255.377 95.4386 258.057 114.214C258.057 114.214 273.466 144.39 256.047 151.766C238.628 159.142 235.279 157.131 235.279 157.131V153.778C235.279 153.778 254.037 142.378 250.017 133.661C245.998 124.943 240.973 89.7388 240.973 89.7388Z" fill="#EC1515"/>
<path d="M215.18 175.236C215.18 175.236 219.87 163.166 218.53 163.166C217.19 163.166 223.981 155.742 226.615 158.448C229.249 161.154 233.939 169.201 228.579 171.213C223.22 173.224 215.18 175.236 215.18 175.236Z" fill="#EC1515"/>
<path d="M248.198 168.072C248.198 168.072 235.951 163.892 236.008 165.232C236.064 166.572 228.367 160.095 230.957 157.346C233.547 154.598 241.381 149.568 243.615 154.842C245.85 160.117 248.198 168.072 248.198 168.072Z" fill="#EC1515"/>
<path d="M228.579 149.755C228.579 149.755 234.696 146.318 238.337 151.725C241.978 157.131 233.939 166.519 228.579 166.519C223.219 166.519 223.219 155.119 223.219 155.119L228.579 149.755Z" fill="#EC1515"/>
<path opacity="0.1" d="M228.579 149.755C228.579 149.755 234.696 146.318 238.337 151.725C241.978 157.131 233.939 166.519 228.579 166.519C223.219 166.519 223.219 155.119 223.219 155.119L228.579 149.755Z" fill="black"/>
<path d="M188.283 37.2325C184.75 40.147 181.401 43.4131 179.204 47.4331C178.052 49.6877 177.089 52.0341 176.325 54.4482C173.616 62.2522 166.881 70.1562 169.732 77.9097C170.545 80.1222 171.813 82.4549 171.084 84.6966C170.436 86.6874 168.438 87.8491 166.992 89.3624C163.89 92.6103 163.368 97.4836 163.179 101.973C162.832 110.195 167.348 119.885 172.806 126.039C173.991 127.197 175.089 128.441 176.091 129.761C176.766 130.814 177.208 131.999 177.385 133.237C177.563 134.476 177.472 135.738 177.119 136.938L185.07 135.277C185.357 138.215 185.446 141.169 185.338 144.119C187.223 144.326 189.122 143.877 190.715 142.846C192.308 141.816 193.497 140.268 194.083 138.462C194.533 140.566 195.268 142.598 196.267 144.503C198.599 141.583 200.388 138.267 201.548 134.714C203.069 130.163 203.396 125.296 202.496 120.582C201.654 117.14 200.508 113.778 199.073 110.538C196.263 103.432 193.969 96.1342 191.678 88.8442C190.488 85.0579 189.283 81.1486 189.644 77.1958L192.469 76.8883C192.5 75.327 192.802 73.7829 193.361 72.3248C195.016 72.6755 196.609 73.2755 198.085 74.1046L201.342 65.8334C203.491 68.0645 206.576 69.0744 209.529 70.0053L220.756 73.5434L220.824 71.3196C225.563 75.5183 230.96 78.907 236.8 81.3495C236.47 80.9509 236.229 80.4866 236.093 79.9874C235.957 79.4883 235.929 78.9659 236.011 78.455C238.777 83.4157 237.671 89.5956 235.964 95.0137C234.256 100.432 231.991 105.948 232.679 111.587C233.193 115.805 235.351 119.839 234.951 124.069C234.754 126.152 233.94 128.134 233.687 130.211C233.083 135.165 235.686 139.882 238.197 144.193L243.082 137.479C244.869 135.022 246.712 132.511 249.243 130.831C251.841 129.107 255.062 128.333 257.326 126.189C261.368 122.36 260.854 115.838 259.54 110.425C258.841 107.548 257.996 104.63 258.253 101.681C258.688 96.6801 262.16 92.5427 264.115 87.9205C265.509 84.5503 266.113 80.9054 265.881 77.2653C265.649 73.6252 264.587 70.0866 262.778 66.9207C260.351 62.7555 256.685 59.401 254.399 55.1573C252.123 50.9329 251.255 45.9064 248.137 42.2605C246.614 40.6014 244.843 39.1891 242.887 38.0741C234.024 32.7442 224.07 29.4936 213.772 28.5666C204.005 27.5447 195.766 31.0577 188.283 37.2325Z" fill="#524547"/>
</svg>
